<svg width="96" height="96" viewBox="0 0 96 96" fill="none" xmlns="http://www.w3.org/2000/svg">
<g clip-path="url(#clip0_7897_66086)">
<g clip-path="url(#clip1_7897_66086)">
<path d="M77.5096 48.01C77.0096 48.01 76.5996 47.6 76.5996 47.1V32.56C76.5996 32.06 77.0096 31.65 77.5096 31.65C78.0096 31.65 78.4196 32.06 78.4196 32.56V47.1C78.4196 47.6 78.0096 48.01 77.5096 48.01Z" fill="white"></path>
<path d="M77.5101 48.28C76.8601 48.28 76.3301 47.75 76.3301 47.1V32.56C76.3301 31.91 76.8601 31.38 77.5101 31.38C78.1601 31.38 78.6901 31.91 78.6901 32.56V47.1C78.6901 47.75 78.1601 48.28 77.5101 48.28ZM77.5101 31.91C77.1601 31.91 76.8701 32.2 76.8701 32.55V47.09C76.8701 47.44 77.1601 47.73 77.5101 47.73C77.8601 47.73 78.1501 47.44 78.1501 47.09V32.55C78.1501 32.2 77.8601 31.91 77.5101 31.91Z" fill="black"></path>
<path d="M73.4496 69.3L64.3096 64.73L71.0796 58.04L73.4496 69.3Z" fill="black"></path>
<path d="M73.4495 69.57C73.4495 69.57 73.3695 69.57 73.3295 69.54L64.1895 64.97C64.1095 64.93 64.0595 64.86 64.0395 64.77C64.0295 64.68 64.0495 64.6 64.1195 64.53L70.8995 57.83C70.9695 57.76 71.0695 57.73 71.1695 57.76C71.2595 57.79 71.3395 57.87 71.3595 57.96L73.7295 69.23C73.7495 69.33 73.7095 69.44 73.6295 69.5C73.5795 69.54 73.5195 69.56 73.4595 69.56L73.4495 69.57ZM64.7695 64.66L73.0695 68.81L70.9195 58.58L64.7695 64.66Z" fill="black"></path>
<path d="M37.2301 85.5801L28.0801 81.0101L34.8601 74.3101L37.2301 85.5801Z" fill="black"></path>
<path d="M37.2298 85.85C37.2298 85.85 37.1498 85.85 37.1098 85.82L27.9698 81.25C27.8898 81.21 27.8398 81.14 27.8198 81.05C27.8098 80.96 27.8298 80.88 27.8998 80.81L34.6798 74.11C34.7498 74.04 34.8498 74.01 34.9498 74.04C35.0398 74.07 35.1198 74.15 35.1398 74.24L37.5098 85.51C37.5298 85.61 37.4898 85.72 37.4098 85.78C37.3598 85.82 37.2998 85.84 37.2398 85.84L37.2298 85.85ZM28.5398 80.93L36.8398 85.08L34.6898 74.85L28.5398 80.93Z" fill="black"></path>
<path d="M15.1802 56.5L14.8602 53.4399C14.7502 52.4099 13.4202 52.06 12.8202 52.91C12.2102 53.79 11.7702 55.2 12.1002 57.47" fill="#DDCAFF"></path>
<path d="M12.1105 57.74C11.9805 57.74 11.8605 57.64 11.8405 57.51C11.5505 55.51 11.8105 53.92 12.6105 52.76C12.9405 52.28 13.5305 52.06 14.1005 52.21C14.6705 52.36 15.0805 52.83 15.1405 53.41L15.4605 56.47C15.4805 56.62 15.3705 56.75 15.2205 56.77C15.0705 56.78 14.9405 56.68 14.9205 56.53L14.6005 53.47C14.5505 53.04 14.2405 52.8 13.9605 52.73C13.6805 52.66 13.3005 52.71 13.0505 53.07C12.3305 54.11 12.1005 55.58 12.3705 57.43C12.3905 57.58 12.2905 57.72 12.1405 57.74C12.1305 57.74 12.1105 57.74 12.1005 57.74H12.1105Z" fill="black"></path>
<path d="M80.9899 62.03C83.9699 60.25 83.5899 57.6 83.5899 57.6V49.49C83.5899 47.99 82.6599 46.65 81.2499 46.12L73.4699 43.24C49.3899 35.75 42.8699 37.07 34.2399 40.15C23.5299 43.97 15.2399 55.37 15.2399 55.37C15.2399 55.37 -2.60007 62.53 0.679929 75.42L0.279929 76.64V77.27C0.279929 78.23 0.639929 79.15 1.29993 79.84C3.78993 82.46 11.0799 88.4 25.6899 87.82C27.4799 87.75 29.2399 87.4 30.9199 86.78L34.6499 85.42L34.7299 79.95C34.7399 79.18 34.8199 78.41 34.9599 77.66C34.9899 77.51 35.0199 77.37 35.0499 77.25C36.0899 73.17 39.0999 70.41 41.7799 71.09C44.4599 71.77 45.7799 75.63 44.7399 79.72L44.2999 81.09L45.0599 81.51L70.5899 68.75L70.7299 63.07C70.7699 62.36 70.8799 61.62 71.0699 60.87C72.1099 56.79 75.1199 54.03 77.7999 54.71C80.1899 55.32 81.4999 58.45 81.0199 62.02L80.9899 62.03Z" fill="#DDCAFF"></path>
<path d="M23.68 88.12C10.28 88.12 3.46 82.52 1.09 80.02C0.39 79.28 0 78.3 0 77.26V76.63C0 76.63 0 76.57 0.01 76.55L0.39 75.41C-0.94 70.06 1.19 64.86 6.55 60.36C10.31 57.2 14.46 55.4 15.06 55.15C15.75 54.23 23.89 43.55 34.15 39.9C42.67 36.86 49.13 35.38 73.56 42.98L81.35 45.87C82.86 46.43 83.87 47.88 83.87 49.49V57.58C83.9 57.86 84.13 60.48 81.14 62.26C81.05 62.31 80.94 62.31 80.85 62.26C80.76 62.2 80.72 62.1 80.73 62C81.2 58.49 79.93 55.54 77.71 54.98C76.51 54.67 75.18 55.11 73.98 56.21C72.75 57.34 71.8 59.02 71.31 60.95C71.13 61.66 71.02 62.38 70.98 63.09L70.84 68.76C70.84 68.86 70.78 68.95 70.69 69L45.16 81.76C45.08 81.8 44.99 81.8 44.91 81.76L44.15 81.34C44.04 81.28 43.98 81.14 44.02 81.02L44.46 79.65C45.46 75.73 44.22 72.01 41.69 71.37C39.16 70.73 36.29 73.4 35.29 77.34C35.26 77.45 35.23 77.59 35.2 77.73C35.06 78.45 34.98 79.21 34.97 79.98L34.89 85.45C34.89 85.56 34.82 85.66 34.71 85.7L30.98 87.06C29.26 87.69 27.47 88.04 25.67 88.11C24.99 88.14 24.32 88.15 23.67 88.15L23.68 88.12ZM0.54 76.68V77.26C0.54 78.16 0.87 79 1.48 79.64C3.92 82.21 11.15 88.12 25.66 87.53C27.41 87.46 29.14 87.12 30.81 86.51L34.36 85.22L34.43 79.94C34.44 79.14 34.52 78.35 34.67 77.6C34.7 77.44 34.73 77.29 34.76 77.18C35.83 72.96 39 70.1 41.82 70.82C44.64 71.54 46.05 75.56 44.98 79.78L44.6 80.95L45.04 81.19L70.3 68.57L70.44 63.06C70.48 62.31 70.6 61.55 70.79 60.8C71.31 58.77 72.31 57 73.62 55.8C74.96 54.57 76.46 54.09 77.85 54.44C80.21 55.04 81.63 57.96 81.33 61.48C83.6 59.85 83.34 57.72 83.33 57.63C83.33 57.62 83.33 57.6 83.33 57.59V49.48C83.33 48.1 82.46 46.85 81.16 46.37L73.38 43.49C49.14 35.95 42.75 37.4 34.33 40.41C23.82 44.16 15.54 55.42 15.45 55.54C15.42 55.58 15.38 55.61 15.33 55.63C15.29 55.65 10.85 57.45 6.89 60.79C1.61 65.23 -0.39 70.13 0.94 75.36C0.95 75.41 0.95 75.46 0.94 75.51L0.55 76.69L0.54 76.68Z" fill="black"></path>
<path d="M71.5298 32.26L83.1498 38.07C83.5098 38.25 83.9298 37.99 83.9298 37.59V33.56L71.0898 29.42V31.54C71.0898 31.85 71.2598 32.13 71.5398 32.26H71.5298Z" fill="black"></path>
<path d="M83.3896 38.4C83.2696 38.4 83.1396 38.37 83.0296 38.31L71.4096 32.5C71.0396 32.32 70.8096 31.95 70.8096 31.54V29.42C70.8096 29.33 70.8496 29.25 70.9196 29.2C70.9896 29.15 71.0796 29.13 71.1596 29.16L83.9996 33.3C84.1096 33.34 84.1896 33.44 84.1896 33.56V37.59C84.1896 37.87 84.0496 38.13 83.8096 38.28C83.6796 38.36 83.5296 38.4 83.3896 38.4ZM71.3596 29.79V31.54C71.3596 31.74 71.4696 31.93 71.6596 32.02L83.2796 37.83C83.3996 37.89 83.4996 37.84 83.5396 37.82C83.5796 37.8 83.6696 37.73 83.6696 37.59V33.76L71.3696 29.79H71.3596Z" fill="black"></path>
<path d="M80.0499 35.5L83.9298 33.56V13.36H81.9898L78.8398 20.99V32.28L80.0499 35.5Z" fill="#FF6124"></path>
<path d="M80.0503 35.77C80.0503 35.77 79.9803 35.77 79.9503 35.75C79.8803 35.72 79.8203 35.66 79.8003 35.59L78.5903 32.36C78.5903 32.36 78.5703 32.3 78.5703 32.27V20.98C78.5703 20.98 78.5703 20.91 78.5903 20.88L81.7403 13.25C81.7803 13.15 81.8803 13.08 81.9903 13.08H83.9303C84.0803 13.08 84.2003 13.2 84.2003 13.35V33.55C84.2003 33.65 84.1403 33.75 84.0503 33.79L80.1703 35.73C80.1703 35.73 80.0903 35.76 80.0503 35.76V35.77ZM79.1103 32.23L80.1903 35.13L83.6503 33.4V13.63H82.1603L79.1003 21.04V32.22L79.1103 32.23Z" fill="black"></path>
<path d="M83.9297 13.36C81.9997 14.64 80.0497 17.77 80.0497 24.73V35.5L69.4297 30.19V19.62C69.4297 12.38 71.5497 9.33002 73.5497 8.15002L83.9297 13.36Z" fill="#FF6124"></path>
<path d="M80.0502 35.7699C80.0502 35.7699 79.9702 35.7699 79.9302 35.7399L69.3102 30.4299C69.2202 30.3799 69.1602 30.2899 69.1602 30.1899V19.6199C69.1602 12.0199 71.4702 9.05995 73.4102 7.91995C73.4902 7.86995 73.5902 7.86995 73.6702 7.91995L84.0502 13.1299C84.1402 13.1699 84.1901 13.2599 84.2001 13.3599C84.2001 13.4599 84.1602 13.5499 84.0802 13.5999C82.3602 14.7399 80.3202 17.5899 80.3202 24.7399V35.5099C80.3202 35.5999 80.2702 35.6899 80.1902 35.7399C80.1502 35.7699 80.1002 35.7799 80.0502 35.7799V35.7699ZM69.7001 30.0299L79.7802 35.0699V24.7399C79.7802 17.8499 81.6802 14.7799 83.4102 13.4199L73.5602 8.46995C71.7702 9.59995 69.7001 12.4499 69.7001 19.6299V30.0399V30.0299Z" fill="black"></path>
<path d="M72.1796 22.1899L74.5996 23.2899L72.0596 27.4199L77.5196 22.8999L74.9896 21.4099L76.4296 17.4399L72.1796 22.1899Z" fill="#FCFC3C"></path>
<path d="M72.0595 27.69C71.9995 27.69 71.9295 27.67 71.8795 27.62C71.7795 27.53 71.7595 27.39 71.8295 27.27L74.2095 23.4L72.0695 22.43C71.9895 22.39 71.9295 22.32 71.9195 22.24C71.8995 22.16 71.9195 22.07 71.9795 22L76.2295 17.25C76.3195 17.15 76.4595 17.13 76.5695 17.2C76.6795 17.27 76.7295 17.4 76.6895 17.52L75.3295 21.28L77.6695 22.66C77.7495 22.7 77.7995 22.78 77.7995 22.87C77.7995 22.96 77.7695 23.04 77.6995 23.1L72.2395 27.62C72.1895 27.66 72.1295 27.68 72.0695 27.68L72.0595 27.69ZM72.6295 22.1L74.7095 23.04C74.7795 23.07 74.8295 23.13 74.8595 23.21C74.8795 23.28 74.8695 23.36 74.8295 23.43L73.1495 26.17L77.0595 22.94L74.8595 21.65C74.7495 21.58 74.6995 21.45 74.7395 21.32L75.6995 18.67L72.6295 22.1Z" fill="black"></path>
<path d="M73.7901 46.59C73.7901 46.59 73.1401 48.28 72.1201 49.49C71.1301 50.67 69.2201 51.93 67.8401 52.62L52.5701 60.25C51.0101 61.08 48.5801 61.58 48.5801 61.58C48.5801 61.58 49.9701 57.29 53.4401 53.17C57.1901 48.73 62.6701 46.07 68.4801 45.9C70.2001 45.85 72.0401 46.01 73.7901 46.59Z" fill="black"></path>
<path d="M48.5901 61.86C48.5101 61.86 48.4401 61.83 48.3901 61.77C48.3301 61.7 48.3001 61.6 48.3301 61.51C48.3401 61.47 49.7801 57.12 53.2401 53.01C57.0401 48.51 62.6001 45.82 68.4801 45.64C70.4701 45.58 72.2801 45.81 73.8801 46.34C73.9501 46.36 74.0101 46.41 74.0401 46.48C74.0701 46.55 74.0701 46.62 74.0401 46.69C74.0101 46.76 73.3701 48.44 72.3201 49.67C71.3001 50.88 69.3401 52.17 67.9601 52.87L52.6901 60.5C51.1201 61.34 48.7401 61.83 48.6401 61.85C48.6201 61.85 48.6001 61.85 48.5901 61.85V61.86ZM69.0801 46.17C68.8901 46.17 68.6901 46.17 68.4901 46.17C62.7601 46.34 57.3501 48.96 53.6501 53.35C50.9101 56.6 49.4601 60 49.0001 61.21C49.7801 61.02 51.3401 60.6 52.4401 60.01L67.7201 52.37C69.0601 51.7 70.9401 50.46 71.9101 49.31C72.6501 48.43 73.2001 47.27 73.4201 46.75C72.1101 46.36 70.6501 46.16 69.0701 46.16L69.0801 46.17Z" fill="black"></path>
<path d="M32.8001 72.39L35.8801 69.86C35.8801 69.86 28.6001 68 21.3301 74.11C21.3301 74.11 23.5901 75.98 29.5201 74.27C30.5301 73.98 31.7401 73.16 32.8001 72.39Z" fill="white"></path>
<path d="M24.9596 75.27C22.3396 75.27 21.2196 74.38 21.1596 74.33C21.0996 74.28 21.0596 74.2 21.0596 74.12C21.0596 74.04 21.0996 73.96 21.1596 73.91C24.9696 70.71 28.7796 69.7 31.3096 69.43C34.0596 69.13 35.8796 69.58 35.9496 69.6C36.0496 69.63 36.1296 69.7 36.1496 69.8C36.1696 69.9 36.1396 70 36.0596 70.07L32.9796 72.6C32.9796 72.6 32.9796 72.6 32.9696 72.61C31.8296 73.43 30.6396 74.23 29.5996 74.53C27.7096 75.08 26.1796 75.27 24.9696 75.27H24.9596ZM21.7896 74.09C22.0696 74.24 22.5696 74.45 23.2996 74.58C24.4596 74.8 26.4596 74.87 29.4396 74.01C30.3996 73.73 31.5896 72.93 32.6296 72.18L35.2496 70.03C33.4596 69.76 27.6296 69.35 21.7796 74.09H21.7896Z" fill="black"></path>
<path d="M17.0398 79.11C9.04981 76.35 3.7598 73.24 3.7598 73.24C3.7598 73.24 2.5998 74.52 2.8498 77.26L2.7998 78.64L11.7698 83.67L18.8098 84.16L17.0398 79.1V79.11Z" fill="white"></path>
<path d="M18.7995 84.44C18.7995 84.44 18.7895 84.44 18.7795 84.44L11.7395 83.95C11.7395 83.95 11.6595 83.94 11.6295 83.92L2.65953 78.89C2.56953 78.84 2.51953 78.75 2.51953 78.64L2.56953 77.28C2.31953 74.47 3.49953 73.12 3.54953 73.07C3.63953 72.97 3.77953 72.95 3.88953 73.02C3.93953 73.05 9.25953 76.15 17.1295 78.86C17.2095 78.89 17.2695 78.95 17.2995 79.03L19.0695 84.09C19.0995 84.18 19.0795 84.27 19.0295 84.34C18.9795 84.41 18.8995 84.45 18.8095 84.45L18.7995 84.44ZM11.8395 83.41L18.4095 83.87L16.8195 79.33C9.84953 76.91 4.87953 74.2 3.81953 73.61C3.53953 74.03 2.91953 75.23 3.09953 77.25C3.09953 77.26 3.09953 77.27 3.09953 77.28L3.05953 78.5L11.8295 83.42L11.8395 83.41Z" fill="black"></path>
<path d="M2.83957 77.38L2.55957 78.61C5.22957 80.94 11.4196 85 18.8896 85.3L18.8096 84.16C10.8596 83.08 2.83957 77.38 2.83957 77.38Z" fill="black"></path>
<path d="M18.8902 85.57C18.8902 85.57 18.8902 85.57 18.8802 85.57C10.1402 85.21 3.60018 79.88 2.38018 78.81C2.30018 78.74 2.27018 78.64 2.29018 78.55L2.57018 77.32C2.59018 77.23 2.65018 77.16 2.74018 77.13C2.82018 77.1 2.92018 77.11 2.99018 77.16C3.07018 77.22 11.0502 82.83 18.8402 83.9C18.9702 83.92 19.0602 84.02 19.0702 84.15L19.1502 85.29C19.1502 85.37 19.1302 85.44 19.0702 85.5C19.0202 85.55 18.9502 85.58 18.8802 85.58L18.8902 85.57ZM2.86018 78.51C4.30018 79.74 10.4502 84.57 18.6002 85.01L18.5602 84.4C11.6202 83.38 4.61018 78.89 3.02018 77.83L2.86018 78.51Z" fill="black"></path>
<path d="M69.4297 55.79C69.3297 55.79 69.2397 55.74 69.1897 55.64C69.1197 55.51 69.1797 55.34 69.3097 55.28L71.8397 54.01C71.9697 53.94 72.1397 54 72.1997 54.13C72.2697 54.26 72.2097 54.43 72.0797 54.49L69.5497 55.76C69.5497 55.76 69.4697 55.79 69.4297 55.79Z" fill="black"></path>
<path d="M58.6602 61.17C58.5602 61.17 58.4702 61.12 58.4202 61.02C58.3502 60.89 58.4102 60.72 58.5402 60.66L61.0002 59.43C61.1302 59.36 61.3002 59.42 61.3602 59.55C61.4302 59.68 61.3702 59.85 61.2402 59.91L58.7802 61.14C58.7802 61.14 58.7002 61.17 58.6602 61.17Z" fill="black"></path>
<path d="M19.0401 53.46C18.1301 54.51 18.4201 56.14 19.6401 56.8C22.4501 58.33 27.2801 60.86 30.8701 62.12C36.2401 64.01 44.0801 64.51 45.9101 60.9C45.9101 60.9 47.7801 56.22 51.5901 51.83L32.8501 42.46C26.5201 45.75 21.5101 50.62 19.0401 53.45V53.46Z" fill="black"></path>
<path d="M39.1602 63.8399C36.3102 63.8399 33.1702 63.2199 30.7802 62.3799C27.1202 61.0899 22.1402 58.4799 19.5102 57.0399C18.8602 56.6799 18.4002 56.0599 18.2702 55.3199C18.1402 54.5899 18.3402 53.8399 18.8302 53.2799C20.2602 51.6299 25.5002 45.9699 32.7202 42.2199C32.8002 42.1799 32.8902 42.1799 32.9702 42.2199L51.7102 51.5899C51.7802 51.6299 51.8402 51.6999 51.8502 51.7799C51.8702 51.8599 51.8502 51.9499 51.7902 52.0099C48.0602 56.3099 46.1702 60.9499 46.1502 60.9999C46.1502 60.9999 46.1502 61.0099 46.1502 61.0199C45.1102 63.0799 42.3102 63.8399 39.1602 63.8399ZM19.2402 53.6399C18.8602 54.0799 18.7002 54.6599 18.8002 55.2299C18.9002 55.7999 19.2502 56.2899 19.7602 56.5699C22.3802 57.9999 27.3302 60.5999 30.9502 61.8799C33.7502 62.8699 37.0202 63.3999 39.7002 63.3199C43.6202 63.1999 45.1002 61.8799 45.6502 60.7999C45.7602 60.5399 47.5902 56.1199 51.1502 51.9299L32.8402 42.7799C25.7602 46.4899 20.6402 52.0299 19.2302 53.6499L19.2402 53.6399Z" fill="black"></path>
<path d="M72.3797 44.36C72.3797 44.36 53.2797 37.52 41.9297 39.34C40.2097 39.62 38.5397 40.07 36.9297 40.66L54.1297 49.26C55.7197 47.85 57.5497 46.6 59.6097 45.7C59.6097 45.7 65.4597 42.75 72.3797 44.35V44.36Z" fill="black"></path>
<path d="M54.1303 49.53C54.1303 49.53 54.0503 49.53 54.0103 49.5L36.8103 40.9C36.7103 40.85 36.6503 40.75 36.6603 40.64C36.6703 40.53 36.7403 40.44 36.8403 40.4C38.5503 39.78 40.2503 39.33 41.8903 39.07C53.1703 37.25 72.2803 44.03 72.4703 44.1C72.6103 44.15 72.6803 44.29 72.6403 44.43C72.6003 44.57 72.4603 44.65 72.3203 44.62C65.5803 43.06 59.7903 45.91 59.7303 45.94C57.8403 46.76 56.0303 47.94 54.3103 49.46C54.2603 49.5 54.2003 49.53 54.1303 49.53ZM37.6303 40.71L54.0903 48.94C55.8103 47.44 57.6303 46.27 59.5003 45.46C59.5403 45.44 63.8303 43.32 69.3603 43.66C63.5703 41.85 50.4903 38.25 41.9703 39.62C40.5503 39.85 39.0903 40.22 37.6203 40.72L37.6303 40.71Z" fill="black"></path>
<path d="M3.70984 67.04L3.26984 64.12C2.62984 64.96 2.05984 65.85 1.58984 66.8L3.70984 67.04Z" fill="white"></path>
<path d="M3.71031 67.31C3.71031 67.31 3.69031 67.31 3.68031 67.31L1.56031 67.07C1.47031 67.07 1.39031 67.01 1.35031 66.93C1.31031 66.85 1.31031 66.76 1.35031 66.68C1.80031 65.76 2.38031 64.84 3.06031 63.95C3.13031 63.86 3.24031 63.83 3.34031 63.85C3.45031 63.88 3.52031 63.96 3.54031 64.07L3.98031 66.99C3.99031 67.07 3.97031 67.16 3.91031 67.22C3.86031 67.27 3.79031 67.3 3.71031 67.3V67.31ZM2.01031 66.57L3.39031 66.72L3.10031 64.8C2.69031 65.38 2.32031 65.98 2.01031 66.57Z" fill="black"></path>
<path d="M46.1699 68.43C45.0199 68.43 43.9899 68.11 43.4099 67.55C43.2999 67.45 43.2999 67.27 43.4099 67.17C43.5099 67.06 43.6899 67.06 43.7899 67.17C44.3899 67.76 45.6999 68.03 47.0399 67.83C47.9499 67.7 48.7799 67.38 49.3599 66.93C49.8999 66.52 50.1599 66.05 50.0999 65.62C49.9599 64.68 48.3299 64.11 46.5299 64.37C45.2599 64.55 44.1399 65.12 43.6699 65.82C43.5899 65.94 43.4199 65.98 43.2899 65.89C43.1699 65.81 43.1299 65.64 43.2199 65.51C43.7799 64.68 45.0099 64.04 46.4499 63.83C48.6099 63.52 50.4499 64.27 50.6299 65.54C50.7199 66.18 50.3899 66.82 49.6799 67.36C49.0199 67.86 48.1099 68.22 47.1099 68.37C46.7899 68.42 46.4699 68.44 46.1699 68.44V68.43Z" fill="black"></path>
<path d="M44.7176 79.7035C45.757 75.6197 44.4302 71.757 41.7541 71.0759C39.078 70.3948 36.066 73.1531 35.0266 77.2369C33.9871 81.3206 35.3139 85.1833 37.99 85.8644C40.6661 86.5455 43.6782 83.7872 44.7176 79.7035Z" fill="black"></path>
<path d="M38.8102 86.25C38.5102 86.25 38.2202 86.21 37.9202 86.14C35.1002 85.42 33.6902 81.4 34.7602 77.18C35.8402 72.96 39.0002 70.1 41.8202 70.82C44.6402 71.54 46.0502 75.56 44.9802 79.78C44.0202 83.56 41.3702 86.25 38.8102 86.25ZM40.9302 71.25C38.6102 71.25 36.2002 73.77 35.3002 77.31C34.3002 81.24 35.5402 84.97 38.0702 85.61C40.6002 86.25 43.4702 83.58 44.4702 79.64C45.4702 75.71 44.2302 71.98 41.7002 71.34C41.4502 71.28 41.1902 71.24 40.9302 71.24V71.25Z" fill="black"></path>
<path d="M80.7361 63.3358C81.7755 59.2521 80.4487 55.3894 77.7726 54.7082C75.0965 54.0271 72.0845 56.7855 71.0451 60.8692C70.0057 64.9529 71.3325 68.8156 74.0086 69.4967C76.6847 70.1779 79.6967 67.4195 80.7361 63.3358Z" fill="black"></path>
<path d="M74.8297 69.8699C74.5297 69.8699 74.2397 69.8299 73.9397 69.7599C71.1197 69.0399 69.7097 65.0199 70.7797 60.7999C71.2997 58.7699 72.2997 56.9999 73.6097 55.7999C74.9497 54.5699 76.4497 54.0899 77.8397 54.4399C80.6597 55.1599 82.0697 59.1799 80.9997 63.3999C80.0397 67.1799 77.3897 69.8699 74.8297 69.8699ZM76.9497 54.8699C75.9697 54.8699 74.9397 55.3299 73.9897 56.1999C72.7597 57.3299 71.8097 59.0099 71.3197 60.9399C70.3197 64.8699 71.5597 68.5999 74.0897 69.2399C76.6197 69.8799 79.4897 67.2099 80.4897 63.2699C81.4897 59.3399 80.2497 55.6099 77.7197 54.9699C77.4697 54.9099 77.2097 54.8699 76.9497 54.8699Z" fill="black"></path>
<path d="M43.264 79.3335C43.9914 76.4754 43.0626 73.772 41.1893 73.2952C39.316 72.8184 37.2077 74.7488 36.4803 77.6069C35.7528 80.4649 36.6817 83.1684 38.5549 83.6452C40.4282 84.122 42.5365 82.1916 43.264 79.3335Z" fill="white"></path>
<path d="M39.1404 84C38.9204 84 38.7004 83.97 38.4904 83.92C36.4804 83.41 35.4604 80.55 36.2204 77.55C36.5804 76.12 37.3004 74.86 38.2204 74.01C39.1804 73.13 40.2604 72.79 41.2504 73.04C43.2604 73.55 44.2804 76.41 43.5204 79.41C43.1604 80.84 42.4404 82.1 41.5204 82.95C40.7704 83.64 39.9404 84 39.1404 84ZM40.6104 73.5C39.9404 73.5 39.2404 73.81 38.5904 74.41C37.7404 75.19 37.0804 76.35 36.7404 77.68C36.0504 80.39 36.8904 82.95 38.6204 83.39C39.4304 83.6 40.3304 83.3 41.1504 82.55C42.0004 81.77 42.6604 80.61 43.0004 79.28C43.6904 76.57 42.8504 74.01 41.1204 73.57C40.9504 73.53 40.7804 73.51 40.6004 73.51L40.6104 73.5Z" fill="black"></path>
<path d="M40.8024 78.707C41.0026 77.9202 40.7484 77.1764 40.2346 77.0456C39.7208 76.9148 39.1419 77.4466 38.9417 78.2334C38.7414 79.0202 38.9956 79.764 39.5094 79.8948C40.0233 80.0255 40.6021 79.4937 40.8024 78.707Z" fill="black"></path>
<path d="M39.6804 80.2C39.6004 80.2 39.5304 80.2 39.4504 80.17C38.7804 80 38.4404 79.12 38.6804 78.18C38.7904 77.75 39.0104 77.37 39.2904 77.11C39.6004 76.82 39.9704 76.71 40.3104 76.8C40.9804 76.97 41.3204 77.85 41.0804 78.79C40.9704 79.22 40.7504 79.6 40.4704 79.86C40.2304 80.08 39.9504 80.2 39.6804 80.2ZM40.0804 77.31C39.9004 77.31 39.7404 77.43 39.6604 77.51C39.4604 77.7 39.2904 77.99 39.2104 78.32C39.0504 78.94 39.2304 79.56 39.5904 79.65C39.8004 79.7 40.0104 79.56 40.1104 79.46C40.3104 79.27 40.4804 78.98 40.5604 78.65C40.7204 78.03 40.5404 77.41 40.1804 77.32C40.1504 77.32 40.1204 77.31 40.0904 77.31H40.0804Z" fill="black"></path>
<path d="M79.0981 62.9189C79.7874 60.2107 78.9101 57.6497 77.1385 57.1988C75.3669 56.7479 73.372 58.5778 72.6827 61.286C71.9934 63.9943 72.8707 66.5552 74.6423 67.0061C76.4139 67.4571 78.4088 65.6272 79.0981 62.9189Z" fill="white"></path>
<path d="M75.19 67.34C74.99 67.34 74.78 67.32 74.58 67.26C73.63 67.02 72.89 66.24 72.49 65.07C72.1 63.94 72.08 62.57 72.43 61.21C72.78 59.85 73.45 58.66 74.33 57.85C75.24 57.02 76.27 56.69 77.21 56.93C78.16 57.17 78.9 57.95 79.3 59.12C79.69 60.25 79.71 61.62 79.36 62.98C78.71 65.53 76.92 67.33 75.18 67.33L75.19 67.34ZM76.5899 57.4C75.9599 57.4 75.3 57.69 74.69 58.25C73.89 58.99 73.2699 60.08 72.9499 61.34C72.6299 62.6 72.65 63.86 73 64.89C73.34 65.88 73.95 66.53 74.72 66.73C76.34 67.14 78.2 65.4 78.85 62.84C79.17 61.58 79.15 60.32 78.8 59.29C78.46 58.3 77.85 57.65 77.08 57.45C76.92 57.41 76.76 57.39 76.6 57.39L76.5899 57.4Z" fill="black"></path>
<path d="M76.8784 62.3541C77.0909 61.5191 76.8206 60.7296 76.2747 60.5907C75.7287 60.4517 75.1139 61.0159 74.9014 61.8509C74.6889 62.6858 74.9592 63.4753 75.5051 63.6143C76.051 63.7532 76.6658 63.189 76.8784 62.3541Z" fill="black"></path>
<path d="M75.6802 63.91C75.6002 63.91 75.5202 63.91 75.4402 63.88C74.7402 63.7 74.3802 62.78 74.6402 61.79C74.7602 61.34 74.9802 60.93 75.2802 60.66C75.6102 60.36 75.9902 60.24 76.3402 60.33C77.0402 60.51 77.4002 61.43 77.1402 62.42C76.9202 63.3 76.3002 63.91 75.6702 63.91H75.6802ZM76.1102 60.84C75.9202 60.84 75.7402 60.97 75.6502 61.06C75.4302 61.26 75.2602 61.57 75.1702 61.92C75.0002 62.6 75.1902 63.26 75.5802 63.36C75.9802 63.46 76.4502 62.97 76.6302 62.29C76.8002 61.61 76.6102 60.95 76.2202 60.85C76.1902 60.85 76.1502 60.84 76.1202 60.84H76.1102Z" fill="black"></path>
<path d="M84.2602 49.7099L80.3902 48.2499C79.9202 48.1299 79.3902 48.6099 79.2102 49.3299C79.0302 50.0399 79.2502 50.6999 79.7102 50.8399L83.5102 52.2699C83.5402 52.2899 83.5802 52.2999 83.6202 52.3099C84.0902 52.4299 84.6202 51.9499 84.8002 51.2299C84.9802 50.5099 84.7502 49.8299 84.2802 49.7199L84.2602 49.7099Z" fill="black"></path>
<path d="M83.7396 52.6C83.6696 52.6 83.5996 52.6 83.5296 52.57C83.4796 52.56 83.4396 52.54 83.3796 52.52L79.5896 51.1C79.0096 50.91 78.7196 50.11 78.9296 49.27C79.0296 48.87 79.2296 48.52 79.4896 48.28C79.7696 48.03 80.0996 47.92 80.3996 47.98C80.4296 47.98 80.4496 47.98 80.4796 48L84.3396 49.45C84.6496 49.53 84.8896 49.79 85.0196 50.15C85.1396 50.49 85.1396 50.89 85.0396 51.29C84.9396 51.69 84.7396 52.04 84.4796 52.28C84.2496 52.49 83.9896 52.6 83.7396 52.6ZM79.8096 50.6L83.5896 52.02C83.5896 52.02 83.5996 52.02 83.6096 52.02C83.6296 52.02 83.6496 52.04 83.6696 52.04C83.8496 52.09 84.0296 51.96 84.1196 51.88C84.2996 51.71 84.4496 51.45 84.5196 51.16C84.5896 50.87 84.5896 50.57 84.5196 50.33C84.4796 50.22 84.3896 50.02 84.1996 49.97C84.1996 49.97 84.1796 49.97 84.1696 49.97L80.3396 48.53C80.3396 48.53 80.3196 48.53 80.3096 48.53C80.1296 48.49 79.9596 48.62 79.8696 48.7C79.6896 48.87 79.5396 49.13 79.4696 49.42C79.3196 50.03 79.5096 50.52 79.7796 50.6C79.7896 50.6 79.8096 50.6 79.8196 50.61L79.8096 50.6Z" fill="black"></path>
<path d="M94.2998 58.94L86.8498 55.22V52.85C86.8498 51.95 86.3498 51.14 85.5398 50.74L84.6598 50.3C84.2098 50.08 83.6598 50.26 83.4398 50.71C83.2098 51.16 83.3998 51.71 83.8498 51.93L84.7298 52.37C84.9098 52.46 85.0298 52.65 85.0298 52.85V54.31L83.5898 53.59V55.63L85.0298 56.35V62.47C85.0298 63.7 85.6498 64.82 86.6998 65.47C87.2698 65.83 87.9198 66 88.5598 66C89.0898 66 89.6298 65.8799 90.1298 65.6299L94.2898 63.57C95.1798 63.13 95.7298 62.25 95.7298 61.26C95.7298 60.27 95.1798 59.38 94.2998 58.94ZM93.4798 61.94L89.3198 64C88.7798 64.27 88.1698 64.24 87.6598 63.92C87.1498 63.6 86.8498 63.07 86.8498 62.46V57.25L93.4798 60.57C93.8598 60.76 93.8998 61.11 93.8998 61.25C93.8998 61.39 93.8598 61.74 93.4798 61.93V61.94Z" fill="white"></path>
<path d="M88.5604 66.27C87.8504 66.27 87.1604 66.07 86.5604 65.69C85.4304 64.99 84.7604 63.78 84.7604 62.46V56.51L83.4704 55.87C83.3804 55.82 83.3204 55.73 83.3204 55.63V53.59C83.3204 53.5 83.3704 53.41 83.4504 53.36C83.5304 53.31 83.6304 53.31 83.7104 53.35L84.7604 53.87V52.84C84.7604 52.74 84.7004 52.65 84.6104 52.6L83.7304 52.16C83.1504 51.87 82.9104 51.16 83.2004 50.57C83.4904 49.99 84.2004 49.75 84.7904 50.04L85.6704 50.48C86.5704 50.93 87.1204 51.83 87.1204 52.83V55.04L94.4204 58.69C95.4004 59.18 96.0004 60.16 96.0004 61.25C96.0004 62.34 95.3904 63.32 94.4104 63.8L90.2504 65.86C89.7204 66.12 89.1404 66.26 88.5604 66.26V66.27ZM83.8604 55.46L85.1504 56.1C85.2404 56.15 85.3004 56.24 85.3004 56.34V62.46C85.3004 63.6 85.8804 64.63 86.8404 65.23C87.3604 65.55 87.9604 65.72 88.5604 65.72C89.0604 65.72 89.5504 65.6 90.0104 65.38L94.1704 63.32C94.9604 62.93 95.4604 62.13 95.4604 61.25C95.4604 60.37 94.9704 59.57 94.1804 59.18L86.7304 55.46C86.6404 55.41 86.5804 55.32 86.5804 55.22V52.85C86.5804 52.05 86.1404 51.34 85.4204 50.98L84.5404 50.54C84.2204 50.38 83.8404 50.51 83.6804 50.83C83.5204 51.15 83.6504 51.53 83.9704 51.69L84.8504 52.13C85.1304 52.27 85.3004 52.55 85.3004 52.85V54.31C85.3004 54.4 85.2504 54.49 85.1704 54.54C85.0904 54.59 84.9904 54.59 84.9104 54.55L83.8604 54.03V55.46ZM88.5604 64.45C88.2004 64.45 87.8404 64.35 87.5204 64.15C86.9204 63.78 86.5804 63.17 86.5804 62.46V57.25C86.5804 57.16 86.6304 57.07 86.7104 57.02C86.7904 56.97 86.8904 56.97 86.9704 57.01L93.6004 60.33C93.9604 60.51 94.1704 60.86 94.1704 61.26C94.1704 61.66 93.9504 62.01 93.5904 62.18L89.4304 64.24C89.1404 64.38 88.8404 64.45 88.5504 64.45H88.5604ZM87.1204 57.69V62.46C87.1204 62.97 87.3704 63.42 87.8004 63.69C88.2304 63.96 88.7404 63.98 89.2004 63.76L93.3604 61.7C93.6004 61.58 93.6304 61.37 93.6304 61.26C93.6304 61.15 93.6004 60.94 93.3604 60.82L87.1204 57.7V57.69Z" fill="black"></path>
<path d="M85.0298 56.62C84.8798 56.62 84.7598 56.5 84.7598 56.35V54.31C84.7598 54.16 84.8798 54.04 85.0298 54.04C85.1798 54.04 85.2998 54.16 85.2998 54.31V56.35C85.2998 56.5 85.1798 56.62 85.0298 56.62Z" fill="black"></path>
<path d="M86.8501 57.5299C86.7001 57.5299 86.5801 57.4099 86.5801 57.2599V55.22C86.5801 55.07 86.7001 54.95 86.8501 54.95C87.0001 54.95 87.1201 55.07 87.1201 55.22V57.2599C87.1201 57.4099 87.0001 57.5299 86.8501 57.5299Z" fill="black"></path>
</g>
</g>
<defs>
<clipPath id="clip0_7897_66086">
<rect width="96" height="96" fill="white"></rect>
</clipPath>
<clipPath id="clip1_7897_66086">
<rect width="96" height="96" fill="white"></rect>
</clipPath>
</defs>
</svg>