<svg width="96" height="96" viewBox="0 0 96 96" fill="none" xmlns="http://www.w3.org/2000/svg">
<path d="M39.3405 57.6899L46.2505 59.9499L43.3905 67.8999L35.6405 89.7699L28.7305 87.5099L39.3405 57.6899Z" fill="#FF6124"></path>
<path d="M35.6398 90C35.6398 90 35.5898 90 35.5698 89.99L28.6698 87.73C28.6098 87.71 28.5598 87.67 28.5298 87.61C28.4998 87.55 28.4998 87.49 28.5198 87.43L39.1298 57.62C39.1698 57.5 39.2998 57.44 39.4198 57.48L46.3298 59.73C46.3898 59.75 46.4398 59.79 46.4698 59.85C46.4998 59.91 46.4998 59.97 46.4798 60.03L43.6198 67.98L35.8598 89.84C35.8298 89.94 35.7398 90 35.6398 90ZM29.0298 87.36L35.4898 89.47L43.1698 67.82L45.9398 60.09L39.4798 57.98L29.0298 87.35V87.36Z" fill="black"></path>
<path d="M67.2698 8.48998L60.3598 6.22998L41.8398 18.48L48.7398 20.74L67.2698 8.48998Z" fill="#FF6124"></path>
<path d="M48.7402 20.97C48.7402 20.97 48.6902 20.97 48.6702 20.96L41.7602 18.71C41.6702 18.68 41.6102 18.61 41.6002 18.52C41.5902 18.43 41.6302 18.34 41.7002 18.29L60.2202 6.04C60.2802 6 60.3502 5.99 60.4202 6.01L67.3302 8.26C67.4202 8.29 67.4802 8.36 67.4902 8.45C67.5002 8.54 67.4602 8.63 67.3902 8.68L48.8702 20.93C48.8702 20.93 48.7902 20.97 48.7402 20.97ZM42.3702 18.41L48.7102 20.48L66.7402 8.56L60.4002 6.49L42.3702 18.41Z" fill="black"></path>
<path d="M61.94 33.47L55.03 31.22L50.29 40.64L59.4 36.91L61.94 33.47Z" fill="black"></path>
<path d="M50.29 40.88C50.23 40.88 50.16 40.85 50.12 40.8C50.05 40.73 50.04 40.62 50.08 40.54L54.82 31.11C54.87 31.01 54.99 30.96 55.1 30.99L62.01 33.24C62.08 33.26 62.14 33.32 62.16 33.39C62.18 33.46 62.17 33.54 62.13 33.6L59.6 37.04C59.6 37.04 59.54 37.1 59.5 37.12L50.39 40.85C50.39 40.85 50.33 40.87 50.3 40.87L50.29 40.88ZM55.15 31.5L50.78 40.19L59.25 36.72L61.55 33.6L55.14 31.51L55.15 31.5Z" fill="black"></path>
<path d="M56.5502 56.35L49.6502 54.1L48.7402 60.76L56.5502 56.35Z" fill="black"></path>
<path d="M48.7403 60.99C48.7403 60.99 48.6503 60.98 48.6103 60.95C48.5403 60.9 48.5003 60.81 48.5103 60.72L49.4103 54.06C49.4103 53.99 49.4603 53.93 49.5203 53.89C49.5803 53.85 49.6503 53.84 49.7203 53.87L56.6303 56.12C56.7203 56.15 56.7803 56.23 56.7903 56.32C56.7903 56.41 56.7503 56.5 56.6703 56.55L48.8603 60.96C48.8603 60.96 48.7903 60.99 48.7503 60.99H48.7403ZM49.8403 54.41L49.0403 60.33L55.9803 56.41L49.8403 54.41Z" fill="black"></path>
<path d="M41.8405 18.48L48.7405 20.74L35.6405 55.34L28.7305 53.08L41.8405 18.48Z" fill="#FF6124"></path>
<path d="M35.6396 55.57C35.6396 55.57 35.5896 55.57 35.5696 55.56L28.6596 53.31C28.5996 53.29 28.5496 53.25 28.5196 53.19C28.4896 53.13 28.4896 53.07 28.5196 53.01L41.6296 18.41C41.6696 18.29 41.7996 18.23 41.9196 18.27L48.8296 20.52C48.8896 20.54 48.9396 20.58 48.9696 20.64C48.9996 20.7 48.9996 20.76 48.9696 20.82L35.8596 55.42C35.8196 55.51 35.7396 55.57 35.6396 55.57ZM29.0396 52.94L35.4996 55.05L48.4396 20.89L41.9796 18.78L29.0396 52.94Z" fill="black"></path>
<path d="M46.66 35.37L51.06 42.62L46.69 51.32L37.41 69.42L30.5 67.17L46.66 35.37Z" fill="#FF6124"></path>
<path d="M37.4104 69.66C37.4104 69.66 37.3604 69.66 37.3404 69.65L30.4304 67.39C30.3704 67.37 30.3104 67.32 30.2904 67.26C30.2604 67.2 30.2704 67.13 30.2904 67.06L46.4504 35.26C46.4904 35.18 46.5604 35.14 46.6504 35.13C46.7404 35.13 46.8104 35.17 46.8604 35.24L51.2604 42.49C51.3004 42.56 51.3004 42.64 51.2604 42.72L46.8904 51.42L37.6104 69.53C37.5704 69.61 37.4904 69.66 37.4004 69.66H37.4104ZM30.8304 67.03L37.2904 69.14L46.4804 51.21L50.7904 42.63L46.6804 35.85L30.8304 67.03Z" fill="black"></path>
<path d="M48.7397 20.74L35.6796 55.36L46.6896 51.32L37.4096 69.42L43.3896 67.9L35.6396 89.77L56.5496 56.35L49.7296 58.47L61.9396 33.47L51.6896 39.84L67.2696 8.48999L48.7397 20.74Z" fill="url(#paint0_linear_7897_66325)"></path>
<path d="M35.6399 90C35.6399 90 35.5699 90 35.5399 89.98C35.4299 89.93 35.3799 89.8 35.4199 89.69L43.0299 68.24L37.4699 69.65C37.3799 69.67 37.2899 69.64 37.2299 69.57C37.1699 69.5 37.1599 69.4 37.1999 69.32L46.2099 51.74L35.7599 55.57C35.6699 55.6 35.5799 55.57 35.5099 55.52C35.4499 55.46 35.4299 55.36 35.4599 55.27L48.5299 20.65C48.5299 20.65 48.5799 20.56 48.6199 20.54L67.1399 8.29001C67.2299 8.23001 67.3399 8.24001 67.4199 8.31001C67.4999 8.38001 67.5199 8.49001 67.4699 8.59001L52.2499 39.21L61.7999 33.28C61.8899 33.22 61.9999 33.24 62.0799 33.31C62.1599 33.38 62.1799 33.49 62.1299 33.59L50.1599 58.1L56.4599 56.15C56.5499 56.12 56.6499 56.15 56.7099 56.23C56.7699 56.31 56.7699 56.41 56.7199 56.5L35.8099 89.91C35.7699 89.98 35.6899 90.02 35.6099 90.02L35.6399 90ZM43.3899 67.67C43.4499 67.67 43.5199 67.7 43.5599 67.75C43.6199 67.81 43.6399 67.9 43.6099 67.99L36.5599 87.85L56.0099 56.77L49.7899 58.7C49.6999 58.73 49.5999 58.7 49.5399 58.63C49.4799 58.56 49.4699 58.46 49.5099 58.37L61.3599 34.1L51.7999 40.04C51.7099 40.09 51.5999 40.09 51.5199 40.01C51.4399 39.94 51.4199 39.83 51.4699 39.73L66.6599 9.16001L48.9199 20.89L36.0599 54.96L46.5899 51.1C46.6799 51.07 46.7799 51.1 46.8399 51.16C46.8999 51.23 46.9199 51.34 46.8699 51.42L37.8299 69.07L43.3099 67.68C43.3099 67.68 43.3499 67.68 43.3699 67.68L43.3899 67.67Z" fill="black"></path>
<defs>
<linearGradient id="paint0_linear_7897_66325" x1="35.6396" y1="49.13" x2="67.2696" y2="49.13" gradientUnits="userSpaceOnUse">
<stop stop-color="#FCFC3C"></stop>
<stop offset="1" stop-color="#FF9F00"></stop>
</linearGradient>
</defs>
</svg>