<svg width="96" height="96" viewBox="0 0 96 96" fill="none" xmlns="http://www.w3.org/2000/svg">
<g clip-path="url(#clip0_7896_50992)">
<path d="M73.4399 66.56L56.5199 40.72C55.9899 39.92 55.2699 39.26 54.4099 38.82L37.0899 29.88C34.8999 28.75 32.2399 30.03 31.7499 32.44L27.9299 51.37C27.6399 52.81 27.9299 54.31 28.7299 55.53L45.6999 81.44C46.7899 83.1 48.9399 83.68 50.7099 82.79L71.9199 72.19C74.0099 71.15 74.7199 68.51 73.4399 66.56ZM38.1099 38.66C37.3199 38.6 36.4599 38.18 35.7899 37.43C34.9299 36.47 34.6299 35.24 34.9399 34.33C35.7399 34.37 36.6099 34.79 37.2899 35.55C38.1499 36.52 38.4399 37.75 38.1099 38.66Z" fill="#8D39F5"></path>
<path d="M48.9599 83.4299C47.5999 83.4299 46.2899 82.7599 45.4999 81.5599L28.5299 55.6499C27.6899 54.3599 27.3899 52.8199 27.6899 51.3099L31.5099 32.3799C31.7599 31.1599 32.5399 30.1499 33.6699 29.6099C34.7899 29.0699 36.0799 29.0899 37.1899 29.6599L54.5099 38.5999C55.3999 39.0599 56.1599 39.7399 56.7099 40.5799L73.6299 66.4099C74.2799 67.3999 74.4699 68.6199 74.1599 69.7499C73.8499 70.8899 73.0699 71.8399 72.0199 72.3699L50.8099 82.9699C50.2199 83.2699 49.5899 83.4099 48.9599 83.4099V83.4299ZM35.3799 29.6899C34.8699 29.6899 34.3499 29.8099 33.8699 30.0399C32.8799 30.5199 32.1799 31.4099 31.9699 32.4899L28.1499 51.4199C27.8699 52.8099 28.1499 54.2299 28.9199 55.4099L45.8899 81.3199C46.9099 82.8799 48.9399 83.4199 50.5999 82.5899L71.8099 71.9899C72.7499 71.5199 73.4399 70.6699 73.7099 69.6599C73.9799 68.6499 73.8099 67.5699 73.2399 66.6899L56.3199 40.8599C55.8199 40.0899 55.1199 39.4599 54.2999 39.0399L36.9799 30.0999C36.4799 29.8399 35.9299 29.7099 35.3899 29.7099L35.3799 29.6899ZM38.1099 38.8899C38.1099 38.8899 38.0999 38.8899 38.0899 38.8899C37.1999 38.8299 36.2999 38.3499 35.6099 37.5799C34.7199 36.5799 34.3699 35.2699 34.7199 34.2499C34.7499 34.1499 34.8499 34.0899 34.9499 34.0899C35.8499 34.1399 36.7599 34.6099 37.4599 35.3899C38.3599 36.3999 38.6999 37.7099 38.3299 38.7399C38.2999 38.8299 38.2099 38.8899 38.1099 38.8899ZM35.1099 34.5699C34.9099 35.4099 35.2299 36.4499 35.9599 37.2699C36.5199 37.8899 37.2299 38.2999 37.9399 38.3999C38.1599 37.5599 37.8499 36.5199 37.1099 35.6899C36.5499 35.0599 35.8299 34.6599 35.1099 34.5699Z" fill="black"></path>
<path d="M45.6899 81.4399L28.7199 55.5299C27.9199 54.2999 27.6299 52.8099 27.9199 51.3699L31.7399 32.4399C31.9799 31.2599 32.7399 30.3499 33.7099 29.8599L29.6099 31.9099C28.6699 32.4099 27.9399 33.2999 27.7099 34.4599L23.8899 53.3899C23.5999 54.8299 23.8899 56.3299 24.6899 57.5499L41.6599 83.4599C42.7499 85.1199 44.8999 85.6999 46.6699 84.8099L50.7099 82.7899C48.9399 83.6799 46.7899 83.0899 45.6999 81.4399H45.6899Z" fill="#FF69F7"></path>
<path d="M44.9201 85.4499C43.5601 85.4499 42.2501 84.7799 41.4601 83.5799L24.4901 57.6699C23.6501 56.3799 23.3501 54.8399 23.6501 53.3299L27.4701 34.3999C27.7101 33.2299 28.4401 32.2499 29.4901 31.6899L33.5901 29.6399C33.6701 29.5999 33.7601 29.6099 33.8301 29.6599C33.9001 29.7099 33.9401 29.7899 33.9301 29.8699C33.9301 29.9499 33.8801 30.0299 33.8001 30.0599C32.8401 30.5399 32.1701 31.4199 31.9601 32.4799L28.1401 51.4099C27.8601 52.7999 28.1401 54.2199 28.9101 55.3999L45.8801 81.3099C46.9001 82.8699 48.9301 83.4099 50.5901 82.5799C50.7101 82.5199 50.8401 82.5699 50.9001 82.6799C50.9601 82.7899 50.9101 82.9299 50.8001 82.9899L46.7601 85.0099C46.1701 85.3099 45.5401 85.4499 44.9101 85.4499H44.9201ZM32.1601 30.8899L29.7101 32.1099C28.7901 32.5999 28.1401 33.4699 27.9301 34.4899L24.1101 53.4199C23.8301 54.8099 24.1101 56.2299 24.8801 57.4099L41.8501 83.3199C42.8701 84.8799 44.9001 85.4199 46.5601 84.5899L48.8901 83.4199C47.5601 83.3999 46.2701 82.7299 45.4901 81.5499L28.5201 55.6399C27.6801 54.3499 27.3801 52.8099 27.6801 51.2999L31.5001 32.3699C31.6101 31.8199 31.8301 31.3099 32.1401 30.8699L32.1601 30.8899Z" fill="black"></path>
<path d="M39.2799 34.2999C38.1299 33.0199 36.4199 32.6799 35.4499 33.5399C35.2099 33.7499 35.0399 34.0199 34.9399 34.3299C35.7399 34.3699 36.6099 34.7899 37.2899 35.5499C38.1499 36.5199 38.4399 37.7499 38.1099 38.6599C38.6799 38.6999 39.2099 38.5499 39.6099 38.1899C40.5799 37.3299 40.4299 35.5899 39.2799 34.2999Z" fill="#FF69F7"></path>
<path d="M38.29 38.89C38.22 38.89 38.16 38.89 38.09 38.89C38.02 38.89 37.95 38.85 37.91 38.78C37.87 38.72 37.86 38.64 37.89 38.57C38.2 37.7 37.9 36.57 37.11 35.69C36.5 35.01 35.7 34.59 34.93 34.55C34.86 34.55 34.79 34.51 34.75 34.45C34.71 34.39 34.7 34.31 34.72 34.24C34.84 33.89 35.04 33.59 35.3 33.36C36.36 32.41 38.22 32.76 39.45 34.14C40.68 35.52 40.82 37.41 39.76 38.35C39.37 38.7 38.86 38.88 38.29 38.88V38.89ZM35.28 34.13C36.07 34.26 36.85 34.71 37.46 35.39C38.27 36.3 38.63 37.46 38.42 38.43C38.83 38.41 39.18 38.27 39.46 38.02C40.33 37.24 40.17 35.65 39.11 34.46C38.05 33.27 36.48 32.94 35.61 33.72C35.48 33.84 35.37 33.98 35.28 34.14V34.13Z" fill="black"></path>
<path d="M35.1299 26.7899C32.6299 24.1399 28.9099 21.8199 24.6399 20.2699C15.3599 16.8999 6.63987 18.2299 4.79987 23.2999C3.85987 25.8899 4.84987 28.9199 7.58987 31.8299C10.0899 34.4799 13.8099 36.7999 18.0799 38.3499C20.9499 39.3899 23.8499 40.0099 26.5499 40.1699L27.1299 37.2799C24.6099 37.1799 21.8399 36.6099 19.0799 35.6099C15.2299 34.2099 11.9099 32.1599 9.71987 29.8399C7.79987 27.7999 7.00987 25.7799 7.54987 24.2999C8.08987 22.8199 9.98987 21.7799 12.7699 21.4399C13.4199 21.3599 14.0999 21.3199 14.7999 21.3199C17.5199 21.3199 20.5999 21.8999 23.6599 23.0099C27.5099 24.4099 30.8299 26.4599 33.0199 28.7799C34.9399 30.8199 35.7299 32.8399 35.1899 34.3199C35.0999 34.5499 34.9799 34.7799 34.8299 34.9899C34.7999 35.7799 35.1299 36.6699 35.7899 37.4199C35.9199 37.5599 36.0499 37.6899 36.1899 37.7999C36.9899 37.1099 37.5799 36.2699 37.9299 35.3199C38.8699 32.7299 37.8799 29.6999 35.1399 26.7899H35.1299Z" fill="white"></path>
<path d="M26.55 40.41C26.55 40.41 26.55 40.41 26.54 40.41C23.81 40.25 20.86 39.61 18.01 38.58C13.71 37.02 9.94996 34.68 7.42996 32C4.62996 29.02 3.61996 25.91 4.58996 23.23C6.47996 18.04 15.32 16.65 24.72 20.06C29.02 21.62 32.78 23.96 35.3 26.64C38.1 29.62 39.11 32.73 38.14 35.41C37.78 36.39 37.18 37.26 36.34 37.99C36.25 38.07 36.12 38.07 36.04 37.99C35.87 37.85 35.74 37.72 35.62 37.59C34.94 36.83 34.57 35.89 34.6 35C34.6 34.95 34.62 34.91 34.64 34.87C34.79 34.67 34.9 34.46 34.97 34.26C35.48 32.86 34.7 30.93 32.85 28.96C30.69 26.66 27.39 24.63 23.58 23.25C20.56 22.15 17.52 21.57 14.8 21.57C14.11 21.57 13.43 21.61 12.8 21.68C10.11 22 8.27996 22.99 7.76996 24.39C7.25996 25.79 8.03996 27.72 9.88996 29.69C12.05 31.99 15.35 34.02 19.16 35.4C21.87 36.39 24.63 36.96 27.14 37.06C27.21 37.06 27.27 37.1 27.31 37.15C27.35 37.2 27.37 37.27 27.36 37.34L26.78 40.23C26.76 40.34 26.66 40.42 26.55 40.42V40.41ZM14.81 18.64C9.90996 18.64 6.14996 20.29 5.02996 23.38C4.11996 25.88 5.08996 28.83 7.76996 31.67C10.24 34.3 13.93 36.59 18.17 38.13C20.91 39.13 23.74 39.75 26.37 39.92L26.86 37.5C24.38 37.37 21.67 36.79 19.01 35.83C15.13 34.42 11.78 32.35 9.55996 30C7.57996 27.89 6.76996 25.79 7.33996 24.22C7.90996 22.65 9.87996 21.55 12.75 21.21C13.4 21.13 14.09 21.09 14.8 21.09C17.57 21.09 20.66 21.68 23.73 22.8C27.61 24.21 30.96 26.28 33.18 28.63C35.16 30.74 35.97 32.84 35.4 34.41C35.32 34.63 35.2 34.86 35.05 35.07C35.05 35.82 35.37 36.61 35.96 37.27C36.03 37.35 36.1 37.42 36.18 37.5C36.88 36.85 37.39 36.1 37.7 35.25C38.61 32.74 37.64 29.8 34.96 26.96C32.49 24.33 28.8 22.04 24.56 20.5C21.11 19.25 17.75 18.65 14.8 18.65L14.81 18.64Z" fill="black"></path>
<path d="M59.4799 64.4999C59.7699 63.6999 59.8999 62.8999 59.8699 62.0999C59.8399 61.2999 59.6899 60.5499 59.4199 59.8299C59.1499 59.1199 58.8899 58.5599 58.6199 58.1399C58.3199 57.6699 57.9599 57.1399 57.5299 56.5499C57.0999 55.9699 56.5799 55.4399 55.9599 54.9599C55.3399 54.4799 54.6099 54.0999 53.7599 53.8099C52.9099 53.5199 51.9099 53.4399 50.7599 53.5599C50.5399 53.5799 50.3299 53.5999 50.1399 53.6299C50.0499 53.6399 49.9599 53.6599 49.8699 53.6699L46.6499 48.5799C47.0199 48.4899 47.4599 48.5799 47.9699 48.8799C48.5999 49.2499 49.1699 49.8099 49.6599 50.5599L52.2899 49.1199C51.6299 48.1499 50.9499 47.3699 50.2599 46.7799C49.5699 46.1899 48.8899 45.7499 48.2099 45.4699C47.5299 45.1899 46.8599 45.0499 46.1999 45.0399C45.6299 45.0399 45.0799 45.1099 44.5499 45.2599L43.1099 42.9799L41.5199 43.9099L42.9299 46.1399C42.5299 46.4699 42.1799 46.8599 41.8999 47.3199C41.5599 47.8799 41.3499 48.5199 41.2699 49.2399C41.1899 49.9599 41.2699 50.7599 41.4999 51.6299C41.7299 52.4999 42.1499 53.4199 42.7599 54.3899C43.3599 55.3399 43.9699 56.0699 44.5799 56.5899C45.1899 57.1099 45.8099 57.4899 46.4299 57.7199C47.0499 57.9499 47.6699 58.0799 48.2699 58.0899C48.8799 58.0999 49.4699 58.0799 50.0399 58.0199C50.1699 57.9899 50.3199 58.0199 50.4399 58.0099L54.1999 63.9499C53.6299 63.9899 53.0199 63.8299 52.3799 63.4899C51.5999 63.0699 50.8799 62.3199 50.1999 61.2299L47.5899 62.6599C49.1299 64.8299 50.6599 66.2799 52.1699 67.0099C53.5699 67.6899 54.9599 67.7899 56.3399 67.3099L57.8399 69.6699L58.1299 69.5099L58.1899 69.6099L59.2799 69.0099L59.2099 68.8999L59.4399 68.7699L57.9599 66.4299C58.6999 65.8599 59.2099 65.2199 59.4799 64.4899V64.4999ZM46.4399 53.7799C45.9599 53.5799 45.5299 53.1699 45.1299 52.5399C44.8799 52.1399 44.7099 51.7699 44.6099 51.4299C44.5199 51.0899 44.4899 50.7699 44.5199 50.4799C44.5499 50.1899 44.6399 49.9499 44.7799 49.7399C44.8499 49.6299 44.9399 49.5399 45.0299 49.4499L47.8699 53.9399C47.3099 53.9899 46.8299 53.9399 46.4299 53.7699L46.4399 53.7799ZM52.4899 57.8099C53.2699 57.7499 53.8999 57.8099 54.3699 57.9999C54.9099 58.1999 55.4099 58.6799 55.8799 59.4199C56.1699 59.8799 56.3599 60.2999 56.4399 60.6999C56.5299 61.0999 56.5499 61.4699 56.4999 61.7999C56.4499 62.1299 56.3499 62.4299 56.1899 62.6799C56.0799 62.8499 55.9699 62.9899 55.8499 63.1199L52.4899 57.8199V57.8099Z" fill="#DDCAFF"></path>
<path d="M57.8299 69.9099C57.7499 69.9099 57.6799 69.8699 57.6299 69.7999L56.2299 67.5899C54.8599 68.0199 53.4499 67.8899 52.0599 67.2199C50.5199 66.4799 48.9499 64.9899 47.3999 62.7899C47.3599 62.7399 47.3499 62.6699 47.3599 62.5999C47.3699 62.5299 47.4199 62.4799 47.4699 62.4499L50.0799 61.0199C50.1899 60.9599 50.3199 60.9999 50.3899 61.0999C51.0399 62.1499 51.7399 62.8799 52.4799 63.2699C52.9199 63.5099 53.3499 63.6499 53.7599 63.6899L50.2999 58.2299C50.2999 58.2299 50.2699 58.2299 50.2599 58.2299C50.1899 58.2299 50.1199 58.2299 50.0699 58.2299C50.0699 58.2299 50.0599 58.2299 50.0499 58.2299C49.4699 58.2899 48.8599 58.3199 48.2499 58.2999C47.6199 58.2899 46.9699 58.1599 46.3299 57.9199C45.6899 57.6799 45.0399 57.2799 44.4099 56.7499C43.7799 56.2199 43.1599 55.4599 42.5499 54.4899C41.9299 53.5099 41.4899 52.5599 41.2599 51.6699C41.0299 50.7699 40.9499 49.9399 41.0299 49.1999C41.1099 48.4499 41.3299 47.7699 41.6899 47.1799C41.9499 46.7699 42.2599 46.3999 42.6199 46.0799L41.3199 44.0199C41.2899 43.9699 41.2799 43.8999 41.2899 43.8399C41.2999 43.7799 41.3399 43.7299 41.3999 43.6899L42.9899 42.7599C43.0999 42.6999 43.2399 42.7299 43.2999 42.8399L44.6499 44.9699C45.1499 44.8399 45.6699 44.7799 46.1999 44.7899C46.8899 44.7899 47.5899 44.9499 48.2899 45.2399C48.9899 45.5299 49.6999 45.9799 50.3999 46.5899C51.0999 47.1899 51.7999 47.9999 52.4699 48.9699C52.5099 49.0199 52.5199 49.0899 52.4999 49.1599C52.4799 49.2199 52.4399 49.2799 52.3899 49.3099L49.7599 50.7499C49.6499 50.8099 49.5199 50.7799 49.4499 50.6699C48.9799 49.9499 48.4399 49.4099 47.8399 49.0599C47.5499 48.8899 47.2799 48.7899 47.0399 48.7599L49.9699 53.3999C49.9699 53.3999 50.0499 53.3899 50.0899 53.3799C50.2799 53.3499 50.4899 53.3299 50.7199 53.3099C51.8999 53.1899 52.9399 53.2699 53.8199 53.5699C54.6899 53.8699 55.4499 54.2699 56.0899 54.7599C56.7199 55.2499 57.2699 55.7999 57.6999 56.3999C58.1299 56.9899 58.4999 57.5199 58.7999 57.9999C59.0699 58.4299 59.3499 59.0099 59.6199 59.7299C59.8899 60.4599 60.0499 61.2499 60.0799 62.0699C60.1099 62.8999 59.9799 63.7299 59.6799 64.5599C59.4199 65.2699 58.9399 65.9099 58.2499 66.4799L59.6199 68.6399C59.6499 68.6899 59.6599 68.7599 59.6499 68.8199C59.6299 68.8799 59.5899 68.9299 59.5399 68.9699L59.4899 68.9999C59.4899 68.9999 59.4899 69.0499 59.4899 69.0699C59.4699 69.1299 59.4299 69.1799 59.3799 69.2199L58.2899 69.8199C58.2199 69.8599 58.1299 69.8599 58.0599 69.8199L57.9399 69.8899C57.9399 69.8899 57.8599 69.9199 57.8299 69.9199V69.9099ZM56.3299 67.0799C56.4099 67.0799 56.4799 67.1199 56.5299 67.1899L57.9099 69.3699L57.9999 69.3199C58.0799 69.2799 58.1599 69.2799 58.2299 69.3199L58.9599 68.9199C58.9599 68.9199 58.9599 68.8799 58.9599 68.8499C58.9799 68.7899 59.0199 68.7399 59.0699 68.6999H59.0899L57.7399 66.5599C57.6799 66.4599 57.6999 66.3199 57.7999 66.2499C58.5099 65.7099 58.9899 65.0899 59.2399 64.4099C59.5199 63.6399 59.6499 62.8699 59.6099 62.0999C59.5799 61.3299 59.4299 60.5899 59.1799 59.9099C58.9199 59.2199 58.6599 58.6599 58.3999 58.2599C58.0999 57.7899 57.7399 57.2599 57.3199 56.6899C56.9099 56.1299 56.3899 55.6099 55.7999 55.1399C55.1999 54.6799 54.4899 54.2999 53.6699 54.0299C52.8599 53.7499 51.8799 53.6699 50.7699 53.7899C50.5399 53.8099 50.3399 53.8299 50.1599 53.8599C50.0999 53.8599 50.0399 53.8799 49.9799 53.8899H49.8899C49.7999 53.9099 49.7099 53.8699 49.6599 53.7999L46.4399 48.7099C46.3999 48.6499 46.3899 48.5699 46.4199 48.4999C46.4499 48.4299 46.5099 48.3799 46.5799 48.3599C47.0099 48.2499 47.5199 48.3599 48.0799 48.6899C48.6899 49.0499 49.2399 49.5799 49.7199 50.2699L51.9399 49.0499C51.3399 48.1999 50.7199 47.4999 50.0999 46.9699C49.4299 46.3999 48.7599 45.9699 48.1099 45.6999C47.4599 45.4299 46.8199 45.2899 46.1899 45.2899C45.6499 45.2899 45.1199 45.3599 44.6099 45.4999C44.5099 45.5299 44.3999 45.4899 44.3499 45.3999L43.0299 43.3099L41.8399 44.0099L43.1199 46.0399C43.1799 46.1399 43.1599 46.2699 43.0699 46.3399C42.6799 46.6499 42.3499 47.0299 42.0899 47.4599C41.7699 47.9899 41.5599 48.5999 41.4899 49.2799C41.4199 49.9699 41.4899 50.7399 41.7099 51.5799C41.9299 52.4199 42.3499 53.3299 42.9399 54.2699C43.5299 55.1999 44.1199 55.9199 44.7099 56.4199C45.2999 56.9199 45.8999 57.2899 46.4899 57.5099C47.0799 57.7299 47.6799 57.8499 48.2499 57.8599C48.8399 57.8699 49.4299 57.8499 49.9899 57.7899C50.0899 57.7699 50.1799 57.7699 50.2699 57.7799C50.3199 57.7799 50.3599 57.7799 50.3999 57.7799C50.4899 57.7799 50.5699 57.8099 50.6199 57.8899L54.3799 63.8299C54.4199 63.8999 54.4299 63.9899 54.3899 64.0599C54.3499 64.1299 54.2799 64.1799 54.1999 64.1899C53.5799 64.2299 52.9299 64.0699 52.2499 63.6999C51.4799 63.2899 50.7599 62.5699 50.0999 61.5499L47.9099 62.7499C49.3699 64.7599 50.8299 66.1299 52.2499 66.8199C53.5899 67.4699 54.9299 67.5699 56.2399 67.1099C56.2599 67.1099 56.2899 67.0999 56.3199 67.0999L56.3299 67.0799ZM55.8499 63.3399H55.8299C55.7599 63.3399 55.6899 63.2899 55.6599 63.2299L52.2999 57.9299C52.2599 57.8599 52.2499 57.7699 52.2899 57.6999C52.3299 57.6299 52.3999 57.5799 52.4799 57.5699C53.2899 57.5099 53.9599 57.5799 54.4599 57.7699C55.0399 57.9899 55.5899 58.4999 56.0799 59.2799C56.3799 59.7599 56.5799 60.2099 56.6699 60.6399C56.7599 61.0599 56.7799 61.4599 56.7299 61.8199C56.6799 62.1799 56.5599 62.5099 56.3799 62.7899C56.2699 62.9599 56.1499 63.1199 56.0099 63.2599C55.9699 63.3099 55.9099 63.3299 55.8399 63.3299L55.8499 63.3399ZM52.8999 58.0199L55.8699 62.7199C55.9099 62.6699 55.9499 62.6099 55.9899 62.5499C56.1299 62.3199 56.2299 62.0599 56.2699 61.7599C56.3099 61.4599 56.2899 61.1099 56.2099 60.7399C56.1299 60.3699 55.9499 59.9599 55.6799 59.5299C55.2399 58.8399 54.7699 58.3899 54.2899 58.2099C53.9299 58.0699 53.4599 58.0099 52.8999 58.0199ZM47.4899 54.1999C47.0599 54.1999 46.6799 54.1299 46.3499 53.9899C45.8299 53.7699 45.3599 53.3299 44.9399 52.6599C44.6799 52.2399 44.4899 51.8499 44.3899 51.4799C44.2899 51.1099 44.2599 50.7599 44.2899 50.4399C44.3299 50.1199 44.4299 49.8399 44.5899 49.5999C44.6699 49.4799 44.7699 49.3699 44.8799 49.2699C44.9299 49.2199 44.9999 49.1999 45.0699 49.2099C45.1399 49.2099 45.1999 49.2599 45.2299 49.3199L48.0699 53.8099C48.1099 53.8799 48.1199 53.9599 48.0799 54.0399C48.0399 54.1099 47.9699 54.1599 47.8899 54.1699C47.7499 54.1799 47.6099 54.1899 47.4799 54.1899L47.4899 54.1999ZM44.9999 49.8399C44.9999 49.8399 44.9799 49.8599 44.9699 49.8799C44.8499 50.0499 44.7799 50.2599 44.7499 50.5099C44.7199 50.7699 44.7499 51.0499 44.8299 51.3699C44.9199 51.6899 45.0799 52.0399 45.3199 52.4199C45.6899 52.9999 46.0899 53.3899 46.5199 53.5699C46.7799 53.6799 47.0999 53.7399 47.4599 53.7399L44.9899 49.8399H44.9999Z" fill="black"></path>
<mask id="mask0_7896_50992" style="mask-type:luminance" maskUnits="userSpaceOnUse" x="59" y="32" width="30" height="29">
<path d="M82.5364 54.8871C88.865 48.6332 90.2032 39.7261 85.5254 34.9924C80.8476 30.2587 71.9252 31.4911 65.5966 37.745C59.268 43.9989 57.9298 52.9061 62.6076 57.6398C67.2854 62.3734 76.2079 61.141 82.5364 54.8871Z" fill="white"></path>
</mask>
<g mask="url(#mask0_7896_50992)">
<path d="M70.3499 62.37L90.2099 51.26V62.37H70.3499Z" fill="#FCFC3C"></path>
<path d="M69.9399 62.37L90.2099 51.03V51.26L70.3499 62.37H69.9399Z" fill="#FCFC3C"></path>
<path d="M69.53 62.37L90.21 50.8V51.03L69.94 62.37H69.53Z" fill="#FCFB3B"></path>
<path d="M69.1299 62.3701L90.2099 50.5701V50.8001L69.5299 62.3701H69.1299Z" fill="#FCFA3B"></path>
<path d="M68.72 62.37L90.21 50.35V50.57L69.13 62.37H68.72Z" fill="#FCF93A"></path>
<path d="M68.3101 62.37L90.2101 50.12V50.35L68.7201 62.37H68.3101Z" fill="#FCF839"></path>
<path d="M67.8999 62.37L90.2099 49.89V50.12L68.3099 62.37H67.8999Z" fill="#FCF739"></path>
<path d="M67.49 62.37L90.21 49.66V49.89L67.9 62.37H67.49Z" fill="#FCF638"></path>
<path d="M67.0898 62.3701L90.2098 49.4301V49.6601L67.4898 62.3701H67.0898Z" fill="#FCF537"></path>
<path d="M66.6799 62.37L90.2099 49.21V49.43L67.0899 62.37H66.6799Z" fill="#FCF437"></path>
<path d="M66.27 62.37L90.21 48.98V49.21L66.68 62.37H66.27Z" fill="#FCF336"></path>
<path d="M65.8599 62.37L90.2099 48.75V48.98L66.2699 62.37H65.8599Z" fill="#FCF235"></path>
<path d="M65.45 62.37L90.21 48.52V48.75L65.86 62.37H65.45Z" fill="#FCF135"></path>
<path d="M65.05 62.37L90.21 48.29V48.52L65.45 62.37H65.05Z" fill="#FCF034"></path>
<path d="M64.6399 62.3701L90.2099 48.0601V48.2901L65.0499 62.3701H64.6399Z" fill="#FCEF34"></path>
<path d="M64.23 62.37L90.21 47.84V48.06L64.64 62.37H64.23Z" fill="#FCEE33"></path>
<path d="M63.8198 62.37L90.2098 47.61V47.84L64.2298 62.37H63.8198Z" fill="#FCED32"></path>
<path d="M63.4099 62.37L90.2099 47.38V47.61L63.8199 62.37H63.4099Z" fill="#FDEC32"></path>
<path d="M63.01 62.37L90.21 47.15V47.38L63.41 62.37H63.01Z" fill="#FDEB31"></path>
<path d="M62.8801 62.37L62.8101 62.25L90.2101 46.92V47.15L63.0101 62.37H62.8801Z" fill="#FDEA30"></path>
<path d="M62.81 62.2501L62.71 62.0801L90.21 46.6901V46.9201L62.81 62.2501Z" fill="#FDE930"></path>
<path d="M62.7099 62.08L62.6199 61.91L90.2099 46.47V46.69L62.7099 62.08Z" fill="#FDE82F"></path>
<path d="M62.62 61.91L62.52 61.73L90.21 46.24V46.47L62.62 61.91Z" fill="#FDE72E"></path>
<path d="M62.5199 61.73L62.4199 61.56L90.2099 46.01V46.24L62.5199 61.73Z" fill="#FDE62E"></path>
<path d="M62.4198 61.56L62.3198 61.38L90.2098 45.78V46.01L62.4198 61.56Z" fill="#FDE52D"></path>
<path d="M62.32 61.3801L62.23 61.21L90.21 45.55V45.78L62.32 61.3801Z" fill="#FDE42C"></path>
<path d="M62.2299 61.2101L62.1299 61.0401L90.2099 45.3201V45.5501L62.2299 61.2101Z" fill="#FDE32C"></path>
<path d="M62.13 61.04L62.03 60.86L90.21 45.1V45.32L62.13 61.04Z" fill="#FDE22B"></path>
<path d="M62.0299 60.86L61.9299 60.69L90.2099 44.87V45.1L62.0299 60.86Z" fill="#FDE12A"></path>
<path d="M61.9298 60.69L61.8398 60.51L90.2098 44.64V44.87L61.9298 60.69Z" fill="#FDE02A"></path>
<path d="M61.84 60.51L61.74 60.34L90.21 44.41V44.64L61.84 60.51Z" fill="#FDDF29"></path>
<path d="M61.7399 60.3401L61.6399 60.1701L90.2099 44.1801V44.4101L61.7399 60.3401Z" fill="#FDDE28"></path>
<path d="M61.64 60.1699L61.55 59.99L90.21 43.95V44.18L61.64 60.1699Z" fill="#FDDD28"></path>
<path d="M61.5499 59.99L61.45 59.82L90.2099 43.73V43.95L61.5499 59.99Z" fill="#FDDC27"></path>
<path d="M61.4499 59.82L61.3499 59.65L90.2099 43.5V43.73L61.4499 59.82Z" fill="#FDDB26"></path>
<path d="M61.35 59.65L61.25 59.47L90.21 43.27V43.5L61.35 59.65Z" fill="#FDDA26"></path>
<path d="M61.2499 59.47L61.1599 59.3L90.2099 43.04V43.27L61.2499 59.47Z" fill="#FDD925"></path>
<path d="M61.1601 59.3001L61.0601 59.1201L90.2101 42.8101V43.0401L61.1601 59.3001Z" fill="#FDD825"></path>
<path d="M61.06 59.12L60.96 58.95L90.21 42.58V42.81L61.06 59.12Z" fill="#FDD724"></path>
<path d="M60.9599 58.95L60.8599 58.78L90.2099 42.36V42.58L60.9599 58.95Z" fill="#FDD623"></path>
<path d="M60.86 58.78L60.77 58.6L90.21 42.13V42.36L60.86 58.78Z" fill="#FDD523"></path>
<path d="M60.7699 58.6L60.6699 58.43L90.2099 41.9V42.13L60.7699 58.6Z" fill="#FDD422"></path>
<path d="M60.6698 58.43L60.5698 58.25L90.2098 41.67V41.9L60.6698 58.43Z" fill="#FDD321"></path>
<path d="M60.57 58.2501L60.48 58.0801L90.21 41.4401V41.6701L60.57 58.2501Z" fill="#FDD221"></path>
<path d="M60.4799 58.08L60.3799 57.91L90.2099 41.22V41.44L60.4799 58.08Z" fill="#FDD120"></path>
<path d="M60.38 57.91L60.28 57.73L90.21 40.99V41.22L60.38 57.91Z" fill="#FDD01F"></path>
<path d="M60.2799 57.73L60.1799 57.56L90.2099 40.76V40.99L60.2799 57.73Z" fill="#FDCF1F"></path>
<path d="M60.1798 57.56L60.0898 57.38L90.2098 40.53V40.76L60.1798 57.56Z" fill="#FECE1E"></path>
<path d="M60.09 57.3801L59.99 57.21L90.21 40.3V40.53L60.09 57.3801Z" fill="#FECC1D"></path>
<path d="M59.9899 57.2101L59.8899 57.0401L90.2099 40.0701V40.3001L59.9899 57.2101Z" fill="#FECB1D"></path>
<path d="M59.89 57.04L59.79 56.86L90.21 39.85V40.07L59.89 57.04Z" fill="#FECA1C"></path>
<path d="M59.79 56.86L59.7 56.69L90.2099 39.62V39.85L59.79 56.86Z" fill="#FEC91B"></path>
<path d="M59.6999 56.69L59.5999 56.52L90.2099 39.39V39.62L59.6999 56.69Z" fill="#FEC81B"></path>
<path d="M59.6 56.52L59.5 56.34L90.21 39.16V39.39L59.6 56.52Z" fill="#FEC71A"></path>
<path d="M59.4999 56.34L59.4099 56.17L90.1499 38.97L90.2099 39.09V39.16L59.4999 56.34Z" fill="#FEC619"></path>
<path d="M90.0485 38.7857L59.3044 55.9891L59.4021 56.1637L90.1461 38.9603L90.0485 38.7857Z" fill="#FEC519"></path>
<path d="M89.9569 38.6114L59.2129 55.8148L59.3106 55.9894L90.0546 38.786L89.9569 38.6114Z" fill="#FEC418"></path>
<path d="M89.8517 38.4331L59.1077 55.6365L59.2053 55.811L89.9494 38.6076L89.8517 38.4331Z" fill="#FEC317"></path>
<path d="M89.7614 38.2636L59.0173 55.467L59.115 55.6416L89.859 38.4382L89.7614 38.2636Z" fill="#FEC217"></path>
<path d="M89.6698 38.0892L58.9258 55.2926L59.0234 55.4671L89.7675 38.2637L89.6698 38.0892Z" fill="#FEC116"></path>
<path d="M89.5646 37.911L58.8206 55.1144L58.9182 55.2889L89.6623 38.0855L89.5646 37.911Z" fill="#FEC016"></path>
<path d="M89.4645 37.7414L58.7205 54.9448L58.8181 55.1194L89.5622 37.916L89.4645 37.7414Z" fill="#FEBF15"></path>
<path d="M89.3693 37.5632L58.6252 54.7666L58.7229 54.9411L89.467 37.7377L89.3693 37.5632Z" fill="#FEBE14"></path>
<path d="M89.2777 37.3888L58.5337 54.5922L58.6314 54.7667L89.3754 37.5633L89.2777 37.3888Z" fill="#FEBD14"></path>
<path d="M89.1774 37.2192L58.4333 54.4226L58.531 54.5971L89.2751 37.3937L89.1774 37.2192Z" fill="#FEBC13"></path>
<path d="M89.0722 37.041L58.3281 54.2444L58.4258 54.4189L89.1698 37.2155L89.0722 37.041Z" fill="#FEBB12"></path>
<path d="M88.9821 36.8716L58.238 54.075L58.3357 54.2495L89.0797 37.0461L88.9821 36.8716Z" fill="#FEBA12"></path>
<path d="M88.8905 36.6971L58.1465 53.9005L58.2441 54.075L88.9882 36.8717L88.8905 36.6971Z" fill="#FEB911"></path>
<path d="M88.7853 36.5288L58.0413 53.7322L58.1389 53.9067L88.883 36.7033L88.7853 36.5288Z" fill="#FEB810"></path>
<path d="M88.685 36.3593L57.9409 53.5627L58.0386 53.7373L88.7826 36.5339L88.685 36.3593Z" fill="#FEB710"></path>
<path d="M57.9499 53.5601L57.9399 53.5401V53.3401L88.5899 36.1901L88.6899 36.3601L57.9499 53.5601Z" fill="#FEB60F"></path>
<path d="M57.9399 53.11L88.4899 36.01L88.5899 36.19L57.9399 53.34V53.11Z" fill="#FEB50E"></path>
<path d="M57.9399 52.88L88.3999 35.84L88.4899 36.01L57.9399 53.11V52.88Z" fill="#FEB40E"></path>
<path d="M57.9399 52.65L88.2999 35.67L88.3999 35.84L57.9399 52.88V52.65Z" fill="#FEB30D"></path>
<path d="M57.9399 52.42L88.1999 35.49L88.2999 35.67L57.9399 52.65V52.42Z" fill="#FEB20C"></path>
<path d="M57.9399 52.2001L88.0999 35.3201L88.1999 35.4901L57.9399 52.4201V52.2001Z" fill="#FEB10C"></path>
<path d="M57.9399 51.97L88.0099 35.14L88.0999 35.32L57.9399 52.2V51.97Z" fill="#FEB00B"></path>
<path d="M57.9399 51.74L87.9099 34.97L88.0099 35.14L57.9399 51.97V51.74Z" fill="#FEAF0A"></path>
<path d="M57.9399 51.51L87.8099 34.8L87.9099 34.9701L57.9399 51.7401V51.51Z" fill="#FFAE0A"></path>
<path d="M57.9399 51.28L87.7199 34.62L87.8099 34.8L57.9399 51.51V51.28Z" fill="#FFAD09"></path>
<path d="M57.9399 51.0499L87.6199 34.45L87.7199 34.6199L57.9399 51.2799V51.0499Z" fill="#FFAC08"></path>
<path d="M57.9399 50.83L87.5199 34.27L87.6199 34.45L57.9399 51.05V50.83Z" fill="#FFAB08"></path>
<path d="M57.9399 50.6L87.4199 34.1L87.5199 34.27L57.9399 50.83V50.6Z" fill="#FFAA07"></path>
<path d="M57.9399 50.3701L87.3299 33.9301L87.4199 34.1001L57.9399 50.6001V50.3701Z" fill="#FFA907"></path>
<path d="M57.9399 50.14L87.2299 33.75L87.3299 33.93L57.9399 50.37V50.14Z" fill="#FFA806"></path>
<path d="M57.9399 49.91L87.1299 33.58L87.2299 33.75L57.9399 50.14V49.91Z" fill="#FFA705"></path>
<path d="M57.9399 49.68L87.0299 33.41L87.1299 33.58L57.9399 49.91V49.68Z" fill="#FFA605"></path>
<path d="M57.9399 49.46L86.9399 33.23L87.0299 33.41L57.9399 49.68V49.46Z" fill="#FFA504"></path>
<path d="M57.9399 49.2301L86.8399 33.0601L86.9399 33.2301L57.9399 49.4601V49.2301Z" fill="#FFA403"></path>
<path d="M57.9399 49L86.7399 32.88L86.8399 33.06L57.9399 49.23V49Z" fill="#FFA303"></path>
<path d="M57.9399 48.77L86.6499 32.71L86.7399 32.88L57.9399 49V48.77Z" fill="#FFA202"></path>
<path d="M57.9399 48.54L86.5499 32.54L86.6499 32.71L57.9399 48.77V48.54Z" fill="#FFA101"></path>
<path d="M57.9399 48.31L86.4499 32.36L86.5499 32.54L57.9399 48.54V48.31Z" fill="#FFA001"></path>
<path d="M57.9399 48.0901L86.3499 32.1901L86.4499 32.3601L57.9399 48.3101V48.0901Z" fill="#FF9F00"></path>
<path d="M85.2699 30.26L86.3499 32.19L57.9399 48.09V30.26H85.2699Z" fill="#FF9F00"></path>
</g>
<path d="M70.0099 60.7499C66.9899 60.7499 64.3499 59.7299 62.4399 57.7999C57.6799 52.9799 59.0299 43.9099 65.4399 37.5799C68.5399 34.5199 72.3399 32.5399 76.1599 32.0199C79.9999 31.4899 83.3899 32.4899 85.6999 34.8299C90.4599 39.6499 89.1099 48.7199 82.6999 55.0499C79.5999 58.1099 75.7999 60.0899 71.9799 60.6099C71.3099 60.6999 70.6499 60.7499 69.9999 60.7499H70.0099ZM78.1299 32.3399C77.5099 32.3399 76.8699 32.3799 76.2199 32.4699C72.5099 32.9799 68.7899 34.9099 65.7699 37.8999C59.5399 44.0499 58.1999 52.8299 62.7799 57.4699C64.9899 59.7099 68.2399 60.6599 71.9299 60.1399C75.6399 59.6299 79.3599 57.6999 82.3799 54.7099C88.6099 48.5599 89.9499 39.7799 85.3699 35.1399C83.5499 33.2999 81.0299 32.3299 78.1299 32.3299V32.3399Z" fill="black"></path>
<path d="M68.7599 40.92C73.3399 36.39 79.6899 35.28 83.4299 38.2C83.2699 37.99 83.0899 37.79 82.8999 37.59C79.2999 33.95 72.4299 34.9 67.5599 39.71C62.6899 44.53 61.6499 51.38 65.2499 55.03C65.4599 55.25 65.6899 55.45 65.9299 55.63C62.9799 51.87 64.1499 45.48 68.7699 40.92H68.7599Z" fill="black"></path>
<path d="M65.93 55.8699C65.88 55.8699 65.83 55.8499 65.79 55.8199C65.54 55.6199 65.2999 55.4199 65.0899 55.1999C63.2999 53.3799 62.55 50.7499 63 47.7799C63.44 44.8399 65 41.9199 67.4 39.5499C69.79 37.1899 72.73 35.6599 75.68 35.2499C78.65 34.8399 81.28 35.6099 83.07 37.4299C83.25 37.6099 83.43 37.8199 83.62 38.0599C83.69 38.1499 83.68 38.2799 83.6 38.3699C83.52 38.4499 83.38 38.4599 83.29 38.3899C81.53 37.0199 79.1 36.5199 76.46 37.0099C73.78 37.4999 71.1 38.9499 68.93 41.0999C66.74 43.2599 65.25 45.9399 64.74 48.6299C64.24 51.2899 64.72 53.7299 66.11 55.4999C66.18 55.5899 66.1699 55.7199 66.0899 55.8099C66.0399 55.8599 65.99 55.8799 65.93 55.8799V55.8699ZM77.1999 35.6099C76.7199 35.6099 76.24 35.6399 75.74 35.7099C72.8899 36.0999 70.04 37.5799 67.72 39.8799C65.4 42.1699 63.88 44.9999 63.46 47.8499C63.1 50.2699 63.56 52.4399 64.76 54.0899C64.07 52.4799 63.91 50.5599 64.29 48.5399C64.82 45.7499 66.35 42.9899 68.61 40.7599C72.63 36.7899 77.9899 35.3699 81.8799 37.0199C80.5999 36.0899 79 35.6099 77.21 35.6099H77.1999Z" fill="black"></path>
<mask id="mask1_7896_50992" style="mask-type:luminance" maskUnits="userSpaceOnUse" x="64" y="36" width="22" height="22">
<path d="M80.5901 52.9099C85.2101 48.3499 86.3701 41.9599 83.4301 38.1999C79.7001 35.2899 73.3501 36.3999 68.7601 40.9199C64.1401 45.4799 62.9801 51.8699 65.9201 55.6299C69.6501 58.5399 76.0001 57.4299 80.5901 52.9099Z" fill="white"></path>
</mask>
<g mask="url(#mask1_7896_50992)">
<path d="M81.2 35.2899L62.98 50.7899V35.2899H81.2Z" fill="#FCFC3C"></path>
<path d="M81.36 35.2899L81.38 35.3099L62.98 50.9699V50.7899L81.2 35.2899H81.36Z" fill="#FCFC3C"></path>
<path d="M81.38 35.3099L81.47 35.4199L62.98 51.1499V50.9699L81.38 35.3099Z" fill="#FCFB3B"></path>
<path d="M81.47 35.4199L81.56 35.5199L62.98 51.3299V51.1499L81.47 35.4199Z" fill="#FCFA3B"></path>
<path d="M81.56 35.5199L81.65 35.6299L62.98 51.5099V51.3299L81.56 35.5199Z" fill="#FCF93A"></path>
<path d="M81.65 35.6299L81.74 35.7299L62.98 51.6899V51.5099L81.65 35.6299Z" fill="#FCF839"></path>
<path d="M81.74 35.7299L81.82 35.8399L62.98 51.8699V51.6899L81.74 35.7299Z" fill="#FCF739"></path>
<path d="M81.82 35.84L81.91 35.94L62.98 52.05V51.87L81.82 35.84Z" fill="#FCF638"></path>
<path d="M81.91 35.9399L82 36.0499L62.98 52.2299V52.0499L81.91 35.9399Z" fill="#FCF537"></path>
<path d="M82 36.0499L82.09 36.1499L62.98 52.4099V52.2299L82 36.0499Z" fill="#FCF437"></path>
<path d="M82.09 36.1499L82.18 36.2599L62.98 52.5999V52.4099L82.09 36.1499Z" fill="#FCF336"></path>
<path d="M82.18 36.2599L82.27 36.3599L63.04 52.7199L62.98 52.6499V52.5999L82.18 36.2599Z" fill="#FCF235"></path>
<path d="M82.2728 36.3571L63.0439 52.7222L63.1347 52.8288L82.3635 36.4638L82.2728 36.3571Z" fill="#FCF135"></path>
<path d="M82.3663 36.4649L63.1375 52.83L63.2282 52.9366L82.457 36.5715L82.3663 36.4649Z" fill="#FCF034"></path>
<path d="M82.442 36.5693L63.2131 52.9343L63.3039 53.0409L82.5327 36.6759L82.442 36.5693Z" fill="#FCEF34"></path>
<path d="M82.5318 36.6748L63.303 53.0398L63.3937 53.1464L82.6226 36.7814L82.5318 36.6748Z" fill="#FCEE33"></path>
<path d="M82.6251 36.7725L63.3962 53.1376L63.487 53.2442L82.7158 36.8792L82.6251 36.7725Z" fill="#FCED32"></path>
<path d="M82.7149 36.888L63.4861 53.2531L63.5768 53.3597L82.8057 36.9946L82.7149 36.888Z" fill="#FDEC32"></path>
<path d="M82.7982 36.9858L63.5693 53.3508L63.6601 53.4574L82.8889 37.0924L82.7982 36.9858Z" fill="#FDEB31"></path>
<path d="M82.898 37.0913L63.6692 53.4563L63.7599 53.5629L82.9888 37.1979L82.898 37.0913Z" fill="#FDEA30"></path>
<path d="M82.9815 37.189L63.7527 53.5541L63.8434 53.6607L83.0723 37.2957L82.9815 37.189Z" fill="#FDE930"></path>
<path d="M83.0714 37.3045L63.8425 53.6696L63.9333 53.7762L83.1621 37.4111L83.0714 37.3045Z" fill="#FDE82F"></path>
<path d="M83.1646 37.4023L63.9358 53.7673L64.0265 53.8739L83.2554 37.5089L83.1646 37.4023Z" fill="#FDE72E"></path>
<path d="M83.2545 37.5078L64.0256 53.8728L64.1164 53.9794L83.3452 37.6144L83.2545 37.5078Z" fill="#FDE62E"></path>
<path d="M83.3477 37.6056L64.1189 53.9706L64.2096 54.0772L83.4385 37.7122L83.3477 37.6056Z" fill="#FDE52D"></path>
<path d="M83.43 37.7275L64.2012 54.0925L64.2919 54.1991L83.5208 37.8341L83.43 37.7275Z" fill="#FDE42C"></path>
<path d="M83.5133 37.8253L64.2844 54.1903L64.3752 54.2969L83.604 37.9319L83.5133 37.8253Z" fill="#FDE32C"></path>
<path d="M83.6131 37.9307L64.3843 54.2958L64.475 54.4024L83.7039 38.0374L83.6131 37.9307Z" fill="#FDE22B"></path>
<path d="M83.6966 38.0385L64.4678 54.4036L64.5585 54.5102L83.7874 38.1452L83.6966 38.0385Z" fill="#FDE12A"></path>
<path d="M83.7799 38.1364L64.551 54.5015L64.6418 54.6081L83.8706 38.2431L83.7799 38.1364Z" fill="#FDE02A"></path>
<path d="M83.8797 38.2419L64.6509 54.6069L64.7416 54.7135L83.9705 38.3485L83.8797 38.2419Z" fill="#FDDF29"></path>
<path d="M83.9632 38.3397L64.7344 54.7047L64.8251 54.8113L84.054 38.4463L83.9632 38.3397Z" fill="#FDDE28"></path>
<path d="M84.0528 38.4552L64.824 54.8202L64.9147 54.9268L84.1436 38.5618L84.0528 38.4552Z" fill="#FDDD28"></path>
<path d="M84.1463 38.5529L64.9175 54.918L65.0082 55.0246L84.2371 38.6596L84.1463 38.5529Z" fill="#FDDC27"></path>
<path d="M84.2362 38.6584L65.0073 55.0234L65.0981 55.1301L84.3269 38.765L84.2362 38.6584Z" fill="#FDDB26"></path>
<path d="M84.3194 38.7562L65.0906 55.1212L65.1813 55.2278L84.4102 38.8628L84.3194 38.7562Z" fill="#FDDA26"></path>
<path d="M84.4117 38.8781L65.1829 55.2432L65.2736 55.3498L84.5024 38.9848L84.4117 38.8781Z" fill="#FDD925"></path>
<path d="M84.495 38.9759L65.2661 55.3409L65.3568 55.4476L84.5857 39.0825L84.495 38.9759Z" fill="#FDD825"></path>
<path d="M84.5848 39.0814L65.356 55.4464L65.4467 55.553L84.6755 39.188L84.5848 39.0814Z" fill="#FDD724"></path>
<path d="M84.6783 39.1892L65.4495 55.5542L65.5402 55.6608L84.769 39.2958L84.6783 39.1892Z" fill="#FDD623"></path>
<path d="M84.7681 39.2946L65.5393 55.6597L65.63 55.7663L84.8589 39.4013L84.7681 39.2946Z" fill="#FDD523"></path>
<path d="M84.8514 39.3924L65.6226 55.7574L65.7133 55.8641L84.9421 39.499L84.8514 39.3924Z" fill="#FDD422"></path>
<path d="M84.9447 39.4903L65.7158 55.8553L65.8066 55.962L85.0354 39.5969L84.9447 39.4903Z" fill="#FDD321"></path>
<path d="M85.0345 39.6057L65.8057 55.9707L65.8964 56.0773L85.1252 39.7123L85.0345 39.6057Z" fill="#FDD221"></path>
<path d="M85.118 39.7036L65.8892 56.0686L65.9799 56.1752L85.2087 39.8102L85.118 39.7036Z" fill="#FDD120"></path>
<path d="M85.2179 39.8089L65.989 56.174L66.0798 56.2806L85.3086 39.9155L85.2179 39.8089Z" fill="#FDD01F"></path>
<path d="M85.3011 39.9068L66.0723 56.2719L66.163 56.3785L85.3918 40.0134L85.3011 39.9068Z" fill="#FDCF1F"></path>
<path d="M85.3834 40.0288L66.1545 56.3938L66.2453 56.5004L85.4741 40.1354L85.3834 40.0288Z" fill="#FECE1E"></path>
<path d="M85.4766 40.1265L66.2478 56.4916L66.3385 56.5982L85.5674 40.2332L85.4766 40.1265Z" fill="#FECC1D"></path>
<path d="M85.5665 40.232L66.3376 56.597L66.4284 56.7037L85.6572 40.3386L85.5665 40.232Z" fill="#FECB1D"></path>
<path d="M85.6497 40.3298L66.4209 56.6948L66.5116 56.8014L85.7405 40.4364L85.6497 40.3298Z" fill="#FECA1C"></path>
<path d="M85.7496 40.4453L66.5208 56.8103L66.6115 56.9169L85.8403 40.5519L85.7496 40.4453Z" fill="#FEC91B"></path>
<path d="M85.8331 40.5431L66.6042 56.9081L66.695 57.0147L85.9238 40.6497L85.8331 40.5431Z" fill="#FEC81B"></path>
<path d="M85.9229 40.6485L66.6941 57.0135L66.7848 57.1202L86.0137 40.7551L85.9229 40.6485Z" fill="#FEC71A"></path>
<path d="M86.0162 40.7563L66.7874 57.1213L66.8781 57.228L86.1069 40.8629L86.0162 40.7563Z" fill="#FEC619"></path>
<path d="M86.106 40.8618L66.8772 57.2268L66.9679 57.3334L86.1968 40.9684L86.106 40.8618Z" fill="#FEC519"></path>
<path d="M86.1893 40.9596L66.9604 57.3246L67.0512 57.4312L86.28 41.0662L86.1893 40.9596Z" fill="#FEC418"></path>
<path d="M86.2828 41.0575L67.054 57.4225L67.1447 57.5291L86.3735 41.1641L86.2828 41.0575Z" fill="#FEC317"></path>
<path d="M86.3699 41.1699L86.3799 41.1899V41.3499L67.2299 57.6399L67.1399 57.5399L86.3699 41.1699Z" fill="#FEC217"></path>
<path d="M86.38 41.5299L67.32 57.7499L67.23 57.6399L86.38 41.3499V41.5299Z" fill="#FEC116"></path>
<path d="M86.3801 41.7099L67.4101 57.8499L67.3201 57.7499L86.3801 41.5299V41.7099Z" fill="#FEC016"></path>
<path d="M86.3799 41.89L67.4999 57.96L67.4099 57.85L86.3799 41.71V41.89Z" fill="#FEBF15"></path>
<path d="M86.38 42.0699L67.59 58.0599L67.5 57.9599L86.38 41.8899V42.0699Z" fill="#FEBE14"></path>
<path d="M86.3801 42.2499L67.6701 58.1699L67.5901 58.0599L86.3801 42.0699V42.2499Z" fill="#FEBD14"></path>
<path d="M86.3799 42.4299L67.7599 58.2699L67.6699 58.1699L86.3799 42.2499V42.4299Z" fill="#FEBC13"></path>
<path d="M86.38 42.6099L67.85 58.3799L67.76 58.2699L86.38 42.4299V42.6099Z" fill="#FEBB12"></path>
<path d="M86.3801 42.7899L67.9401 58.4799L67.8501 58.3799L86.3801 42.6099V42.7899Z" fill="#FEBA12"></path>
<path d="M86.3799 42.9699L68.0699 58.5499H67.9999L67.9399 58.4799L86.3799 42.7899V42.9699Z" fill="#FEB911"></path>
<path d="M86.3801 43.15L68.2801 58.55H68.0701L86.3801 42.97V43.15Z" fill="#FEB810"></path>
<path d="M86.38 43.3299L68.5 58.5499H68.28L86.38 43.1499V43.3299Z" fill="#FEB710"></path>
<path d="M86.38 43.51L68.71 58.55H68.5L86.38 43.33V43.51Z" fill="#FEB60F"></path>
<path d="M86.38 43.6899L68.92 58.5499H68.71L86.38 43.5099V43.6899Z" fill="#FEB50E"></path>
<path d="M86.3799 43.8699L69.1299 58.5499H68.9199L86.3799 43.6899V43.8699Z" fill="#FEB40E"></path>
<path d="M86.3799 44.0499L69.3399 58.5499H69.1299L86.3799 43.8699V44.0499Z" fill="#FEB30D"></path>
<path d="M86.3801 44.2299L69.5601 58.5499H69.3401L86.3801 44.0499V44.2299Z" fill="#FEB20C"></path>
<path d="M86.3801 44.4099L69.7701 58.5499H69.5601L86.3801 44.2299V44.4099Z" fill="#FEB10C"></path>
<path d="M86.38 44.5899L69.98 58.5499H69.77L86.38 44.4099V44.5899Z" fill="#FEB00B"></path>
<path d="M86.38 44.78L70.19 58.55H69.98L86.38 44.59V44.78Z" fill="#FEAF0A"></path>
<path d="M86.3799 44.9599L70.3999 58.5499H70.1899L86.3799 44.7799V44.9599Z" fill="#FFAE0A"></path>
<path d="M86.3799 45.14L70.6199 58.55H70.3999L86.3799 44.96V45.14Z" fill="#FFAD09"></path>
<path d="M86.3799 45.3199L70.8299 58.5499H70.6199L86.3799 45.1399V45.3199Z" fill="#FFAC08"></path>
<path d="M86.3801 45.4999L71.0401 58.5499H70.8301L86.3801 45.3199V45.4999Z" fill="#FFAB08"></path>
<path d="M86.38 45.6799L71.25 58.5499H71.04L86.38 45.4999V45.6799Z" fill="#FFAA07"></path>
<path d="M86.38 45.8599L71.46 58.5499H71.25L86.38 45.6799V45.8599Z" fill="#FFA907"></path>
<path d="M86.38 46.0399L71.68 58.5499H71.46L86.38 45.8599V46.0399Z" fill="#FFA806"></path>
<path d="M86.3799 46.2199L71.8899 58.5499H71.6799L86.3799 46.0399V46.2199Z" fill="#FFA705"></path>
<path d="M86.3799 46.4L72.0999 58.55H71.8899L86.3799 46.22V46.4Z" fill="#FFA605"></path>
<path d="M86.3801 46.5799L72.3101 58.5499H72.1001L86.3801 46.3999V46.5799Z" fill="#FFA504"></path>
<path d="M86.3801 46.76L72.5201 58.55H72.3101L86.3801 46.58V46.76Z" fill="#FFA403"></path>
<path d="M86.38 46.9399L72.74 58.5499H72.52L86.38 46.7599V46.9399Z" fill="#FFA303"></path>
<path d="M86.38 47.1199L72.95 58.5499H72.74L86.38 46.9399V47.1199Z" fill="#FFA202"></path>
<path d="M86.38 47.2999L73.16 58.5499H72.95L86.38 47.1199V47.2999Z" fill="#FFA101"></path>
<path d="M86.3799 47.4799L73.3699 58.5499H73.1599L86.3799 47.2999V47.4799Z" fill="#FFA001"></path>
<path d="M86.3799 47.6599L73.5899 58.5499H73.3699L86.3799 47.4799V47.6599Z" fill="#FF9F00"></path>
<path d="M73.5901 58.5499L86.3801 47.6599V58.5499H73.5901Z" fill="#FF9F00"></path>
</g>
<path d="M70.9699 57.5C69.0299 57.5 67.2299 56.96 65.7799 55.82C65.7699 55.81 65.7499 55.8 65.7399 55.78C64.2699 53.9 63.7499 51.33 64.2799 48.54C64.8099 45.75 66.3399 42.99 68.5999 40.76C73.2499 36.17 79.6899 34.99 83.5699 38.02C83.5799 38.03 83.5999 38.04 83.6099 38.06C85.0799 39.94 85.5999 42.51 85.0699 45.3C84.5399 48.09 83.0099 50.85 80.7499 53.08C77.8399 55.96 74.2199 57.5 70.9699 57.5ZM66.0899 55.47C67.8499 56.83 70.2699 57.32 72.8999 56.84C75.5799 56.35 78.2599 54.9 80.4299 52.75C82.6199 50.59 84.1099 47.91 84.6199 45.22C85.1199 42.57 84.6399 40.14 83.2599 38.37C81.4999 37.01 79.0799 36.52 76.4499 37C73.7699 37.49 71.0899 38.94 68.9199 41.09C66.7299 43.25 65.2399 45.93 64.7299 48.62C64.2299 51.27 64.7099 53.7 66.0899 55.47Z" fill="black"></path>
<path d="M75.51 59.4599L78.73 62.6799C79.64 62.3399 80.55 61.9099 81.44 61.3999L78.22 58.1799C77.33 58.6899 76.42 59.1199 75.51 59.4599Z" fill="#FCFC3C"></path>
<path d="M78.73 62.9099C78.67 62.9099 78.61 62.8899 78.57 62.8399L75.35 59.6199C75.29 59.5599 75.27 59.4799 75.29 59.4099C75.31 59.3299 75.36 59.2699 75.44 59.2399C76.34 58.8999 77.24 58.4699 78.11 57.9799C78.2 57.9299 78.32 57.9399 78.39 58.0199L81.61 61.2399C81.66 61.2899 81.69 61.3599 81.68 61.4399C81.68 61.5099 81.63 61.5799 81.57 61.6099C80.68 62.1199 79.76 62.5599 78.83 62.9099C78.8 62.9199 78.78 62.9199 78.75 62.9199L78.73 62.9099ZM75.93 59.5499L78.79 62.4099C79.56 62.1099 80.32 61.7599 81.06 61.3499L78.19 58.4799C77.46 58.8899 76.7 59.2499 75.94 59.5599L75.93 59.5499Z" fill="black"></path>
<path d="M78.22 58.18L81.44 61.4C82.25 60.93 83.05 60.4 83.83 59.8L80.61 56.58C79.84 57.18 79.04 57.71 78.22 58.18Z" fill="#FCFC3C"></path>
<path d="M81.4299 61.63C81.3699 61.63 81.3099 61.61 81.2699 61.56L78.0499 58.34C77.9999 58.29 77.9699 58.22 77.9799 58.14C77.9799 58.07 78.0299 58 78.0899 57.97C78.8999 57.5 79.6999 56.97 80.4499 56.39C80.5399 56.32 80.6699 56.33 80.7599 56.41L83.9799 59.63C83.9799 59.63 84.0499 59.74 84.0499 59.81C84.0499 59.88 84.0099 59.94 83.9599 59.98C83.1899 60.58 82.3799 61.1199 81.5499 61.5999C81.5099 61.6199 81.4699 61.63 81.4299 61.63ZM78.5899 58.23L81.4699 61.11C82.1499 60.71 82.8199 60.26 83.4699 59.78L80.5899 56.9C79.9499 57.39 79.2799 57.84 78.5999 58.24L78.5899 58.23Z" fill="black"></path>
<path d="M72.3799 60.31L75.5999 63.53C76.6399 63.36 77.6899 63.07 78.7299 62.68L75.5099 59.46C74.4599 59.86 73.4099 60.14 72.3799 60.31Z" fill="#FCFC3C"></path>
<path d="M75.5901 63.76C75.5301 63.76 75.4701 63.74 75.4301 63.69L72.2101 60.47C72.1501 60.41 72.1301 60.32 72.1501 60.23C72.1801 60.15 72.2501 60.09 72.3301 60.07C73.3601 59.9 74.4001 59.62 75.4201 59.23C75.5101 59.2 75.6001 59.22 75.6701 59.28L78.8901 62.5C78.9501 62.56 78.9701 62.64 78.9501 62.71C78.9301 62.79 78.8801 62.85 78.8001 62.88C77.7501 63.28 76.6801 63.57 75.6201 63.74C75.6101 63.74 75.5901 63.74 75.5801 63.74L75.5901 63.76ZM72.8501 60.46L75.6701 63.28C76.5501 63.13 77.4301 62.89 78.3001 62.58L75.4501 59.73C74.5901 60.05 73.7201 60.29 72.8501 60.46Z" fill="black"></path>
<path d="M82.5401 54.88C81.9201 55.5 81.2701 56.06 80.6001 56.58L83.8201 59.7999C84.4901 59.2799 85.1401 58.7199 85.7601 58.0999C85.8201 58.0399 85.8701 57.9799 85.9301 57.9199L82.7101 54.7C82.6501 54.76 82.6001 54.82 82.5401 54.88Z" fill="#FCFC3C"></path>
<path d="M83.8201 60.03C83.7601 60.03 83.7001 60.01 83.6601 59.96L80.4401 56.74C80.4401 56.74 80.3701 56.63 80.3701 56.56C80.3701 56.49 80.4101 56.43 80.4601 56.39C81.1301 55.87 81.7801 55.3 82.3801 54.71C82.4101 54.68 82.4401 54.65 82.4701 54.61C82.5001 54.58 82.5201 54.56 82.5501 54.53C82.5901 54.49 82.6501 54.46 82.7101 54.46C82.7701 54.46 82.8301 54.48 82.8701 54.53L86.0901 57.75C86.1801 57.84 86.1801 57.99 86.0901 58.08C86.0701 58.1 86.0401 58.13 86.0201 58.15C85.9901 58.18 85.9501 58.22 85.9201 58.25C85.3101 58.86 84.6501 59.43 83.9601 59.97C83.9201 60 83.8701 60.02 83.8201 60.02V60.03ZM80.9501 56.6L83.8301 59.48C84.4401 58.99 85.0301 58.47 85.5901 57.93L82.7001 55.04C82.7001 55.04 82.7001 55.04 82.6901 55.05C82.1401 55.59 81.5501 56.12 80.9401 56.6H80.9501Z" fill="black"></path>
<path d="M85.54 34.99C86.95 36.41 87.8 38.21 88.15 40.21L91.37 43.43C91.02 41.44 90.17 39.64 88.76 38.21L85.54 34.99Z" fill="#FCFC3C"></path>
<path d="M91.36 43.6499C91.3 43.6499 91.24 43.6299 91.2 43.5799L87.98 40.3599C87.98 40.3599 87.92 40.2799 87.92 40.2399C87.57 38.2099 86.71 36.4999 85.37 35.1499C85.28 35.0599 85.28 34.9099 85.37 34.8199C85.46 34.7299 85.61 34.7299 85.7 34.8199L88.92 38.0399C90.31 39.4399 91.23 41.2899 91.6 43.3799C91.62 43.4799 91.57 43.5799 91.48 43.6299C91.45 43.6499 91.41 43.6599 91.37 43.6599L91.36 43.6499ZM88.36 40.0899L90.97 42.6999C90.55 40.9999 89.75 39.5399 88.58 38.3599L87.38 37.1599C87.84 38.0599 88.17 39.0399 88.36 40.0799V40.0899Z" fill="black"></path>
<path d="M62.6099 57.6399L65.8299 60.8599C67.3999 62.4499 69.4499 63.3599 71.7099 63.6399L68.4899 60.4199C66.2199 60.1399 64.1699 59.2299 62.6099 57.6399Z" fill="#FCFC3C"></path>
<path d="M71.7101 63.87C71.7101 63.87 71.6901 63.87 71.6801 63.87C69.2901 63.57 67.2101 62.59 65.6601 61.02L62.5201 57.88C62.5201 57.88 62.4701 57.83 62.4401 57.8C62.3501 57.71 62.3501 57.56 62.4401 57.47C62.5301 57.38 62.6801 57.38 62.7701 57.47L62.8501 57.55C64.3201 59 66.2801 59.91 68.5201 60.19C68.5701 60.19 68.6201 60.22 68.6601 60.26L71.8801 63.48C71.9501 63.55 71.9701 63.66 71.9201 63.75C71.8801 63.83 71.8001 63.88 71.7101 63.88V63.87ZM64.8701 59.57L65.9901 60.69C67.3101 62.03 69.0501 62.92 71.0401 63.3L68.3801 60.64C67.1101 60.47 65.9301 60.11 64.8701 59.57Z" fill="black"></path>
<path d="M68.5 60.4199L71.72 63.6399C72.96 63.7899 74.27 63.7599 75.6 63.5299L72.38 60.3099C71.05 60.5299 69.74 60.5699 68.5 60.4199Z" fill="#FCFC3C"></path>
<path d="M73.25 63.9599C72.72 63.9599 72.2 63.9299 71.69 63.8699C71.64 63.8699 71.59 63.8399 71.55 63.7999L68.33 60.5799C68.26 60.5099 68.24 60.3999 68.29 60.3099C68.34 60.2199 68.43 60.1699 68.53 60.1799C69.74 60.3299 71.03 60.2899 72.34 60.0699C72.41 60.0599 72.49 60.0799 72.54 60.1299L75.76 63.3499C75.82 63.4099 75.84 63.4999 75.82 63.5899C75.79 63.6699 75.72 63.7299 75.64 63.7499C74.83 63.8899 74.03 63.9499 73.26 63.9499L73.25 63.9599ZM71.82 63.4099C72.87 63.5299 73.97 63.5199 75.1 63.3599L72.29 60.5499C71.2 60.7199 70.14 60.7699 69.11 60.6999L71.81 63.3999L71.82 63.4099Z" fill="black"></path>
<path d="M82.71 54.71L85.93 57.93C86.61 57.25 87.22 56.53 87.78 55.8L84.56 52.58C84 53.32 83.38 54.03 82.71 54.71Z" fill="#FCFC3C"></path>
<path d="M85.9299 58.15C85.8699 58.15 85.8099 58.13 85.7699 58.08L82.5499 54.86C82.4599 54.77 82.4599 54.62 82.5499 54.53C83.2099 53.86 83.8299 53.15 84.3799 52.42C84.4199 52.37 84.4799 52.33 84.5499 52.33C84.6199 52.33 84.6799 52.35 84.7299 52.4L87.9499 55.62C88.0299 55.7 88.0399 55.83 87.9699 55.92C87.3999 56.67 86.7699 57.39 86.0999 58.08C86.0599 58.12 85.9999 58.15 85.9399 58.15H85.9299ZM83.0399 54.7L85.9299 57.59C86.4799 57.02 86.9999 56.42 87.4799 55.81L84.5999 52.93C84.1199 53.54 83.5999 54.14 83.0499 54.71L83.0399 54.7Z" fill="black"></path>
<path d="M87.3901 47.42L90.6101 50.64C90.9901 49.57 91.2601 48.5 91.4101 47.45L88.1901 44.23C88.0401 45.28 87.7701 46.35 87.3901 47.42Z" fill="#FCFC3C"></path>
<path d="M90.6 50.8699C90.54 50.8699 90.48 50.8499 90.44 50.7999L87.22 47.5799C87.16 47.5199 87.14 47.4199 87.17 47.3399C87.55 46.2899 87.81 45.2299 87.96 44.1999C87.97 44.1099 88.03 44.0399 88.12 44.0099C88.2 43.9799 88.3 44.0099 88.36 44.0699L91.58 47.2899C91.63 47.3399 91.66 47.4099 91.65 47.4899C91.5 48.5599 91.23 49.6399 90.84 50.7199C90.81 50.7999 90.75 50.8499 90.67 50.8699C90.65 50.8699 90.64 50.8699 90.62 50.8699H90.6ZM87.65 47.3599L90.5 50.2099C90.8 49.3099 91.02 48.4099 91.15 47.5299L88.34 44.7199C88.19 45.5899 87.96 46.4799 87.65 47.3599Z" fill="black"></path>
<path d="M88.1801 44.23L91.4001 47.45C91.6001 46.06 91.5901 44.71 91.3601 43.43L88.1401 40.21C88.3601 41.49 88.3701 42.85 88.1801 44.23Z" fill="#FCFC3C"></path>
<path d="M91.4001 47.6799C91.3401 47.6799 91.2801 47.6599 91.2401 47.6099L88.0201 44.3899C87.9701 44.3399 87.9401 44.2699 87.9501 44.1899C88.1401 42.8199 88.1301 41.4899 87.9101 40.2399C87.8901 40.1399 87.9401 40.0399 88.0301 39.9899C88.1201 39.9399 88.2301 39.9599 88.3001 40.0299L91.5201 43.2499C91.5201 43.2499 91.5801 43.3299 91.5801 43.3699C91.8101 44.6699 91.8201 46.0499 91.6201 47.4699C91.6101 47.5599 91.5501 47.6299 91.4601 47.6599C91.4401 47.6599 91.4101 47.6699 91.3901 47.6699L91.4001 47.6799ZM88.4301 44.1499L91.2301 46.9499C91.3601 45.7699 91.3301 44.6299 91.1501 43.5399L88.4801 40.8699C88.6001 41.9199 88.5801 43.0299 88.4301 44.1499Z" fill="black"></path>
<path d="M84.5701 52.5699L87.7901 55.7899C88.3801 55.0099 88.9101 54.1999 89.3601 53.3799L86.1401 50.1599C85.6801 50.9799 85.1601 51.7899 84.5701 52.5699Z" fill="#FCFC3C"></path>
<path d="M87.7801 56.0199C87.7201 56.0199 87.6601 55.9999 87.6201 55.9499L84.4001 52.7299C84.3201 52.6499 84.3101 52.5199 84.3801 52.4299C84.9601 51.6699 85.4801 50.8699 85.9401 50.0399C85.9801 49.9799 86.0401 49.9299 86.1101 49.9199C86.1801 49.9099 86.2601 49.9299 86.3101 49.9899L89.5301 53.2099C89.6001 53.2799 89.6201 53.3999 89.5701 53.4899C89.1001 54.3299 88.5701 55.1499 87.9801 55.9299C87.9401 55.9799 87.8801 56.0199 87.8101 56.0199C87.8101 56.0199 87.8001 56.0199 87.7901 56.0199H87.7801ZM84.8701 52.5499L87.7501 55.4299C88.2301 54.7799 88.6701 54.0999 89.0601 53.4099L86.1901 50.5399C85.7901 51.2299 85.3501 51.8999 84.8701 52.5499Z" fill="black"></path>
<path d="M86.1401 50.1599L89.3601 53.3799C89.8601 52.4799 90.2801 51.5599 90.6101 50.6399L87.3901 47.4199C87.0601 48.3399 86.6401 49.2599 86.1401 50.1599Z" fill="#FCFC3C"></path>
<path d="M89.3599 53.6099C89.2999 53.6099 89.2399 53.5899 89.1999 53.5399L85.9799 50.3199C85.9099 50.2499 85.8899 50.1299 85.9399 50.0399C86.4299 49.1599 86.8399 48.2499 87.1699 47.3299C87.1999 47.2499 87.2599 47.1999 87.3399 47.1799C87.4199 47.1599 87.4999 47.1799 87.5599 47.2399L90.7799 50.4599C90.8399 50.5199 90.8599 50.6199 90.8299 50.6999C90.4899 51.6399 90.0699 52.5699 89.5699 53.4799C89.5299 53.5399 89.4699 53.5899 89.3999 53.5999C89.3899 53.5999 89.3799 53.5999 89.3699 53.5999L89.3599 53.6099ZM86.4299 50.1199L89.2999 52.9899C89.6999 52.2399 90.0499 51.4699 90.3299 50.6899L87.4799 47.8399C87.1899 48.6099 86.8299 49.3699 86.4299 50.1199Z" fill="black"></path>
<mask id="mask2_7896_50992" style="mask-type:luminance" maskUnits="userSpaceOnUse" x="47" y="11" width="19" height="19">
<path d="M63.8742 27.9031C66.9265 24.8868 66.1312 19.1328 62.0978 15.0513C58.0644 10.9697 52.3203 10.1062 49.2679 13.1225C46.2156 16.1388 47.0109 21.8927 51.0443 25.9743C55.0777 30.0558 60.8218 30.9194 63.8742 27.9031Z" fill="white"></path>
</mask>
<g mask="url(#mask2_7896_50992)">
<path d="M66.9199 16.92L61.6299 10.11H66.9199V16.92Z" fill="#FCFC3C"></path>
<path d="M66.9199 17.24L61.3899 10.11H61.6299L66.9199 16.92V17.24Z" fill="#FCFC3C"></path>
<path d="M66.9199 17.56L61.1399 10.11H61.3899L66.9199 17.24V17.56Z" fill="#FCFB3B"></path>
<path d="M66.9199 17.88L60.8899 10.11H61.1399L66.9199 17.56V17.88Z" fill="#FCFA3B"></path>
<path d="M66.9199 18.2L60.6399 10.11H60.8899L66.9199 17.88V18.2Z" fill="#FCF93A"></path>
<path d="M66.9199 18.51L60.3899 10.11H60.6399L66.9199 18.2V18.51Z" fill="#FCF839"></path>
<path d="M66.9199 18.83L60.1399 10.11H60.3899L66.9199 18.51V18.83Z" fill="#FCF739"></path>
<path d="M66.9199 19.15L59.8999 10.11H60.1399L66.9199 18.83V19.15Z" fill="#FCF638"></path>
<path d="M66.9199 19.47L59.6499 10.11H59.8999L66.9199 19.15V19.47Z" fill="#FCF537"></path>
<path d="M66.9199 19.79L59.3999 10.11H59.6499L66.9199 19.47V19.79Z" fill="#FCF437"></path>
<path d="M66.9199 20.11L59.1499 10.11H59.3999L66.9199 19.79V20.11Z" fill="#FCF336"></path>
<path d="M66.9199 20.43L58.8999 10.11H59.1499L66.9199 20.11V20.43Z" fill="#FCF235"></path>
<path d="M66.9199 20.75L58.6599 10.11H58.8999L66.9199 20.43V20.75Z" fill="#FCF135"></path>
<path d="M66.9199 21.07L58.4099 10.11H58.6599L66.9199 20.75V21.07Z" fill="#FCF034"></path>
<path d="M66.9199 21.39L58.1599 10.11H58.4099L66.9199 21.07V21.39Z" fill="#FCEF34"></path>
<path d="M66.9199 21.71L57.9099 10.11H58.1599L66.9199 21.39V21.71Z" fill="#FCEE33"></path>
<path d="M66.9199 22.03L57.6599 10.11H57.9099L66.9199 21.71V22.03Z" fill="#FCED32"></path>
<path d="M66.9199 22.35L57.4099 10.11H57.6599L66.9199 22.03V22.35Z" fill="#FDEC32"></path>
<path d="M66.9199 22.67L57.1699 10.11H57.4099L66.9199 22.35V22.67Z" fill="#FDEB31"></path>
<path d="M66.9199 22.99L56.9199 10.11H57.1699L66.9199 22.67V22.99Z" fill="#FDEA30"></path>
<path d="M66.9199 23.3L56.6699 10.11H56.9199L66.9199 22.99V23.3Z" fill="#FDE930"></path>
<path d="M66.9199 23.62L56.4199 10.11H56.6699L66.9199 23.3V23.62Z" fill="#FDE82F"></path>
<path d="M66.9199 23.94L56.1699 10.11H56.4199L66.9199 23.62V23.94Z" fill="#FDE72E"></path>
<path d="M66.9199 24.26L55.9299 10.11H56.1699L66.9199 23.94V24.26Z" fill="#FDE62E"></path>
<path d="M66.9199 24.58L55.6799 10.11H55.9299L66.9199 24.26V24.58Z" fill="#FDE52D"></path>
<path d="M66.9199 24.9L55.4299 10.11H55.6799L66.9199 24.58V24.9Z" fill="#FDE42C"></path>
<path d="M66.9199 25.22L55.1799 10.11H55.4299L66.9199 24.9V25.22Z" fill="#FDE32C"></path>
<path d="M66.9199 25.54L54.9299 10.11H55.1799L66.9199 25.22V25.54Z" fill="#FDE22B"></path>
<path d="M66.9199 25.86L54.6799 10.11H54.9299L66.9199 25.54V25.86Z" fill="#FDE12A"></path>
<path d="M66.9199 26.18L54.4399 10.11H54.6799L66.9199 25.86V26.18Z" fill="#FDE02A"></path>
<path d="M66.9199 26.5L54.1899 10.11H54.4399L66.9199 26.18V26.5Z" fill="#FDDF29"></path>
<path d="M66.9199 26.58L66.8099 26.67L53.9399 10.11H54.1899L66.9199 26.5V26.58Z" fill="#FDDE28"></path>
<path d="M66.8099 26.67L66.6499 26.79L53.6899 10.11H53.9399L66.8099 26.67Z" fill="#FDDD28"></path>
<path d="M66.6499 26.79L66.4999 26.91L53.4399 10.11H53.6899L66.6499 26.79Z" fill="#FDDC27"></path>
<path d="M66.5 26.91L66.3399 27.03L53.2 10.11H53.4399L66.5 26.91Z" fill="#FDDB26"></path>
<path d="M66.3399 27.03L66.19 27.15L52.95 10.11H53.2L66.3399 27.03Z" fill="#FDDA26"></path>
<path d="M66.19 27.15L66.0299 27.27L52.7 10.11H52.95L66.19 27.15Z" fill="#FDD925"></path>
<path d="M66.0299 27.27L65.8799 27.39L52.45 10.11H52.7L66.0299 27.27Z" fill="#FDD825"></path>
<path d="M65.8799 27.39L65.72 27.51L52.2 10.11H52.45L65.8799 27.39Z" fill="#FDD724"></path>
<path d="M65.72 27.51L65.57 27.63L51.95 10.11H52.2L65.72 27.51Z" fill="#FDD623"></path>
<path d="M65.57 27.63L65.42 27.75L51.74 10.16L51.81 10.11H51.95L65.57 27.63Z" fill="#FDD523"></path>
<path d="M51.7416 10.1566L51.5837 10.2793L65.2577 27.8696L65.4156 27.7469L51.7416 10.1566Z" fill="#FDD422"></path>
<path d="M51.5969 10.2734L51.439 10.3961L65.113 27.9865L65.2709 27.8637L51.5969 10.2734Z" fill="#FDD321"></path>
<path d="M51.4421 10.3901L51.2842 10.5128L64.9582 28.1032L65.1161 27.9804L51.4421 10.3901Z" fill="#FDD221"></path>
<path d="M51.2795 10.5131L51.1216 10.6359L64.7956 28.2262L64.9535 28.1035L51.2795 10.5131Z" fill="#FDD120"></path>
<path d="M51.1347 10.6298L50.9768 10.7526L64.6508 28.3429L64.8087 28.2202L51.1347 10.6298Z" fill="#FDD01F"></path>
<path d="M50.9719 10.7529L50.814 10.8756L64.488 28.466L64.6459 28.3432L50.9719 10.7529Z" fill="#FDCF1F"></path>
<path d="M50.8171 10.8796L50.6592 11.0023L64.3332 28.5927L64.4911 28.4699L50.8171 10.8796Z" fill="#FECE1E"></path>
<path d="M50.6645 11.0025L50.5066 11.1252L64.1806 28.7156L64.3385 28.5928L50.6645 11.0025Z" fill="#FECC1D"></path>
<path d="M50.5097 11.1193L50.3518 11.2421L64.0258 28.8324L64.1837 28.7097L50.5097 11.1193Z" fill="#FECB1D"></path>
<path d="M50.3471 11.2422L50.1892 11.365L63.8632 28.9553L64.0211 28.8326L50.3471 11.2422Z" fill="#FECA1C"></path>
<path d="M50.2023 11.3591L50.0444 11.4818L63.7184 29.0722L63.8763 28.9494L50.2023 11.3591Z" fill="#FEC91B"></path>
<path d="M50.0395 11.482L49.8816 11.6047L63.5556 29.1951L63.7135 29.0723L50.0395 11.482Z" fill="#FEC81B"></path>
<path d="M49.8947 11.5988L49.7368 11.7216L63.4108 29.3119L63.5687 29.1892L49.8947 11.5988Z" fill="#FEC71A"></path>
<path d="M49.7321 11.7217L49.5742 11.8445L63.2482 29.4348L63.4061 29.3121L49.7321 11.7217Z" fill="#FEC619"></path>
<path d="M49.5773 11.8386L49.4194 11.9613L63.0934 29.5516L63.2513 29.4289L49.5773 11.8386Z" fill="#FEC519"></path>
<path d="M49.4247 11.9615L49.2668 12.0842L62.9408 29.6746L63.0987 29.5518L49.4247 11.9615Z" fill="#FEC418"></path>
<path d="M49.27 12.0783L49.1121 12.201L62.7861 29.7914L62.944 29.6686L49.27 12.0783Z" fill="#FEC317"></path>
<path d="M49.1071 12.2012L48.9492 12.324L62.6232 29.9143L62.7811 29.7916L49.1071 12.2012Z" fill="#FEC217"></path>
<path d="M48.9623 12.318L48.8044 12.4408L62.4784 30.0311L62.6363 29.9084L48.9623 12.318Z" fill="#FEC116"></path>
<path d="M48.8076 12.4349L48.6497 12.5576L62.3237 30.148L62.4816 30.0252L48.8076 12.4349Z" fill="#FEC016"></path>
<path d="M48.645 12.5578L48.4871 12.6805L62.1611 30.2709L62.319 30.1481L48.645 12.5578Z" fill="#FEBF15"></path>
<path d="M48.5002 12.6746L48.3423 12.7974L62.0163 30.3877L62.1742 30.265L48.5002 12.6746Z" fill="#FEBE14"></path>
<path d="M48.3376 12.7975L48.1797 12.9203L61.8537 30.5106L62.0116 30.3879L48.3376 12.7975Z" fill="#FEBD14"></path>
<path d="M48.1928 12.9144L48.0349 13.0371L61.7089 30.6275L61.8668 30.5047L48.1928 12.9144Z" fill="#FEBC13"></path>
<path d="M48.03 13.0373L47.8721 13.16L61.5461 30.7504L61.704 30.6276L48.03 13.0373Z" fill="#FEBB12"></path>
<path d="M47.8754 13.1541L47.7175 13.2769L61.3915 30.8672L61.5494 30.7445L47.8754 13.1541Z" fill="#FEBA12"></path>
<path d="M61.3901 30.88L61.3201 30.93H61.1901L47.5701 13.41L47.7201 13.29L61.3901 30.88Z" fill="#FEB911"></path>
<path d="M60.9399 30.93L47.4099 13.53L47.5699 13.41L61.1899 30.93H60.9399Z" fill="#FEB810"></path>
<path d="M60.69 30.93L47.26 13.65L47.41 13.53L60.94 30.93H60.69Z" fill="#FEB710"></path>
<path d="M60.4399 30.93L47.0999 13.77L47.2599 13.65L60.6899 30.93H60.4399Z" fill="#FEB60F"></path>
<path d="M60.1899 30.93L46.95 13.89L47.0999 13.77L60.4399 30.93H60.1899Z" fill="#FEB50E"></path>
<path d="M59.95 30.93L46.79 14.01L46.95 13.89L60.19 30.93H59.95Z" fill="#FEB40E"></path>
<path d="M59.6999 30.93L46.6399 14.13L46.7899 14.01L59.9499 30.93H59.6999Z" fill="#FEB30D"></path>
<path d="M59.45 30.93L46.48 14.25L46.64 14.13L59.7 30.93H59.45Z" fill="#FEB20C"></path>
<path d="M59.2001 30.93L46.3301 14.37L46.4801 14.25L59.4501 30.93H59.2001Z" fill="#FEB10C"></path>
<path d="M58.95 30.93L46.21 14.53V14.46L46.33 14.37L59.2 30.93H58.95Z" fill="#FEB00B"></path>
<path d="M58.71 30.93L46.21 14.85V14.53L58.95 30.93H58.71Z" fill="#FEAF0A"></path>
<path d="M58.46 30.93L46.21 15.17V14.85L58.71 30.93H58.46Z" fill="#FFAE0A"></path>
<path d="M58.21 30.93L46.21 15.49V15.17L58.46 30.93H58.21Z" fill="#FFAD09"></path>
<path d="M57.96 30.93L46.21 15.81V15.49L58.21 30.93H57.96Z" fill="#FFAC08"></path>
<path d="M57.71 30.9299L46.21 16.1299V15.8099L57.96 30.9299H57.71Z" fill="#FFAB08"></path>
<path d="M57.46 30.93L46.21 16.45V16.13L57.71 30.93H57.46Z" fill="#FFAA07"></path>
<path d="M57.22 30.93L46.21 16.77V16.45L57.46 30.93H57.22Z" fill="#FFA907"></path>
<path d="M56.97 30.93L46.21 17.09V16.77L57.22 30.93H56.97Z" fill="#FFA806"></path>
<path d="M56.72 30.93L46.21 17.41V17.09L56.97 30.93H56.72Z" fill="#FFA705"></path>
<path d="M56.47 30.93L46.21 17.73V17.41L56.72 30.93H56.47Z" fill="#FFA605"></path>
<path d="M56.22 30.93L46.21 18.04V17.73L56.47 30.93H56.22Z" fill="#FFA504"></path>
<path d="M55.98 30.93L46.21 18.36V18.04L56.22 30.93H55.98Z" fill="#FFA403"></path>
<path d="M55.73 30.93L46.21 18.68V18.36L55.98 30.93H55.73Z" fill="#FFA303"></path>
<path d="M55.48 30.9299L46.21 18.9999V18.6799L55.73 30.9299H55.48Z" fill="#FFA202"></path>
<path d="M55.23 30.93L46.21 19.32V19L55.48 30.93H55.23Z" fill="#FFA101"></path>
<path d="M54.98 30.9299L46.21 19.6399V19.3199L55.23 30.9299H54.98Z" fill="#FFA001"></path>
<path d="M54.73 30.93L46.21 19.96V19.64L54.98 30.93H54.73Z" fill="#FF9F00"></path>
<path d="M46.21 19.96L54.73 30.93H46.21V19.96Z" fill="#FF9F00"></path>
</g>
<path d="M59.1799 29.95C58.7299 29.95 58.2599 29.91 57.7899 29.84C55.3199 29.47 52.8599 28.16 50.8699 26.15C46.7499 21.98 45.9499 16.07 49.0899 12.97C52.2299 9.86995 58.1299 10.74 62.2499 14.9C66.3699 19.07 67.1699 24.98 64.0299 28.08C62.7899 29.3 61.0999 29.95 59.1699 29.95H59.1799ZM53.9699 11.56C52.2199 11.56 50.6099 12.12 49.4299 13.29C46.4699 16.21 47.2699 21.83 51.2099 25.82C53.1299 27.76 55.4899 29.02 57.8599 29.38C60.2099 29.73 62.2899 29.15 63.7099 27.75C66.6699 24.83 65.8699 19.21 61.9299 15.22C59.5699 12.83 56.5999 11.56 53.9699 11.56Z" fill="black"></path>
<path d="M60.0398 17.1C62.9598 20.06 63.6798 24.15 61.7998 26.56C61.9398 26.45 62.0698 26.34 62.1898 26.22C64.5398 23.9 63.9298 19.47 60.8198 16.32C57.7098 13.18 53.2898 12.51 50.9398 14.83C50.7998 14.97 50.6698 15.11 50.5498 15.27C52.9698 13.37 57.0998 14.12 60.0398 17.1Z" fill="black"></path>
<path d="M61.7998 26.79C61.7398 26.79 61.6798 26.77 61.6398 26.72C61.5598 26.64 61.5498 26.5 61.6198 26.41C63.4598 24.05 62.7098 20.12 59.8798 17.26C57.0698 14.41 53.0398 13.62 50.6998 15.45C50.6098 15.52 50.4798 15.51 50.3898 15.43C50.3098 15.35 50.2998 15.21 50.3698 15.12C50.4998 14.96 50.6398 14.8 50.7798 14.66C53.2198 12.25 57.7998 12.92 60.9898 16.15C64.1798 19.38 64.7898 23.97 62.3598 26.38C62.2398 26.5 62.0998 26.62 61.9498 26.74C61.9098 26.77 61.8598 26.79 61.8098 26.79H61.7998ZM53.7998 13.98C55.9298 13.98 58.3098 15.01 60.2098 16.93C62.5498 19.3 63.5298 22.38 62.8898 24.83C64.0198 22.47 63.1798 19.04 60.6498 16.48C58.0998 13.9 54.6498 13.03 52.2798 14.17C52.7598 14.04 53.2698 13.98 53.7998 13.98Z" fill="black"></path>
<mask id="mask3_7896_50992" style="mask-type:luminance" maskUnits="userSpaceOnUse" x="49" y="14" width="14" height="14">
<path d="M52.3098 24.7299C55.2498 27.7099 59.3698 28.4599 61.7998 26.5599C63.6798 24.1499 62.9598 20.06 60.0398 17.1C57.0998 14.12 52.9798 13.37 50.5498 15.27C48.6698 17.68 49.3898 21.7699 52.3098 24.7299Z" fill="white"></path>
</mask>
<g mask="url(#mask3_7896_50992)">
<path d="M48.6697 18.02L60.3597 28.46H48.6697V18.02Z" fill="#FCFC3C"></path>
<path d="M48.6697 17.91L60.4897 28.46H60.3597L48.6697 18.02V17.91Z" fill="#FCFC3C"></path>
<path d="M48.6697 17.79L60.5597 28.41L60.5197 28.46H60.4897L48.6697 17.91V17.79Z" fill="#FCFB3B"></path>
<path d="M48.6697 17.67L60.6197 28.34L60.5597 28.41L48.6697 17.79V17.67Z" fill="#FCFA3B"></path>
<path d="M48.6697 17.5599L60.6797 28.2799L60.6197 28.3399L48.6697 17.6699V17.5599Z" fill="#FCF93A"></path>
<path d="M48.6697 17.4399L60.7397 28.2099L60.6797 28.2799L48.6697 17.5599V17.4399Z" fill="#FCF839"></path>
<path d="M48.6697 17.33L60.7897 28.15L60.7397 28.21L48.6697 17.44V17.33Z" fill="#FCF739"></path>
<path d="M48.6697 17.21L60.8497 28.08L60.7897 28.15L48.6697 17.33V17.21Z" fill="#FCF638"></path>
<path d="M48.6697 17.1L60.9097 28.02L60.8497 28.08L48.6697 17.21V17.1Z" fill="#FCF537"></path>
<path d="M48.6697 16.98L60.9697 27.96L60.9097 28.02L48.6697 17.1V16.98Z" fill="#FCF437"></path>
<path d="M48.6697 16.91L48.6897 16.88L61.0197 27.89L60.9697 27.96L48.6697 16.98V16.91Z" fill="#FCF336"></path>
<path d="M48.754 16.8196L48.6941 16.8867L61.0245 27.8959L61.0844 27.8288L48.754 16.8196Z" fill="#FCF235"></path>
<path d="M48.8092 16.7549L48.7493 16.822L61.0797 27.8312L61.1396 27.7641L48.8092 16.7549Z" fill="#FCF135"></path>
<path d="M48.8671 16.6835L48.8071 16.7506L61.1375 27.7598L61.1975 27.6927L48.8671 16.6835Z" fill="#FCF034"></path>
<path d="M48.9323 16.6188L48.8723 16.6859L61.2027 27.6951L61.2627 27.628L48.9323 16.6188Z" fill="#FCEF34"></path>
<path d="M48.9733 16.5548L48.9133 16.6219L61.2437 27.6311L61.3037 27.564L48.9733 16.5548Z" fill="#FCEE33"></path>
<path d="M49.0385 16.5001L48.9785 16.5673L61.3089 27.5764L61.3689 27.5093L49.0385 16.5001Z" fill="#FCED32"></path>
<path d="M49.1036 16.4354L49.0437 16.5026L61.3741 27.5117L61.434 27.4446L49.1036 16.4354Z" fill="#FDEC32"></path>
<path d="M49.1615 16.364L49.1016 16.4312L61.432 27.4403L61.4919 27.3732L49.1615 16.364Z" fill="#FDEB31"></path>
<path d="M49.2098 16.3068L49.1499 16.3739L61.4803 27.3831L61.5403 27.3159L49.2098 16.3068Z" fill="#FDEA30"></path>
<path d="M49.2677 16.2354L49.2078 16.3025L61.5382 27.3117L61.5981 27.2445L49.2677 16.2354Z" fill="#FDE930"></path>
<path d="M49.3329 16.1707L49.2729 16.2378L61.6034 27.247L61.6633 27.1798L49.3329 16.1707Z" fill="#FDE82F"></path>
<path d="M49.3807 16.0992L49.3208 16.1664L61.6512 27.1756L61.7111 27.1084L49.3807 16.0992Z" fill="#FDE72E"></path>
<path d="M49.4391 16.042L49.3792 16.1091L61.7096 27.1183L61.7695 27.0512L49.4391 16.042Z" fill="#FDE62E"></path>
<path d="M49.497 15.9806L49.437 16.0477L61.7674 27.0569L61.8274 26.9898L49.497 15.9806Z" fill="#FDE52D"></path>
<path d="M49.5621 15.9159L49.5022 15.983L61.8326 26.9922L61.8925 26.9251L49.5621 15.9159Z" fill="#FDE42C"></path>
<path d="M49.6173 15.8512L49.5574 15.9183L61.8878 26.9275L61.9477 26.8604L49.6173 15.8512Z" fill="#FDE32C"></path>
<path d="M49.6683 15.7874L49.6084 15.8545L61.9388 26.8637L61.9987 26.7965L49.6683 15.7874Z" fill="#FDE22B"></path>
<path d="M49.7335 15.7225L49.6736 15.7897L62.004 26.7988L62.0639 26.7317L49.7335 15.7225Z" fill="#FDE12A"></path>
<path d="M49.7914 15.6512L49.7314 15.7184L62.0619 26.7276L62.1218 26.6604L49.7914 15.6512Z" fill="#FDE02A"></path>
<path d="M49.8466 15.5864L49.7866 15.6536L62.117 26.6627L62.177 26.5956L49.8466 15.5864Z" fill="#FDDF29"></path>
<path d="M49.8976 15.5326L49.8376 15.5997L62.1681 26.6089L62.228 26.5418L49.8976 15.5326Z" fill="#FDDE28"></path>
<path d="M49.9628 15.4679L49.9028 15.535L62.2332 26.5442L62.2932 26.4771L49.9628 15.4679Z" fill="#FDDD28"></path>
<path d="M50.0182 15.4031L49.9583 15.4702L62.2887 26.4794L62.3486 26.4123L50.0182 15.4031Z" fill="#FDDC27"></path>
<path d="M50.0758 15.3318L50.0159 15.3989L62.3463 26.4081L62.4062 26.341L50.0758 15.3318Z" fill="#FDDB26"></path>
<path d="M50.1344 15.2745L50.0745 15.3417L62.4049 26.3509L62.4648 26.2837L50.1344 15.2745Z" fill="#FDDA26"></path>
<path d="M50.192 15.2031L50.1321 15.2703L62.4625 26.2794L62.5224 26.2123L50.192 15.2031Z" fill="#FDD925"></path>
<path d="M50.2474 15.1384L50.1875 15.2056L62.5179 26.2147L62.5778 26.1476L50.2474 15.1384Z" fill="#FDD825"></path>
<path d="M50.2985 15.0845L50.2385 15.1516L62.5689 26.1608L62.6289 26.0937L50.2985 15.0845Z" fill="#FDD724"></path>
<path d="M50.3637 15.0198L50.3037 15.0869L62.6341 26.0961L62.6941 26.029L50.3637 15.0198Z" fill="#FDD623"></path>
<path d="M50.4188 14.9551L50.3589 15.0222L62.6893 26.0314L62.7492 25.9643L50.4188 14.9551Z" fill="#FDD523"></path>
<path d="M50.4764 14.8837L50.4165 14.9508L62.7469 25.96L62.8069 25.8928L50.4764 14.8837Z" fill="#FDD422"></path>
<path d="M50.535 14.8264L50.4751 14.8936L62.8055 25.9027L62.8654 25.8356L50.535 14.8264Z" fill="#FDD321"></path>
<path d="M50.5929 14.755L50.533 14.8221L62.8634 25.8313L62.9233 25.7642L50.5929 14.755Z" fill="#FDD221"></path>
<path d="M50.6481 14.6903L50.5881 14.7574L62.9185 25.7666L62.9785 25.6995L50.6481 14.6903Z" fill="#FDD120"></path>
<path d="M50.7057 14.6189L50.6458 14.686L62.9762 25.6952L63.0361 25.6281L50.7057 14.6189Z" fill="#FDD01F"></path>
<path d="M50.7643 14.5717L50.7043 14.6388L63.0348 25.648L63.0947 25.5808L50.7643 14.5717Z" fill="#FDCF1F"></path>
<path d="M50.8195 14.507L50.7595 14.5741L63.0899 25.5833L63.1499 25.5161L50.8195 14.507Z" fill="#FECE1E"></path>
<path d="M50.8773 14.4356L50.8174 14.5027L63.1478 25.5119L63.2077 25.4447L50.8773 14.4356Z" fill="#FECC1D"></path>
<path d="M50.9425 14.3709L50.8826 14.438L63.213 25.4472L63.2729 25.38L50.9425 14.3709Z" fill="#FECB1D"></path>
<path d="M50.9935 14.307L50.9336 14.3741L63.264 25.3833L63.3239 25.3162L50.9935 14.307Z" fill="#FECA1C"></path>
<path d="M51.0487 14.2422L50.9888 14.3093L63.3192 25.3185L63.3791 25.2514L51.0487 14.2422Z" fill="#FEC91B"></path>
<path d="M51.1066 14.1709L51.0466 14.238L63.377 25.2472L63.437 25.1801L51.1066 14.1709Z" fill="#FEC81B"></path>
<path d="M51.1718 14.1161L51.1118 14.1832L63.4422 25.1924L63.5022 25.1253L51.1718 14.1161Z" fill="#FEC71A"></path>
<path d="M51.2128 14.0522L51.1528 14.1194L63.4832 25.1286L63.5432 25.0614L51.2128 14.0522Z" fill="#FEC619"></path>
<path d="M51.278 13.9876L51.218 14.0547L63.5484 25.0639L63.6084 24.9967L51.278 13.9876Z" fill="#FEC519"></path>
<path d="M51.3431 13.9227L51.2832 13.9899L63.6136 24.999L63.6736 24.9319L51.3431 13.9227Z" fill="#FEC418"></path>
<path d="M51.3396 13.92L51.3896 13.86L63.6796 24.83V24.92L63.6596 24.93L51.3396 13.92Z" fill="#FEC317"></path>
<path d="M51.3896 13.86L51.4496 13.8L63.6796 24.71V24.83L51.3896 13.86Z" fill="#FEC217"></path>
<path d="M51.4497 13.8L51.5097 13.73L63.6797 24.6V24.71L51.4497 13.8Z" fill="#FEC116"></path>
<path d="M51.5098 13.73L51.5698 13.67L63.6798 24.48V24.6L51.5098 13.73Z" fill="#FEC016"></path>
<path d="M51.5696 13.67L51.6196 13.6L63.6796 24.37V24.48L51.5696 13.67Z" fill="#FEBF15"></path>
<path d="M51.6196 13.6L51.6796 13.54L63.6796 24.25V24.37L51.6196 13.6Z" fill="#FEBE14"></path>
<path d="M51.6797 13.54L51.7397 13.47L63.6797 24.13V24.25L51.6797 13.54Z" fill="#FEBD14"></path>
<path d="M51.7397 13.47L51.7997 13.41L63.6797 24.02V24.13L51.7397 13.47Z" fill="#FEBC13"></path>
<path d="M51.7996 13.41L51.8296 13.37H51.8796L63.6796 23.9V24.02L51.7996 13.41Z" fill="#FEBB12"></path>
<path d="M52.0096 13.37L63.6796 23.79V23.9L51.8796 13.37H52.0096Z" fill="#FEBA12"></path>
<path d="M52.1398 13.37L63.6798 23.67V23.79L52.0098 13.37H52.1398Z" fill="#FEB911"></path>
<path d="M52.2696 13.37L63.6796 23.56V23.67L52.1396 13.37H52.2696Z" fill="#FEB810"></path>
<path d="M52.3998 13.37L63.6798 23.44V23.56L52.2698 13.37H52.3998Z" fill="#FEB710"></path>
<path d="M52.5197 13.37L63.6797 23.32V23.44L52.3997 13.37H52.5197Z" fill="#FEB60F"></path>
<path d="M52.6498 13.37L63.6798 23.21V23.32L52.5198 13.37H52.6498Z" fill="#FEB50E"></path>
<path d="M52.7797 13.37L63.6797 23.09V23.21L52.6497 13.37H52.7797Z" fill="#FEB40E"></path>
<path d="M52.9098 13.37L63.6798 22.98V23.09L52.7798 13.37H52.9098Z" fill="#FEB30D"></path>
<path d="M53.0397 13.37L63.6797 22.86V22.98L52.9097 13.37H53.0397Z" fill="#FEB20C"></path>
<path d="M53.1698 13.37L63.6798 22.75V22.86L53.0398 13.37H53.1698Z" fill="#FEB10C"></path>
<path d="M53.2997 13.37L63.6797 22.63V22.75L53.1697 13.37H53.2997Z" fill="#FEB00B"></path>
<path d="M53.4296 13.37L63.6796 22.52V22.63L53.2996 13.37H53.4296Z" fill="#FEAF0A"></path>
<path d="M53.5597 13.37L63.6797 22.4V22.52L53.4297 13.37H53.5597Z" fill="#FFAE0A"></path>
<path d="M53.6896 13.37L63.6796 22.28V22.4L53.5596 13.37H53.6896Z" fill="#FFAD09"></path>
<path d="M53.8197 13.37L63.6797 22.17V22.28L53.6897 13.37H53.8197Z" fill="#FFAC08"></path>
<path d="M53.9496 13.37L63.6796 22.05V22.17L53.8196 13.37H53.9496Z" fill="#FFAB08"></path>
<path d="M54.0797 13.37L63.6797 21.94V22.05L53.9497 13.37H54.0797Z" fill="#FFAA07"></path>
<path d="M54.2096 13.37L63.6796 21.82V21.94L54.0796 13.37H54.2096Z" fill="#FFA907"></path>
<path d="M54.3397 13.37L63.6797 21.71V21.82L54.2097 13.37H54.3397Z" fill="#FFA806"></path>
<path d="M54.4696 13.37L63.6796 21.59V21.71L54.3396 13.37H54.4696Z" fill="#FFA705"></path>
<path d="M54.5997 13.37L63.6797 21.47V21.59L54.4697 13.37H54.5997Z" fill="#FFA605"></path>
<path d="M54.7296 13.37L63.6796 21.36V21.47L54.5996 13.37H54.7296Z" fill="#FFA504"></path>
<path d="M54.8597 13.37L63.6797 21.24V21.36L54.7297 13.37H54.8597Z" fill="#FFA403"></path>
<path d="M54.9896 13.37L63.6796 21.13V21.24L54.8596 13.37H54.9896Z" fill="#FFA303"></path>
<path d="M55.1097 13.37L63.6797 21.01V21.13L54.9897 13.37H55.1097Z" fill="#FFA202"></path>
<path d="M55.2396 13.37L63.6796 20.9V21.01L55.1096 13.37H55.2396Z" fill="#FFA101"></path>
<path d="M55.3697 13.37L63.6797 20.78V20.9L55.2397 13.37H55.3697Z" fill="#FFA001"></path>
<path d="M55.4996 13.37L63.6796 20.67V20.78L55.3696 13.37H55.4996Z" fill="#FF9F00"></path>
<path d="M63.6798 20.67L55.4998 13.37H63.6798V20.67Z" fill="#FF9F00"></path>
</g>
<path d="M58.5499 27.84C56.4199 27.84 54.0399 26.81 52.1399 24.89C49.1499 21.86 48.3799 17.66 50.3699 15.12C50.3799 15.11 50.3899 15.09 50.4099 15.08C52.9699 13.07 57.1799 13.87 60.2099 16.93C63.1999 19.96 63.9699 24.16 61.9799 26.7C61.9699 26.71 61.9599 26.73 61.9399 26.74C60.9899 27.49 59.8099 27.84 58.5499 27.84ZM50.7199 15.43C48.8999 17.79 49.6599 21.71 52.4799 24.56C55.2799 27.4 59.2999 28.2 61.6399 26.39C63.4599 24.03 62.6999 20.11 59.8799 17.26C57.0799 14.42 53.0599 13.62 50.7199 15.43Z" fill="black"></path>
<path d="M48.0898 21.45L46.0198 23.52C46.2398 24.11 46.5198 24.69 46.8498 25.27L48.9198 23.2C48.5898 22.63 48.3198 22.04 48.0898 21.45Z" fill="#FCFC3C"></path>
<path d="M46.8399 25.5C46.8399 25.5 46.8199 25.5 46.8099 25.5C46.7399 25.5 46.6699 25.45 46.6399 25.39C46.3099 24.81 46.0299 24.21 45.7999 23.61C45.7699 23.52 45.7899 23.43 45.8499 23.36L47.9199 21.29C47.9799 21.23 48.0599 21.21 48.1299 21.23C48.2099 21.25 48.2699 21.3 48.2999 21.38C48.5199 21.96 48.7899 22.54 49.1099 23.09C49.1599 23.18 49.1499 23.3 49.0699 23.37L46.9999 25.44C46.9999 25.44 46.8999 25.51 46.8399 25.51V25.5ZM46.2799 23.58C46.4499 24.02 46.6599 24.46 46.8899 24.89L48.6199 23.16C48.3899 22.74 48.1799 22.31 47.9999 21.87L46.2799 23.59V23.58Z" fill="black"></path>
<path d="M48.9098 23.1899L46.8398 25.2599C47.1398 25.7799 47.4798 26.2999 47.8698 26.7999L49.9398 24.7299C49.5498 24.2299 49.2098 23.7199 48.9098 23.1899Z" fill="#FCFC3C"></path>
<path d="M47.8699 27.0399C47.8699 27.0399 47.8699 27.0399 47.8599 27.0399C47.7899 27.0399 47.7299 26.9999 47.6899 26.9499C47.2999 26.4499 46.9499 25.9199 46.6399 25.3799C46.5899 25.2899 46.5999 25.1699 46.6799 25.0999L48.7499 23.0299C48.7999 22.9799 48.8699 22.9499 48.9499 22.9599C49.0199 22.9599 49.0899 23.0099 49.1199 23.0699C49.4199 23.5899 49.7599 24.0999 50.1299 24.5799C50.1999 24.6699 50.1899 24.7999 50.1099 24.8899L48.0399 26.9599C48.0399 26.9599 47.9399 27.0299 47.8799 27.0299L47.8699 27.0399ZM47.1299 25.3099C47.3599 25.6999 47.6199 26.0899 47.8999 26.4599L49.6399 24.7199C49.3599 24.3499 49.0999 23.9699 48.8699 23.5799L47.1399 25.3099H47.1299Z" fill="black"></path>
<path d="M47.54 19.4299L45.47 21.4999C45.58 22.1699 45.77 22.8499 46.02 23.5199L48.09 21.4499C47.84 20.7799 47.65 20.0999 47.54 19.4299Z" fill="#FCFC3C"></path>
<path d="M46.0098 23.75C46.0098 23.75 45.9798 23.75 45.9598 23.75C45.8798 23.73 45.8198 23.68 45.7898 23.6C45.5298 22.92 45.3398 22.22 45.2298 21.53C45.2198 21.46 45.2398 21.38 45.2898 21.33L47.3598 19.26C47.4198 19.2 47.5098 19.18 47.5998 19.2C47.6798 19.23 47.7398 19.3 47.7598 19.38C47.8698 20.04 48.0498 20.7 48.2998 21.36C48.3298 21.45 48.3098 21.54 48.2498 21.61L46.1798 23.68C46.1798 23.68 46.0798 23.75 46.0198 23.75H46.0098ZM45.7098 21.58C45.7998 22.09 45.9298 22.59 46.1098 23.1L47.8198 21.39C47.6398 20.9 47.4998 20.4 47.3898 19.9L45.7098 21.58Z" fill="black"></path>
<path d="M51.0399 25.98C50.6399 25.58 50.2799 25.16 49.9399 24.73L47.8699 26.8C48.1999 27.23 48.5699 27.65 48.9699 28.05C49.0099 28.09 49.0499 28.12 49.0799 28.16L51.1499 26.09C51.1499 26.09 51.0699 26.02 51.0399 25.98Z" fill="#FCFC3C"></path>
<path d="M49.0799 28.4C49.0199 28.4 48.9599 28.38 48.9199 28.33L48.8799 28.29C48.8799 28.29 48.8299 28.24 48.8099 28.22C48.4199 27.82 48.0399 27.4 47.6999 26.95C47.6299 26.86 47.6399 26.73 47.7199 26.64L49.7899 24.57C49.7899 24.57 49.8999 24.5 49.9699 24.5C50.0399 24.5 50.0999 24.54 50.1399 24.59C50.4699 25.02 50.8399 25.44 51.2199 25.82C51.2399 25.84 51.2599 25.86 51.2799 25.88L51.3299 25.93C51.3299 25.93 51.3999 26.03 51.3999 26.09C51.3999 26.15 51.3799 26.21 51.3299 26.26L49.2599 28.33C49.2599 28.33 49.1599 28.4 49.0999 28.4H49.0799ZM48.1799 26.83C48.4599 27.18 48.7599 27.53 49.0799 27.85L50.8299 26.1C50.5199 25.78 50.2099 25.44 49.9299 25.09L48.1899 26.83H48.1799Z" fill="black"></path>
<path d="M63.8699 27.91C62.9499 28.82 61.7899 29.37 60.4999 29.59L58.4299 31.66C59.7199 31.44 60.8799 30.88 61.7999 29.98L63.8699 27.91Z" fill="#FCFC3C"></path>
<path d="M58.4299 31.91C58.3399 31.91 58.2599 31.86 58.2199 31.78C58.1699 31.69 58.1899 31.58 58.2599 31.51L60.3299 29.44C60.3299 29.44 60.4099 29.38 60.4499 29.38C61.7399 29.16 62.8299 28.61 63.6899 27.76C63.7799 27.67 63.9299 27.67 64.0199 27.76C64.1099 27.85 64.1099 28 64.0199 28.09L61.9499 30.16C61.0299 31.07 59.8299 31.67 58.4599 31.91C58.4499 31.91 58.4299 31.91 58.4199 31.91H58.4299ZM60.6199 29.81L59.1699 31.26C60.1199 30.98 60.9499 30.5 61.6299 29.82L62.0699 29.38C61.6099 29.57 61.1199 29.72 60.6099 29.81H60.6199Z" fill="black"></path>
<path d="M49.2599 13.13L47.1899 15.2C46.1699 16.21 45.5799 17.53 45.3999 19L47.4699 16.93C47.6499 15.47 48.2399 14.15 49.2599 13.13Z" fill="#FCFC3C"></path>
<path d="M45.39 19.23C45.39 19.23 45.32 19.23 45.29 19.21C45.2 19.17 45.15 19.07 45.16 18.97C45.35 17.41 46 16.05 47.02 15.04L49.04 13.02C49.04 13.02 49.07 12.99 49.09 12.97C49.18 12.88 49.33 12.88 49.42 12.97C49.51 13.06 49.51 13.21 49.42 13.3L49.37 13.35C48.45 14.28 47.87 15.53 47.69 16.96C47.69 17.01 47.66 17.06 47.62 17.1L45.55 19.17C45.55 19.17 45.45 19.24 45.39 19.24V19.23ZM47.74 14.98L47.35 15.37C46.56 16.15 46.01 17.16 45.75 18.32L47.25 16.82C47.34 16.17 47.5 15.55 47.75 14.98H47.74Z" fill="black"></path>
<path d="M47.4699 16.92L45.3999 18.99C45.2999 19.79 45.3299 20.63 45.4699 21.49L47.5399 19.42C47.3999 18.56 47.3699 17.72 47.4699 16.92Z" fill="#FCFC3C"></path>
<path d="M45.4599 21.73C45.4599 21.73 45.4099 21.73 45.3899 21.72C45.3099 21.69 45.2499 21.62 45.2299 21.54C45.0799 20.65 45.0599 19.79 45.1599 18.97C45.1599 18.92 45.1899 18.87 45.2299 18.83L47.2999 16.76C47.3699 16.69 47.4799 16.67 47.5699 16.72C47.6599 16.76 47.7099 16.86 47.6999 16.96C47.5999 17.73 47.6299 18.55 47.7699 19.4C47.7799 19.47 47.7599 19.55 47.7099 19.6L45.6399 21.67C45.6399 21.67 45.5399 21.74 45.4799 21.74L45.4599 21.73ZM45.6099 19.11C45.5399 19.72 45.5499 20.36 45.6199 21.01L47.2799 19.35C47.1799 18.73 47.1499 18.13 47.1799 17.54L45.6099 19.11Z" fill="black"></path>
<path d="M51.1498 26.09L49.0798 28.16C49.5198 28.6 49.9798 29 50.4598 29.35L52.5298 27.28C52.0598 26.92 51.5898 26.52 51.1498 26.09Z" fill="#FCFC3C"></path>
<path d="M50.4599 29.6001C50.4599 29.6001 50.3599 29.5801 50.3199 29.5501C49.8299 29.1801 49.3599 28.7701 48.9199 28.3301C48.8799 28.2901 48.8499 28.2301 48.8499 28.1701C48.8499 28.1101 48.8699 28.0501 48.9199 28.0101L50.9899 25.9401C51.0799 25.8501 51.2299 25.8501 51.3199 25.9401C51.7499 26.3601 52.1999 26.7601 52.6699 27.1201C52.7199 27.1601 52.7599 27.2201 52.7599 27.2901C52.7599 27.3601 52.7399 27.4201 52.6899 27.4701L50.6199 29.5401C50.6199 29.5401 50.5199 29.6101 50.4599 29.6101V29.6001ZM49.4099 28.1701C49.7399 28.4801 50.0799 28.7801 50.4399 29.0601L52.1799 27.3201C51.8299 27.0401 51.4899 26.7401 51.1599 26.4301L49.4199 28.1701H49.4099Z" fill="black"></path>
<path d="M55.8498 29.11L53.7798 31.18C54.4698 31.43 55.1598 31.6 55.8398 31.69L57.9098 29.62C57.2298 29.52 56.5398 29.35 55.8498 29.11Z" fill="#FCFC3C"></path>
<path d="M55.8397 31.93C55.8397 31.93 55.8197 31.93 55.8097 31.93C55.1197 31.83 54.4097 31.66 53.7097 31.4C53.6397 31.37 53.5797 31.31 53.5597 31.23C53.5397 31.15 53.5597 31.07 53.6197 31.01L55.6897 28.94C55.7497 28.88 55.8497 28.86 55.9297 28.89C56.5997 29.13 57.2797 29.3 57.9397 29.39C58.0297 29.4 58.0997 29.46 58.1297 29.55C58.1597 29.63 58.1297 29.73 58.0697 29.79L55.9997 31.86C55.9997 31.86 55.8997 31.93 55.8397 31.93ZM54.2097 31.08C54.7297 31.25 55.2497 31.37 55.7597 31.45L57.4297 29.78C56.9297 29.69 56.4197 29.55 55.9197 29.38L54.2097 31.09V31.08Z" fill="black"></path>
<path d="M57.9098 29.62L55.8398 31.69C56.7398 31.82 57.6098 31.81 58.4398 31.67L60.5098 29.6C59.6898 29.74 58.8098 29.75 57.9098 29.62Z" fill="#FCFC3C"></path>
<path d="M57.0899 32.02C56.6699 32.02 56.2399 31.99 55.8099 31.93C55.7199 31.92 55.6499 31.86 55.6199 31.77C55.5899 31.69 55.6199 31.59 55.6799 31.53L57.7499 29.46C57.7999 29.41 57.8799 29.38 57.9499 29.39C58.8299 29.51 59.6799 29.51 60.4699 29.37C60.5699 29.35 60.6699 29.4 60.7199 29.49C60.7699 29.58 60.7499 29.69 60.6799 29.76L58.6099 31.83C58.6099 31.83 58.5299 31.89 58.4899 31.89C58.0399 31.97 57.5799 32.01 57.0999 32.01L57.0899 32.02ZM56.3399 31.52C57.0199 31.58 57.6899 31.56 58.3199 31.46L59.8599 29.92C59.2599 29.97 58.6299 29.96 57.9899 29.87L56.3399 31.52Z" fill="black"></path>
<path d="M52.53 27.29L50.46 29.36C50.97 29.74 51.49 30.08 52.02 30.37L54.09 28.3C53.56 28.01 53.04 27.67 52.53 27.29Z" fill="#FCFC3C"></path>
<path d="M52.01 30.61C52.01 30.61 51.93 30.61 51.9 30.58C51.35 30.28 50.82 29.93 50.32 29.55C50.27 29.51 50.23 29.45 50.23 29.38C50.23 29.31 50.25 29.25 50.3 29.2L52.37 27.13C52.45 27.05 52.58 27.04 52.67 27.11C53.16 27.48 53.67 27.81 54.2 28.11C54.26 28.15 54.31 28.21 54.32 28.28C54.33 28.35 54.31 28.43 54.25 28.48L52.18 30.55C52.18 30.55 52.08 30.62 52.02 30.62L52.01 30.61ZM50.81 29.34C51.18 29.61 51.57 29.86 51.97 30.09L53.7 28.36C53.3 28.13 52.92 27.87 52.55 27.6L50.81 29.34Z" fill="black"></path>
<path d="M54.0898 28.3L52.0198 30.3701C52.5998 30.6901 53.1898 30.96 53.7898 31.17L55.8598 29.1C55.2698 28.89 54.6698 28.62 54.0898 28.3Z" fill="#FCFC3C"></path>
<path d="M53.7798 31.41C53.7798 31.41 53.7298 31.41 53.6998 31.4C53.0898 31.18 52.4798 30.91 51.8998 30.58C51.8398 30.54 51.7898 30.48 51.7798 30.41C51.7698 30.34 51.7898 30.26 51.8498 30.21L53.9198 28.14C53.9898 28.07 54.1098 28.05 54.1998 28.1C54.7598 28.41 55.3498 28.68 55.9298 28.89C55.9998 28.92 56.0598 28.98 56.0798 29.06C56.0998 29.14 56.0798 29.22 56.0198 29.28L53.9498 31.35C53.9498 31.35 53.8498 31.42 53.7898 31.42L53.7798 31.41ZM52.3998 30.32C52.8298 30.55 53.2798 30.74 53.7198 30.91L55.4298 29.2C54.9898 29.03 54.5498 28.82 54.1198 28.59L52.3898 30.32H52.3998Z" fill="black"></path>
<path d="M39.5699 22.3399C39.5699 18.0899 41.3299 14.6399 43.5099 14.6399C41.3299 14.6399 39.5699 11.1899 39.5699 6.93994C39.5699 11.1899 37.8099 14.6399 35.6299 14.6399C37.8099 14.6399 39.5699 18.0899 39.5699 22.3399Z" fill="white"></path>
<path d="M39.5699 22.57C39.4399 22.57 39.3399 22.47 39.3399 22.34C39.3399 18.22 37.6799 14.87 35.6299 14.87C35.4999 14.87 35.3999 14.77 35.3999 14.64C35.3999 14.51 35.4999 14.41 35.6299 14.41C37.6699 14.41 39.3399 11.06 39.3399 6.93996C39.3399 6.80996 39.4399 6.70996 39.5699 6.70996C39.6999 6.70996 39.7999 6.80996 39.7999 6.93996C39.7999 11.06 41.4599 14.41 43.5099 14.41C43.6399 14.41 43.7399 14.51 43.7399 14.64C43.7399 14.77 43.6399 14.87 43.5099 14.87C41.4699 14.87 39.7999 18.22 39.7999 22.34C39.7999 22.47 39.6999 22.57 39.5699 22.57ZM36.6599 14.64C38.0299 15.28 39.1199 17.17 39.5699 19.68C40.0299 17.18 41.1099 15.28 42.4799 14.64C41.1099 14 40.0199 12.11 39.5699 9.59996C39.1099 12.1 38.0299 14 36.6599 14.64Z" fill="black"></path>
<path d="M78.22 38.0799C78.22 33.8299 79.98 30.3799 82.16 30.3799C79.98 30.3799 78.22 26.9299 78.22 22.6799C78.22 26.9299 76.46 30.3799 74.28 30.3799C76.46 30.3799 78.22 33.8299 78.22 38.0799Z" fill="white"></path>
<path d="M78.22 38.31C78.09 38.31 77.99 38.21 77.99 38.08C77.99 33.96 76.33 30.61 74.28 30.61C74.15 30.61 74.05 30.5099 74.05 30.3799C74.05 30.2499 74.15 30.15 74.28 30.15C76.32 30.15 77.99 26.8 77.99 22.68C77.99 22.55 78.09 22.45 78.22 22.45C78.35 22.45 78.45 22.55 78.45 22.68C78.45 26.8 80.11 30.15 82.16 30.15C82.29 30.15 82.39 30.2499 82.39 30.3799C82.39 30.5099 82.29 30.61 82.16 30.61C80.12 30.61 78.45 33.96 78.45 38.08C78.45 38.21 78.35 38.31 78.22 38.31ZM75.3 30.3799C76.67 31.0199 77.76 32.9099 78.21 35.4199C78.67 32.9199 79.75 31.0199 81.12 30.3799C79.75 29.7399 78.66 27.85 78.21 25.34C77.75 27.84 76.67 29.7399 75.3 30.3799Z" fill="black"></path>
<path d="M65.7299 23.45C65.7299 21.83 66.7799 20.52 68.0799 20.52C66.7799 20.52 65.7299 19.21 65.7299 17.59C65.7299 19.21 64.6799 20.52 63.3799 20.52C64.6799 20.52 65.7299 21.83 65.7299 23.45Z" fill="white"></path>
<path d="M65.7299 23.69C65.5999 23.69 65.4999 23.59 65.4999 23.46C65.4999 21.97 64.5499 20.76 63.3799 20.76C63.2499 20.76 63.1499 20.66 63.1499 20.53C63.1499 20.4 63.2499 20.3 63.3799 20.3C64.5499 20.3 65.4999 19.09 65.4999 17.6C65.4999 17.47 65.5999 17.37 65.7299 17.37C65.8599 17.37 65.9599 17.47 65.9599 17.6C65.9599 19.09 66.9099 20.3 68.0799 20.3C68.2099 20.3 68.3099 20.4 68.3099 20.53C68.3099 20.66 68.2099 20.76 68.0799 20.76C66.9099 20.76 65.9599 21.97 65.9599 23.46C65.9599 23.59 65.8599 23.69 65.7299 23.69ZM64.3499 20.52C64.9599 20.82 65.4499 21.41 65.7299 22.14C65.9999 21.41 66.4999 20.82 67.1099 20.52C66.4999 20.22 66.0099 19.63 65.7299 18.9C65.4599 19.63 64.9599 20.22 64.3499 20.52Z" fill="black"></path>
<path d="M54.88 89.07C54.88 87.45 55.93 86.14 57.23 86.14C55.93 86.14 54.88 84.83 54.88 83.21C54.88 84.83 53.83 86.14 52.53 86.14C53.83 86.14 54.88 87.45 54.88 89.07Z" fill="white"></path>
<path d="M54.8801 89.3C54.7501 89.3 54.6501 89.2 54.6501 89.07C54.6501 87.58 53.7 86.37 52.53 86.37C52.4 86.37 52.3 86.27 52.3 86.14C52.3 86.01 52.4 85.91 52.53 85.91C53.7 85.91 54.6501 84.7 54.6501 83.21C54.6501 83.08 54.7501 82.98 54.8801 82.98C55.0101 82.98 55.1101 83.08 55.1101 83.21C55.1101 84.7 56.06 85.91 57.23 85.91C57.36 85.91 57.46 86.01 57.46 86.14C57.46 86.27 57.36 86.37 57.23 86.37C56.06 86.37 55.1101 87.58 55.1101 89.07C55.1101 89.2 55.0101 89.3 54.8801 89.3ZM53.5 86.13C54.11 86.43 54.6001 87.02 54.8801 87.75C55.1501 87.02 55.65 86.43 56.26 86.13C55.65 85.83 55.1601 85.24 54.8801 84.51C54.6101 85.24 54.11 85.83 53.5 86.13Z" fill="black"></path>
</g>
<defs>
<clipPath id="clip0_7896_50992">
<rect width="96" height="96" fill="white"></rect>
</clipPath>
</defs>
</svg>