<svg width="96" height="96" viewBox="0 0 96 96" fill="none" xmlns="http://www.w3.org/2000/svg">
<g clip-path="url(#clip0_7515_28496)">
<g clip-path="url(#clip1_7515_28496)">
<path d="M37.9496 71.7101L21.9396 79.7601C20.9396 80.2601 20.9496 81.6801 21.9396 82.1801L47.6696 95.0401C49.5996 96.0101 51.8796 96.0001 53.8096 95.0401L67.3596 88.2301C68.3596 87.7301 68.3496 86.3101 67.3596 85.8101L39.1696 71.7201C38.7896 71.5301 38.3396 71.5301 37.9596 71.7201L37.9496 71.7101Z" fill="black"></path>
<path d="M50.7292 96.0001C49.6392 96.0001 48.5492 95.7501 47.5592 95.2601L21.8292 82.4001C21.2892 82.1301 20.9492 81.5801 20.9492 80.9701C20.9492 80.3601 21.2892 79.8101 21.8292 79.5401L37.8392 71.4901C38.2892 71.2601 38.8192 71.2601 39.2692 71.4901L67.4592 85.5801C67.9992 85.8501 68.3392 86.4001 68.3392 87.0101C68.3392 87.6201 67.9992 88.1701 67.4592 88.4401L53.9092 95.2501C52.9092 95.7501 51.8192 96.0001 50.7292 96.0001ZM38.5592 71.8001C38.3892 71.8001 38.2192 71.8401 38.0592 71.9201L22.0492 79.9701C21.6692 80.1601 21.4392 80.5301 21.4392 80.9601C21.4392 81.3901 21.6692 81.7601 22.0492 81.9501L47.7792 94.8101C49.6292 95.7401 51.8492 95.7301 53.6992 94.8101L67.2492 88.0001C67.6292 87.8101 67.8592 87.4401 67.8592 87.0101C67.8592 86.5801 67.6292 86.2101 67.2492 86.0201L39.0592 71.9301C38.8992 71.8501 38.7292 71.8101 38.5592 71.8101V71.8001Z" fill="black"></path>
<path d="M45.1396 86.6201L51.9296 89.9801C52.8596 90.4501 53.9996 90.0201 54.3896 89.0501L75.7597 36.1701C76.1097 35.3101 75.7397 34.3201 74.8997 33.9001L69.1497 31.0601" fill="white"></path>
<path d="M52.73 90.4101C52.42 90.4101 52.11 90.3401 51.82 90.2001L45.03 86.8401C44.91 86.7801 44.86 86.6401 44.92 86.5201C44.98 86.4001 45.13 86.3501 45.25 86.4101L52.04 89.7701C52.43 89.9701 52.87 89.9901 53.28 89.8301C53.69 89.6801 54 89.3701 54.17 88.9601L75.54 36.0801C75.84 35.3401 75.51 34.4801 74.8 34.1201L69.05 31.2801C68.93 31.2201 68.88 31.0801 68.94 30.9601C69 30.8401 69.14 30.7901 69.26 30.8501L75.01 33.6901C75.95 34.1601 76.38 35.2901 75.99 36.2701L54.62 89.1501C54.41 89.6701 53.98 90.0901 53.46 90.2901C53.23 90.3801 52.99 90.4201 52.74 90.4201H52.73V90.4101Z" fill="black"></path>
<path d="M41.6196 19.4502L20.2496 72.3302C19.8996 73.1902 20.2696 74.1802 21.1096 74.6002L50.7796 89.4302C51.7096 89.9002 52.8496 89.4702 53.2396 88.5002L74.6096 35.6202C74.9596 34.7602 74.5896 33.7702 73.7496 33.3502L44.0796 18.5202C43.1496 18.0502 42.0096 18.4802 41.6196 19.4502Z" fill="white"></path>
<path d="M51.5695 89.8701C51.2595 89.8701 50.9495 89.8001 50.6595 89.6601L20.9895 74.8301C20.0495 74.3601 19.6195 73.2301 20.0195 72.2501L41.3895 19.3701C41.5995 18.8501 42.0295 18.4301 42.5495 18.2301C43.0795 18.0301 43.6695 18.0601 44.1795 18.3101L73.8495 33.1401C74.7895 33.6101 75.2195 34.7401 74.8195 35.7201L53.4495 88.6001C53.2395 89.1201 52.8095 89.5401 52.2895 89.7401C52.0595 89.8301 51.8195 89.8701 51.5695 89.8701ZM43.2795 18.5801C43.0995 18.5801 42.9095 18.6101 42.7295 18.6801C42.3195 18.8301 42.0095 19.1401 41.8395 19.5501L20.4695 72.4301C20.1695 73.1701 20.4995 74.0301 21.2095 74.3901L50.8795 89.2201C51.2695 89.4201 51.7095 89.4401 52.1195 89.2801C52.5295 89.1301 52.8395 88.8202 53.0095 88.4101L74.3795 35.5301C74.6795 34.7901 74.3495 33.9301 73.6395 33.5701L43.9695 18.7401C43.7495 18.6301 43.5195 18.5801 43.2795 18.5801Z" fill="black"></path>
<path d="M22.1699 72.9102L51.4299 87.5402L72.8199 34.8402L43.5599 20.2102L22.1699 72.9102Z" fill="url(#paint0_linear_7515_28496)"></path>
<path d="M21.9499 72.8203C21.8999 72.9403 21.9499 73.0703 22.0699 73.1303L51.3299 87.7603C51.3299 87.7603 51.3999 87.7903 51.4399 87.7903C51.4699 87.7903 51.4999 87.7903 51.5299 87.7703C51.5899 87.7503 51.6399 87.7003 51.6699 87.6303L52.2599 86.1703L52.3999 85.8203L73.0599 34.9203C73.1099 34.8003 73.0599 34.6703 72.9399 34.6103L43.6799 19.9803C43.6199 19.9503 43.5499 19.9503 43.4899 19.9803C43.4299 20.0003 43.3799 20.0503 43.3499 20.1203M51.7999 85.9903C51.6699 86.3003 51.4299 86.5403 51.1199 86.6603C50.8099 86.7803 50.4699 86.7603 50.1699 86.6103L45.8099 84.4303C45.2599 84.1503 45.0099 83.4903 45.2399 82.9203L45.3299 82.7103L47.9299 76.2803C48.0599 75.9703 48.2999 75.7303 48.6099 75.6103C48.7499 75.5603 48.8899 75.5303 49.0299 75.5303C49.2099 75.5303 49.3899 75.5703 49.5599 75.6603L53.9199 77.8403C54.4699 78.1203 54.7199 78.7803 54.4899 79.3503L51.9699 85.5803L51.7999 85.9903ZM43.1599 21.8503C43.3099 21.5703 43.5299 21.3503 43.8299 21.2403C43.9799 21.1803 44.1299 21.1603 44.2899 21.1603C44.4899 21.1603 44.6799 21.2103 44.8599 21.3003L49.5499 23.6403C50.1399 23.9403 50.4099 24.6503 50.1699 25.2703L50.0799 25.4903L47.8199 31.0803C47.6799 31.4203 47.4199 31.6703 47.0799 31.8003C46.7399 31.9303 46.3799 31.9103 46.0499 31.7503L43.7599 30.6103L41.5799 29.5203L41.3599 29.4103C40.7899 29.1303 40.5299 28.4603 40.7299 27.8703L43.1699 21.8603L43.1599 21.8503ZM43.0999 61.4803L41.7799 60.8203L38.4199 59.1403L38.1799 59.0203C37.6499 58.7503 37.3999 58.1103 37.6299 57.5503L37.7099 57.3403L39.2599 53.5103L40.0799 51.4903C40.1999 51.1903 40.4399 50.9603 40.7399 50.8403C40.8699 50.7903 41.0099 50.7603 41.1499 50.7603C41.3299 50.7603 41.4999 50.8003 41.6599 50.8803L46.5799 53.3403C47.1099 53.6103 47.3599 54.2503 47.1299 54.8103L46.4099 56.5803L44.6799 60.8703C44.5599 61.1703 44.3199 61.4003 44.0199 61.5203C43.7199 61.6403 43.3899 61.6203 43.0999 61.4703V61.4803ZM43.6199 63.5203L42.4999 66.3003L41.1999 69.5103C41.0699 69.8203 40.8299 70.0603 40.5199 70.1803C40.2099 70.3003 39.8699 70.2803 39.5699 70.1303L37.3399 69.0203L34.9199 67.8103L34.7199 67.7103C34.1699 67.4303 33.9199 66.7703 34.1499 66.2003L34.2399 65.9903L36.5699 60.2103C36.6999 59.9003 36.9399 59.6603 37.2499 59.5403C37.5599 59.4203 37.8999 59.4403 38.1999 59.5903L43.0499 62.0203C43.5999 62.3003 43.8499 62.9603 43.6199 63.5303V63.5203ZM45.0499 61.2703L45.1299 61.0603L47.2999 55.7003L47.4999 55.2103C47.6199 54.9103 47.8599 54.6803 48.1599 54.5603C48.2899 54.5103 48.4299 54.4803 48.5699 54.4803C48.7499 54.4803 48.9199 54.5203 49.0799 54.6003L50.5299 55.3203L53.9999 57.0603C54.5299 57.3303 54.7799 57.9703 54.5499 58.5303L53.2799 61.6803L52.1099 64.5803C51.9899 64.8803 51.7499 65.1103 51.4499 65.2303C51.1499 65.3503 50.8199 65.3303 50.5299 65.1803L46.2699 63.0503L45.8499 62.8403L45.6099 62.7203C45.0799 62.4503 44.8299 61.8103 45.0599 61.2503V61.2703H45.0499ZM54.0199 56.5403L49.6199 54.3403L49.2999 54.1803L49.0999 54.0803C48.5699 53.8103 48.3199 53.1703 48.5499 52.6103L50.9999 46.5503C51.1199 46.2503 51.3599 46.0203 51.6599 45.9003C51.9599 45.7803 52.2899 45.8003 52.5799 45.9503L57.4999 48.4103C58.0399 48.6803 58.2799 49.3203 58.0499 49.8803L55.5999 55.9403C55.4799 56.2403 55.2399 56.4703 54.9399 56.5903C54.6399 56.7103 54.3099 56.6903 54.0199 56.5403ZM57.2699 47.7603L55.2899 46.7703L52.8099 45.5303C52.1599 45.2003 51.8599 44.4203 52.1299 43.7403L52.1799 43.6303L52.3599 43.1903L54.3899 38.1603C54.5399 37.7903 54.8299 37.5103 55.1999 37.3703C55.5699 37.2303 55.9699 37.2503 56.3299 37.4303L60.7899 39.6603C61.4399 39.9903 61.7399 40.7703 61.4699 41.4503L59.7899 45.6003L59.2099 47.0303C59.0599 47.4003 58.7699 47.6803 58.3999 47.8203C58.0299 47.9603 57.6299 47.9403 57.2699 47.7603ZM54.4999 35.5103C54.1599 35.6403 53.7999 35.6203 53.4699 35.4603L50.9099 34.1803L48.9999 33.2303L48.7799 33.1203C48.1899 32.8203 47.9199 32.1103 48.1599 31.4903L48.2499 31.2703L50.5099 25.6803C50.6499 25.3403 50.9099 25.0903 51.2499 24.9603C51.3999 24.9003 51.5499 24.8803 51.7099 24.8803C51.9099 24.8803 52.0999 24.9303 52.2799 25.0203L56.9699 27.3603C57.5599 27.6603 57.8299 28.3703 57.5899 28.9903L55.2399 34.8103C55.0999 35.1503 54.8399 35.4003 54.4999 35.5303V35.5103ZM48.2099 33.5203C48.4099 33.5203 48.5999 33.5703 48.7799 33.6603L50.5799 34.5603L53.4699 36.0003C54.0599 36.3003 54.3299 37.0103 54.0899 37.6303L51.7399 43.4503C51.5999 43.7903 51.3399 44.0403 50.9999 44.1703C50.6599 44.3003 50.2999 44.2803 49.9699 44.1203L49.3399 43.8103L45.3699 41.8303L45.2799 41.7803C44.6899 41.4803 44.4199 40.7703 44.6599 40.1503L46.5899 35.3703L47.0099 34.3303C47.1499 33.9903 47.4099 33.7403 47.7499 33.6103C47.8999 33.5503 48.0499 33.5303 48.2099 33.5303V33.5203ZM44.6399 42.1203C44.8199 42.1203 44.9899 42.1603 45.1499 42.2403L48.3999 43.8603L50.0699 44.7003C50.5999 44.9703 50.8499 45.6103 50.6199 46.1703L48.1699 52.2303C48.0499 52.5303 47.8099 52.7603 47.5099 52.8803C47.2099 53.0003 46.8799 52.9803 46.5899 52.8303L41.6699 50.3703C41.1399 50.1003 40.8899 49.4603 41.1199 48.9003L43.5699 42.8403C43.6899 42.5403 43.9299 42.3103 44.2299 42.1903C44.3599 42.1403 44.4999 42.1103 44.6399 42.1103V42.1203ZM43.1999 42.4603L40.7499 48.5203C40.6299 48.8203 40.3899 49.0503 40.0899 49.1703C39.7899 49.2903 39.4599 49.2703 39.1699 49.1203L34.2499 46.6603C33.7199 46.3903 33.4699 45.7503 33.6999 45.1903L36.1499 39.1303C36.2699 38.8303 36.5099 38.6003 36.8099 38.4803C36.9399 38.4303 37.0799 38.4003 37.2199 38.4003C37.3999 38.4003 37.5699 38.4403 37.7299 38.5203L42.6499 40.9803C43.1899 41.2503 43.4299 41.8903 43.1999 42.4503V42.4603ZM33.7199 47.0703C33.8999 47.0703 34.0699 47.1103 34.2299 47.1903L39.1499 49.6503C39.6899 49.9203 39.9299 50.5603 39.6999 51.1203L37.9099 55.5603L37.2599 57.1803C37.1399 57.4803 36.8999 57.7103 36.5999 57.8303C36.2899 57.9403 35.9699 57.9303 35.6799 57.7803L33.2299 56.5503L30.9999 55.4403L30.7599 55.3203C30.2299 55.0503 29.9799 54.4103 30.2099 53.8503L32.6599 47.7903C32.7799 47.4903 33.0199 47.2603 33.3199 47.1403C33.4499 47.0903 33.5899 47.0603 33.7299 47.0603L33.7199 47.0703ZM30.2399 55.7403C30.4199 55.7403 30.5999 55.7803 30.7699 55.8703L35.6199 58.3003C36.1699 58.5803 36.4199 59.2403 36.1899 59.8103L36.0999 60.0203L33.7699 65.8003C33.6399 66.1103 33.3999 66.3503 33.0899 66.4703C32.7799 66.5903 32.4399 66.5703 32.1399 66.4203L27.2899 63.9903C26.7399 63.7103 26.4899 63.0503 26.7199 62.4803L29.1399 56.4903C29.2699 56.1803 29.5099 55.9403 29.8199 55.8203C29.9599 55.7703 30.0999 55.7403 30.2399 55.7403ZM33.7399 68.1803C34.0499 68.0603 34.3899 68.0803 34.6899 68.2303L35.2399 68.5003L39.5399 70.6503C40.0899 70.9303 40.3399 71.5903 40.1099 72.1603L40.0199 72.3703L37.4199 78.8003C37.2899 79.1103 37.0499 79.3503 36.7399 79.4703C36.4299 79.5903 36.0899 79.5703 35.7899 79.4203L30.9399 76.9903C30.3899 76.7103 30.1399 76.0503 30.3699 75.4803L30.4599 75.2703L33.0599 68.8403C33.1899 68.5303 33.4299 68.2903 33.7399 68.1703V68.1803ZM37.7999 79.2103L37.8899 79.0003L40.4899 72.5703C40.6199 72.2603 40.8599 72.0203 41.1699 71.9003C41.4799 71.7803 41.8199 71.8003 42.1199 71.9503L46.7699 74.2703L46.9699 74.3703C47.5199 74.6503 47.7699 75.3103 47.5399 75.8803L45.5299 80.8603L44.8599 82.5203C44.7299 82.8303 44.4899 83.0703 44.1799 83.1903C43.8699 83.3103 43.5299 83.2903 43.2299 83.1403L38.3799 80.7103C37.8299 80.4303 37.5799 79.7703 37.8099 79.2003H37.7999V79.2103ZM46.9899 73.8303L43.5399 72.1103L42.3399 71.5103L42.1399 71.4103C41.5899 71.1303 41.3399 70.4703 41.5699 69.9003L41.6599 69.6903L42.9599 66.4803L43.9999 63.9103C44.1299 63.6003 44.3699 63.3603 44.6799 63.2403C44.9899 63.1203 45.3299 63.1403 45.6299 63.2903L50.4799 65.7203C51.0299 66.0003 51.2799 66.6603 51.0499 67.2303L48.6299 73.2203C48.4999 73.5303 48.2599 73.7703 47.9499 73.8903C47.6399 74.0103 47.2999 73.9903 46.9999 73.8403L46.9899 73.8303ZM48.9899 73.6103L51.4099 67.6203C51.5399 67.3103 51.7799 67.0703 52.0899 66.9503C52.2299 66.9003 52.3699 66.8703 52.5099 66.8703C52.6899 66.8703 52.8699 66.9103 53.0399 67.0003L53.5699 67.2703L57.3999 69.1803C57.9499 69.4603 58.1999 70.1203 57.9699 70.6903L55.5499 76.6803C55.4199 76.9903 55.1799 77.2303 54.8699 77.3503C54.5599 77.4703 54.2199 77.4503 53.9199 77.3003L49.5599 75.1203C49.0099 74.8403 48.7599 74.1803 48.9899 73.6103ZM57.4599 68.6603L53.0299 66.4503C52.4999 66.1803 52.2499 65.5403 52.4799 64.9803L52.5599 64.7703L54.3799 60.2803L54.9299 58.9203C55.0499 58.6203 55.2899 58.3903 55.5899 58.2703C55.8899 58.1603 56.2199 58.1703 56.5099 58.3203L60.7399 60.4303L60.9399 60.5303C61.4699 60.8003 61.7199 61.4403 61.4899 62.0003L59.0399 68.0603C58.9199 68.3603 58.6799 68.5903 58.3799 68.7103C58.0799 68.8303 57.7499 68.8103 57.4599 68.6603ZM60.9599 60.0103L58.9099 58.9903L56.7299 57.9003L56.5299 57.8003C55.9999 57.5303 55.7499 56.8903 55.9799 56.3303L58.4299 50.2703C58.5499 49.9703 58.7899 49.7403 59.0899 49.6203C59.3899 49.5003 59.7199 49.5203 60.0099 49.6703L63.9799 51.6503L64.4299 51.8703C64.9599 52.1403 65.2099 52.7803 64.9799 53.3403L62.5299 59.4003C62.4099 59.7003 62.1699 59.9303 61.8699 60.0503C61.5699 60.1703 61.2399 60.1503 60.9499 60.0003L60.9599 60.0103ZM64.2099 51.2303L60.2399 49.2503C59.5899 48.9203 59.2899 48.1403 59.5599 47.4603L59.6599 47.2203L60.0099 46.3503L61.8099 41.8903C61.9599 41.5203 62.2499 41.2403 62.6199 41.1003C62.7799 41.0403 62.9499 41.0103 63.1199 41.0103C63.3399 41.0103 63.5499 41.0603 63.7499 41.1603L66.5399 42.5503L67.7199 43.1403C68.3699 43.4703 68.6699 44.2503 68.3999 44.9303L66.1499 50.5103C65.9999 50.8803 65.7099 51.1603 65.3399 51.3003C64.9699 51.4403 64.5699 51.4203 64.2099 51.2403V51.2303ZM61.8999 39.1603C61.5299 39.3003 61.1299 39.2803 60.7699 39.1003L56.3099 36.8703C55.6599 36.5403 55.3599 35.7603 55.6299 35.0803L55.6799 34.9703L57.8899 29.5103C58.0399 29.1403 58.3299 28.8603 58.6999 28.7203C58.8599 28.6603 59.0299 28.6303 59.1999 28.6303C59.4199 28.6303 59.6299 28.6803 59.8299 28.7803L64.2899 31.0103C64.9399 31.3403 65.2399 32.1203 64.9699 32.8003L64.8699 33.0403L62.7099 38.3703C62.5599 38.7403 62.2699 39.0203 61.8999 39.1603ZM39.6199 30.5603C39.7599 30.2503 39.9999 30.0103 40.3199 29.8903C40.4699 29.8303 40.6199 29.8103 40.7799 29.8103C40.9799 29.8103 41.1699 29.8603 41.3499 29.9503L45.8199 32.1903L46.0399 32.3003C46.6299 32.6003 46.8999 33.3103 46.6599 33.9303L46.5699 34.1503L45.6599 36.4103L44.3099 39.7403C44.1699 40.0803 43.9099 40.3303 43.5699 40.4603C43.2299 40.5903 42.8699 40.5703 42.5399 40.4103L39.8599 39.0703L37.8499 38.0603C37.2599 37.7703 36.9899 37.0603 37.2299 36.4503L39.6199 30.5703V30.5603ZM22.9499 71.7803L25.6299 65.1403C25.7599 64.8303 25.9999 64.5903 26.3099 64.4703C26.6199 64.3503 26.9599 64.3703 27.2599 64.5203L32.1099 66.9503C32.6599 67.2303 32.9099 67.8903 32.6799 68.4603L32.5899 68.6703L29.9899 75.1003C29.8599 75.4103 29.6199 75.6503 29.3099 75.7703C28.9999 75.8903 28.6599 75.8703 28.3599 75.7203L23.5099 73.2903C22.9599 73.0103 22.7099 72.3503 22.9399 71.7803H22.9499ZM71.8999 36.2603L69.6499 41.8403C69.4999 42.2103 69.2099 42.4903 68.8399 42.6303C68.4699 42.7703 68.0699 42.7503 67.7099 42.5703L63.9799 40.7103L63.7399 40.5903C63.0899 40.2603 62.7899 39.4803 63.0599 38.8003L63.1599 38.5603L65.3199 33.2303C65.4699 32.8603 65.7599 32.5803 66.1299 32.4403C66.2899 32.3803 66.4599 32.3503 66.6299 32.3503C66.8499 32.3503 67.0599 32.4003 67.2599 32.5003L71.2299 34.4803C71.8799 34.8103 72.1799 35.5903 71.9099 36.2703H71.8999V36.2603Z" fill="black"></path>
<path d="M38.6598 33.08C40.7598 33.38 42.4798 34.68 43.3898 36.43C43.7698 34.5 45.0398 32.77 46.9698 31.89C48.8998 31.01 51.0398 31.17 52.7598 32.15C52.0298 30.32 52.1698 28.17 53.3198 26.38C54.4698 24.6 56.3598 23.59 58.3198 23.48C56.7198 22.33 55.6798 20.46 55.6798 18.33V18.31C55.6798 16.18 56.7098 14.3 58.3098 13.15C56.3398 13.05 54.4498 12.04 53.2998 10.26C52.1498 8.47999 51.9998 6.32999 52.7298 4.48999C51.0198 5.46999 48.8798 5.64999 46.9398 4.76999C45.0098 3.88999 43.7398 2.16999 43.3498 0.23999C42.4398 1.98999 40.7298 3.29999 38.6298 3.59999C36.5298 3.89999 34.5298 3.13999 33.1598 1.71999C33.3398 3.67999 32.6098 5.69999 31.0098 7.08999C29.4098 8.47999 27.3098 8.92999 25.3898 8.46999C26.5998 10.02 27.0798 12.12 26.4898 14.15C25.8998 16.19 24.3698 17.7 22.5098 18.35C24.3698 19 25.8998 20.51 26.4998 22.54C27.0998 24.57 26.6298 26.67 25.4198 28.22C27.3398 27.76 29.4398 28.2 31.0498 29.59C32.6498 30.98 33.3898 32.99 33.2098 34.96C34.3798 33.75 36.0098 33.01 37.7698 33.01C38.0698 33.01 38.3698 33.03 38.6698 33.07H38.6598V33.08Z" fill="#FF9F00"></path>
<path d="M43.3898 36.67C43.2998 36.67 43.2198 36.62 43.1798 36.54C42.2698 34.8 40.5698 33.59 38.6298 33.32C38.3398 33.28 38.0498 33.26 37.7698 33.26C36.1298 33.26 34.5298 33.94 33.3798 35.13C33.3098 35.2 33.1998 35.23 33.0998 35.18C33.0098 35.14 32.9498 35.04 32.9598 34.94C33.1398 32.99 32.3598 31.06 30.8798 29.78C29.3998 28.5 27.3798 28.01 25.4698 28.46C25.3698 28.48 25.2698 28.44 25.2098 28.36C25.1498 28.27 25.1598 28.16 25.2198 28.08C26.4198 26.53 26.8098 24.49 26.2598 22.62C25.7098 20.74 24.2698 19.23 22.4198 18.59C22.3198 18.56 22.2598 18.46 22.2598 18.36C22.2598 18.26 22.3198 18.17 22.4198 18.13C24.2698 17.48 25.6998 15.97 26.2498 14.09C26.7998 12.21 26.3998 10.17 25.1998 8.63004C25.1398 8.55004 25.1298 8.44004 25.1898 8.35004C25.2498 8.26004 25.3498 8.22004 25.4498 8.25004C27.3598 8.70004 29.3798 8.21004 30.8598 6.92004C32.3398 5.64004 33.1098 3.71004 32.9298 1.75004C32.9298 1.65004 32.9798 1.55004 33.0698 1.51004C33.1598 1.47004 33.2698 1.49004 33.3498 1.56004C34.7098 2.97004 36.6698 3.64004 38.6098 3.36004C40.5498 3.08004 42.2498 1.87004 43.1498 0.130041C43.1998 0.0400411 43.2998 -0.00995888 43.3998 4.11192e-05C43.4998 4.11192e-05 43.5798 0.0900411 43.5998 0.190041C43.9798 2.11004 45.2698 3.74004 47.0498 4.55004C48.8298 5.36004 50.9098 5.26004 52.6198 4.28004C52.7098 4.23004 52.8198 4.24004 52.8998 4.31004C52.9798 4.38004 52.9998 4.49004 52.9698 4.58004C52.2498 6.41004 52.4498 8.48004 53.5198 10.13C54.5798 11.77 56.3798 12.81 58.3298 12.91C58.4298 12.91 58.5198 12.98 58.5498 13.08C58.5798 13.18 58.5498 13.29 58.4598 13.35C56.8698 14.5 55.9198 16.35 55.9298 18.31V18.34C55.9298 20.3 56.8798 22.15 58.4698 23.29C58.5498 23.35 58.5898 23.46 58.5598 23.56C58.5298 23.66 58.4398 23.73 58.3398 23.73C56.3898 23.83 54.5898 24.87 53.5298 26.52C52.4698 28.17 52.2698 30.24 52.9898 32.07C53.0298 32.17 52.9898 32.28 52.9198 32.34C52.8398 32.41 52.7298 32.42 52.6398 32.37C50.9398 31.39 48.8598 31.3 47.0798 32.12C45.2998 32.94 44.0198 34.57 43.6398 36.49C43.6198 36.59 43.5398 36.67 43.4398 36.68H43.3898V36.67ZM37.7598 32.77C38.0698 32.77 38.3798 32.79 38.6898 32.83C40.5798 33.1 42.2598 34.19 43.2898 35.78C43.8298 33.97 45.1298 32.45 46.8598 31.66C48.5998 30.86 50.5998 30.87 52.3198 31.66C51.7898 29.84 52.0598 27.86 53.0998 26.25C54.1298 24.65 55.8198 23.58 57.6798 23.3C56.2498 22.06 55.4198 20.24 55.4198 18.33V18.31C55.4198 16.39 56.2498 14.57 57.6698 13.33C55.7998 13.06 54.1098 11.99 53.0798 10.39C52.0398 8.79004 51.7598 6.80004 52.2898 4.98004C50.5598 5.77004 48.5598 5.78004 46.8298 4.98004C45.0998 4.19004 43.7898 2.68004 43.2498 0.870041C42.2298 2.47004 40.5498 3.56004 38.6498 3.83004C36.7698 4.10004 34.8498 3.54004 33.4198 2.30004C33.4198 4.19004 32.5998 6.02004 31.1598 7.27004C29.7198 8.52004 27.7998 9.08004 25.9198 8.82004C26.9398 10.41 27.2398 12.39 26.6998 14.22C26.1598 16.05 24.8498 17.56 23.1298 18.35C24.8498 19.14 26.1698 20.64 26.7098 22.47C27.2498 24.3 26.9598 26.27 25.9398 27.87C27.8198 27.6 29.7398 28.16 31.1798 29.41C32.6198 30.66 33.4398 32.48 33.4498 34.37C34.6398 33.34 36.1698 32.77 37.7398 32.77H37.7598Z" fill="black"></path>
<path d="M40.7801 29.7499C47.0817 29.7499 52.1901 24.6415 52.1901 18.3399C52.1901 12.0384 47.0817 6.92993 40.7801 6.92993C34.4785 6.92993 29.3701 12.0384 29.3701 18.3399C29.3701 24.6415 34.4785 29.7499 40.7801 29.7499Z" fill="#FCFC3C"></path>
<path d="M40.7799 29.9899C34.3499 29.9899 29.1299 24.7599 29.1299 18.3399C29.1299 11.9199 34.3599 6.68994 40.7799 6.68994C47.1999 6.68994 52.4299 11.9199 52.4299 18.3399C52.4299 24.7599 47.1999 29.9899 40.7799 29.9899ZM40.7799 7.16994C34.6199 7.16994 29.6099 12.1799 29.6099 18.3399C29.6099 24.4999 34.6199 29.5099 40.7799 29.5099C46.9399 29.5099 51.9499 24.4999 51.9499 18.3399C51.9499 12.1799 46.9399 7.16994 40.7799 7.16994Z" fill="black"></path>
</g>
</g>
<defs>
<linearGradient id="paint0_linear_7515_28496" x1="46.1499" y1="36.2202" x2="50.0399" y2="87.2902" gradientUnits="userSpaceOnUse">
<stop offset="0.06" stop-color="#FFA5FF"></stop>
<stop offset="1" stop-color="#FF9F00"></stop>
</linearGradient>
<clipPath id="clip0_7515_28496">
<rect width="96" height="96" fill="white"></rect>
</clipPath>
<clipPath id="clip1_7515_28496">
<rect width="96" height="96" fill="white"></rect>
</clipPath>
</defs>
</svg>