<svg width="24" height="24" viewBox="0 0 24 24" fill="none" xmlns="http://www.w3.org/2000/svg">
<path d="M13.0248 1.08096C13.225 0.834608 13.5587 0.740457 13.8579 0.846583C14.157 0.952803 14.3569 1.23614 14.3569 1.55361V8.83975H20.8393C21.1286 8.8398 21.3917 9.00628 21.5161 9.26748C21.6402 9.52867 21.6037 9.83793 21.4213 10.0624L10.975 22.9198C10.7749 23.1661 10.4411 23.2593 10.142 23.1532C9.84285 23.047 9.64301 22.7637 9.64301 22.4462V15.161H3.16058C2.87138 15.161 2.60824 14.9943 2.48383 14.7333C2.35948 14.4721 2.3961 14.162 2.57855 13.9374L13.0248 1.08096ZM4.73578 13.661H10.393C10.8071 13.6612 11.143 13.9969 11.143 14.411V20.3339L19.2631 10.3397H13.6069C13.1929 10.3397 12.8571 10.0037 12.8569 9.58975V3.66494L4.73578 13.661Z" fill="#8C39F5"></path>
</svg>