<svg width="24" height="24" viewBox="0 0 24 24" fill="none" xmlns="http://www.w3.org/2000/svg">
<path d="M0.151899 19.659C0.0607595 19.659 0 19.598 0 19.5064V8.94779C0 6.41495 2.06582 4.33984 4.58734 4.33984H23.8481C23.9392 4.33984 24 4.40088 24 4.49242V15.051C24 17.5839 21.9342 19.659 19.4127 19.659H0.151899Z" fill="#FF6400"></path>
<path d="M14.8878 7.85156H13.065C12.0321 7.85156 11.2119 8.6755 11.1815 9.71305V8.21776C11.1815 8.00414 11.0296 7.85156 10.8473 7.85156H10.0878H9.32832C9.14604 7.85156 8.99414 8.00414 8.99414 8.21776V15.7858C8.99414 15.9689 9.14604 16.1215 9.32832 16.1215H10.0878H10.8473C11.0296 16.1215 11.1815 15.9689 11.1815 15.7858V11.0863V11.0558C11.2422 10.537 11.4853 10.0792 11.8195 9.71305C12.3055 9.19428 13.0043 8.91963 13.7334 8.91963C13.7941 8.91963 13.8245 8.95015 13.8245 9.01118C13.8245 9.07221 13.7941 9.10273 13.7334 9.10273C13.7334 9.10273 12.7005 9.25531 12.0929 10.1098C11.8802 10.3844 11.7587 10.7201 11.6979 11.0558H13.0346C14.0676 11.0558 14.9182 10.2013 14.9182 9.16376V7.91259C15.0093 7.91259 14.9486 7.85156 14.8878 7.85156Z" fill="white"></path>
</svg>