<svg width="24" height="24" viewBox="0 0 24 24" fill="none" xmlns="http://www.w3.org/2000/svg">
<g clip-path="url(#clip0_182_13711)">
<path fill-rule="evenodd" clip-rule="evenodd" d="M7.47276 11.1429C7.55749 11.0214 7.60719 10.8736 7.60719 10.7143C7.60719 10.3001 7.2714 9.96429 6.85719 9.96429C6.20628 9.96429 5.67862 10.492 5.67862 11.1429C5.67862 11.7938 6.20629 12.3214 6.85719 12.3214C7.2714 12.3214 7.60719 11.9856 7.60719 11.5714C7.60719 11.4121 7.55749 11.2643 7.47276 11.1429Z" fill="#FF6124"></path>
<path fill-rule="evenodd" clip-rule="evenodd" d="M6.10719 10.7143C6.10719 10.3001 6.44297 9.96429 6.85719 9.96429C7.50809 9.96429 8.03576 10.492 8.03576 11.1429C8.03576 11.7938 7.50809 12.3214 6.85719 12.3214C6.44297 12.3214 6.10719 11.9856 6.10719 11.5714C6.10719 11.4121 6.15688 11.2643 6.24162 11.1429C6.15688 11.0214 6.10719 10.8736 6.10719 10.7143Z" fill="#FF6124"></path>
<path fill-rule="evenodd" clip-rule="evenodd" d="M12.6156 11.1429C12.7004 11.0214 12.75 10.8736 12.75 10.7143C12.75 10.3001 12.4143 9.96429 12 9.96429C11.3491 9.96429 10.8215 10.492 10.8215 11.1429C10.8215 11.7938 11.3491 12.3214 12 12.3214C12.4143 12.3214 12.75 11.9856 12.75 11.5714C12.75 11.4121 12.7004 11.2643 12.6156 11.1429Z" fill="#FF6124"></path>
<path fill-rule="evenodd" clip-rule="evenodd" d="M11.25 10.7143C11.25 10.3001 11.5858 9.96429 12 9.96429C12.651 9.96429 13.1786 10.492 13.1786 11.1429C13.1786 11.7938 12.6509 12.3214 12 12.3214C11.5858 12.3214 11.25 11.9856 11.25 11.5714C11.25 11.4121 11.2997 11.2643 11.3845 11.1429C11.2997 11.0214 11.25 10.8736 11.25 10.7143Z" fill="#FF6124"></path>
<path fill-rule="evenodd" clip-rule="evenodd" d="M7.47276 17.1429C7.55749 17.0214 7.60719 16.8736 7.60719 16.7143C7.60719 16.3001 7.2714 15.9643 6.85719 15.9643C6.20628 15.9643 5.67862 16.492 5.67862 17.1429C5.67862 17.7939 6.20634 18.3214 6.85719 18.3214C7.2714 18.3214 7.60719 17.9856 7.60719 17.5714C7.60719 17.4121 7.55749 17.2643 7.47276 17.1429Z" fill="#FF6124"></path>
<path fill-rule="evenodd" clip-rule="evenodd" d="M6.10719 16.7143C6.10719 16.3001 6.44297 15.9643 6.85719 15.9643C7.50809 15.9643 8.03576 16.492 8.03576 17.1429C8.03576 17.7939 7.50804 18.3214 6.85719 18.3214C6.44297 18.3214 6.10719 17.9856 6.10719 17.5714C6.10719 17.4121 6.15688 17.2643 6.24162 17.1429C6.15688 17.0214 6.10719 16.8736 6.10719 16.7143Z" fill="#FF6124"></path>
<path fill-rule="evenodd" clip-rule="evenodd" d="M12.6156 17.1429C12.7004 17.0214 12.75 16.8736 12.75 16.7143C12.75 16.3001 12.4143 15.9643 12 15.9643C11.3491 15.9643 10.8215 16.492 10.8215 17.1429C10.8215 17.7939 11.3492 18.3214 12 18.3214C12.4143 18.3214 12.75 17.9856 12.75 17.5714C12.75 17.4121 12.7004 17.2643 12.6156 17.1429Z" fill="#FF6124"></path>
<path fill-rule="evenodd" clip-rule="evenodd" d="M11.25 16.7143C11.25 16.3001 11.5858 15.9643 12 15.9643C12.651 15.9643 13.1786 16.492 13.1786 17.1429C13.1786 17.7939 12.6509 18.3214 12 18.3214C11.5858 18.3214 11.25 17.9856 11.25 17.5714C11.25 17.4121 11.2997 17.2643 11.3845 17.1429C11.2997 17.0214 11.25 16.8736 11.25 16.7143Z" fill="#FF6124"></path>
<path fill-rule="evenodd" clip-rule="evenodd" d="M17.7585 11.1429C17.8432 11.0214 17.8929 10.8736 17.8929 10.7143C17.8929 10.3001 17.5571 9.96429 17.1429 9.96429C16.492 9.96429 15.9643 10.492 15.9643 11.1429C15.9643 11.7938 16.492 12.3214 17.1429 12.3214C17.5571 12.3214 17.8929 11.9856 17.8929 11.5714C17.8929 11.4121 17.8432 11.2643 17.7585 11.1429Z" fill="#FF6124"></path>
<path fill-rule="evenodd" clip-rule="evenodd" d="M16.3929 10.7143C16.3929 10.3001 16.7287 9.96429 17.1429 9.96429C17.7939 9.96429 18.3215 10.492 18.3215 11.1429C18.3215 11.7937 17.7939 12.3214 17.1429 12.3214C16.7287 12.3214 16.3929 11.9856 16.3929 11.5714C16.3929 11.4121 16.4426 11.2643 16.5273 11.1429C16.4426 11.0214 16.3929 10.8736 16.3929 10.7143Z" fill="#FF6124"></path>
<path fill-rule="evenodd" clip-rule="evenodd" d="M1.68606 4.25748C2.1482 3.79536 2.77498 3.53572 3.42857 3.53572H20.5714C21.2249 3.53572 21.8518 3.79533 22.314 4.25753C22.7759 4.7196 23.0357 5.34635 23.0357 6.00001V20.5714C23.0357 21.225 22.776 21.8519 22.3139 22.3139C21.8519 22.776 21.225 23.0357 20.5714 23.0357H3.42857C2.77491 23.0357 2.14817 22.776 1.6861 22.314C1.2239 21.8519 0.964279 21.2249 0.964279 20.5714V6.00001C0.964279 5.34643 1.22395 4.71961 1.68606 4.25748ZM2.74669 5.31816C2.74668 5.31817 2.7467 5.31815 2.74669 5.31816C2.92755 5.13733 3.17284 5.03572 3.42857 5.03572H20.5714C20.8272 5.03572 21.0725 5.13735 21.2532 5.31811C21.4341 5.49903 21.5357 5.74434 21.5357 6.00001V20.5714C21.5357 20.8271 21.4341 21.0725 21.2533 21.2533C21.0725 21.4341 20.8271 21.5357 20.5714 21.5357H3.42857C3.1729 21.5357 2.92759 21.4341 2.74666 21.2532C2.5659 21.0725 2.46428 20.8272 2.46428 20.5714V6.00001C2.46428 5.74428 2.56586 5.49902 2.74669 5.31816Z" fill="#FF6124"></path>
<path fill-rule="evenodd" clip-rule="evenodd" d="M5.99999 0.964294C6.41421 0.964294 6.74999 1.30008 6.74999 1.71429V6.85715C6.74999 7.27137 6.41421 7.60715 5.99999 7.60715C5.58578 7.60715 5.24999 7.27137 5.24999 6.85715V1.71429C5.24999 1.30008 5.58578 0.964294 5.99999 0.964294Z" fill="#FF6124"></path>
<path fill-rule="evenodd" clip-rule="evenodd" d="M18 0.964294C18.4142 0.964294 18.75 1.30008 18.75 1.71429V6.85715C18.75 7.27137 18.4142 7.60715 18 7.60715C17.5858 7.60715 17.25 7.27137 17.25 6.85715V1.71429C17.25 1.30008 17.5858 0.964294 18 0.964294Z" fill="#FF6124"></path>
</g>
<defs>
<clipPath id="clip0_182_13711">
<rect width="24" height="24" fill="white"></rect>
</clipPath>
</defs>
</svg>