<svg width="28" height="28" viewBox="0 0 28 28" fill="none" xmlns="http://www.w3.org/2000/svg">
<path d="M18.8415 27.8717H9.26321C8.78488 27.8717 8.38821 27.475 8.38821 26.9967C8.38821 26.5183 8.78488 26.1217 9.26321 26.1217H18.8415C19.3199 26.1217 19.7165 26.5183 19.7165 26.9967C19.7165 27.475 19.3199 27.8717 18.8415 27.8717ZM18.4565 25.0367H9.54321C8.88988 25.0367 8.36488 24.5117 8.36488 23.87V20.3467C5.23821 18.4567 3.23155 15.0617 3.11488 11.3983C3.02155 8.54 4.11821 5.68167 6.14821 3.54667C8.20155 1.38834 10.9199 0.175005 13.8249 0.128338C16.7649 0.0816717 19.5532 1.19 21.6415 3.255C23.7415 5.32 24.8965 8.07334 24.8965 11.025C24.8965 14.8517 22.8899 18.3867 19.6349 20.3467V23.8583C19.6349 24.5117 19.1099 25.0367 18.4565 25.0367ZM10.1149 23.2867H17.8849V19.9267C17.8849 19.5533 18.0832 19.215 18.4099 19.0283C21.3265 17.4183 23.1465 14.35 23.1465 11.0133C23.1465 8.54 22.1782 6.23 20.4165 4.49167C18.6549 2.75334 16.3215 1.80834 13.8482 1.86667C11.4215 1.90167 9.14655 2.92834 7.40821 4.74834C5.70488 6.545 4.77155 8.94834 4.85321 11.34C4.95821 14.5367 6.77821 17.4767 9.57821 19.0283C9.91655 19.215 10.1032 19.5417 10.1032 19.915V23.2867H10.1149ZM15.7499 17.955C15.4349 17.955 15.1432 17.7917 14.9799 17.5C14.7465 17.08 14.9099 16.5433 15.3299 16.31C16.2399 15.82 16.8115 14.8633 16.8115 13.825C16.8115 12.2733 15.5515 11.0133 13.9999 11.0133C12.4482 11.0133 11.1882 12.2733 11.1882 13.825C11.1882 14.8633 11.7599 15.8083 12.6699 16.31C13.0899 16.5433 13.2532 17.0683 13.0199 17.5C12.7865 17.92 12.2615 18.0833 11.8299 17.85C10.3482 17.0567 9.43821 15.5167 9.43821 13.8367C9.43821 11.3167 11.4915 9.275 13.9999 9.275C16.5082 9.275 18.5615 11.3283 18.5615 13.8367C18.5615 15.5167 17.6399 17.0567 16.1699 17.85C16.0415 17.92 15.8899 17.955 15.7499 17.955Z" fill="#FF9F00"></path>
</svg>