<svg width="24" height="24" viewBox="0 0 24 24" fill="none" xmlns="http://www.w3.org/2000/svg">
<path d="M19.55 10.1501C19.135 10.1501 18.8 10.4851 18.8 10.9001C18.8 11.3151 19.135 11.6501 19.55 11.6501C20.61 11.6501 21.475 12.5151 21.475 13.5751V14.8401C21.475 15.7901 20.78 16.5801 19.87 16.7351C19.525 15.5151 18.415 14.6151 17.09 14.6151C15.75 14.6151 14.63 15.5301 14.3 16.7651H9.66502C9.33002 15.5301 8.21502 14.6151 6.87502 14.6151C5.55002 14.6151 4.44002 15.5151 4.09502 16.7301C3.20502 16.5601 2.53002 15.7801 2.53002 14.8401V13.5751C2.53002 12.5151 3.39502 11.6501 4.45502 11.6501H5.54502C5.82002 11.6501 6.05002 11.4951 6.18002 11.2751C6.20502 11.2451 6.24502 11.2301 6.26502 11.1901L7.74502 8.63014C8.15002 7.92514 8.91002 7.48514 9.72502 7.48514H11.935C12.35 7.48514 12.685 7.15014 12.685 6.73514C12.685 6.32014 12.35 5.98514 11.935 5.98514H9.72502C8.37502 5.98514 7.12002 6.71014 6.44502 7.88014L5.13502 10.1501H4.45002C2.56002 10.1501 1.02502 11.6851 1.02502 13.5751V14.8401C1.02502 16.6001 2.36002 18.0351 4.07002 18.2301C4.39002 19.4851 5.52002 20.4201 6.87002 20.4201C8.21002 20.4201 9.32502 19.5051 9.66002 18.2701H14.3C14.635 19.5051 15.75 20.4201 17.09 20.4201C18.44 20.4201 19.57 19.4851 19.89 18.2351C21.615 18.0601 22.975 16.6151 22.975 14.8451V13.5801C22.975 11.6851 21.44 10.1501 19.55 10.1501ZM6.87002 18.9201C6.10002 18.9201 5.47002 18.2901 5.47002 17.5201C5.47002 16.7501 6.10002 16.1201 6.87002 16.1201C7.64002 16.1201 8.27002 16.7501 8.27002 17.5201C8.27002 18.2901 7.64502 18.9201 6.87002 18.9201ZM17.09 18.9201C16.32 18.9201 15.69 18.2901 15.69 17.5201C15.69 16.7451 16.32 16.1201 17.09 16.1201C17.86 16.1201 18.49 16.7501 18.49 17.5201C18.49 18.2901 17.86 18.9201 17.09 18.9201ZM11.895 9.68514C12.02 9.94514 12.285 10.1151 12.57 10.1151H14.65V12.5101C14.65 12.8251 14.85 13.1101 15.15 13.2151C15.23 13.2451 15.315 13.2601 15.4 13.2601C15.62 13.2601 15.835 13.1601 15.98 12.9851L20.07 7.95014C20.255 7.72514 20.29 7.41514 20.165 7.15514C20.04 6.89514 19.775 6.72514 19.49 6.72514H17.41V4.33014C17.41 4.01514 17.21 3.73014 16.91 3.62514C16.61 3.52014 16.275 3.61014 16.075 3.86014L11.985 8.89514C11.805 9.11514 11.77 9.42514 11.895 9.68514ZM15.91 6.44514V7.48014C15.91 7.89514 16.245 8.23014 16.66 8.23014H17.915L16.15 10.4001V9.36514C16.15 8.95014 15.815 8.61514 15.4 8.61514H14.145L15.91 6.44514Z" fill="#8C39F5"></path>
</svg>