<svg width="24" height="24" viewBox="0 0 24 24" fill="none" xmlns="http://www.w3.org/2000/svg">
<path d="M20.39 8.58L18.5 5.01C18.3 4.42 17.66 4 17 4H6.5C5.84 4 5.46 4.42 5.25 5.01L3.55 8.61C2.8 8.91 2 9.82 2 10.5V19C2 19.55 2.45 20 3 20H4C4.55 20 5 19.55 5 19V18H19V19C19 19.55 19.45 20 20 20H21C21.55 20 22 19.55 22 19V10.5C22 9.79 21.15 8.85 20.39 8.58ZM7 6H17L18.25 8.5H5.75L7 6ZM20 12.03C19.72 11.96 19.09 12.08 18.14 12.53C17.98 12.61 17.51 12.86 17.16 13.1C16.69 13.42 16.05 13.99 16 14.19C16 14.21 16 14.23 16 14.25C16 14.47 16.58 14.51 16.99 14.51C17.15 14.51 17.49 14.48 18.34 14.4C19.01 14.33 19.45 14.28 19.69 14.2C19.77 14.18 19.88 14.12 19.99 14.04V16H4V14.04C4.11 14.11 4.22 14.18 4.3 14.2C4.54 14.28 4.98 14.32 5.65 14.4C6.5 14.47 6.85 14.51 7 14.51C7.41 14.51 7.99 14.47 7.99 14.25C7.99 14.23 7.99 14.21 7.99 14.19C7.94 13.99 7.31 13.42 6.83 13.1C6.48 12.87 6.01 12.61 5.85 12.53C4.9 12.07 4.27 11.96 3.99 12.03V10H20V12.03ZM10.42 12.44C9.34 12.36 8.21 12.21 7 12C8.73 11.66 10.33 11.5 12 11.5C13.67 11.5 15.27 11.66 17 12C15.78 12.21 14.66 12.36 13.58 12.44C13.46 12.44 13.37 12.48 13.26 12.52C13.15 12.56 13.05 12.61 12.96 12.7C12.7 12.96 12.46 13.28 12.25 13.5C12.16 13.6 12.08 13.65 12 13.65C11.92 13.65 11.84 13.6 11.75 13.5C11.54 13.28 11.3 12.96 11.04 12.7C10.95 12.61 10.85 12.56 10.74 12.52C10.63 12.48 10.54 12.45 10.42 12.44Z" fill="#505050"></path>
</svg>