<svg width="28" height="28" viewBox="0 0 28 28" fill="none" xmlns="http://www.w3.org/2000/svg">
<path d="M18.7838 27.8717H9.21712C8.73879 27.8717 8.34212 27.475 8.34212 26.9967C8.34212 26.5183 8.73879 26.1217 9.21712 26.1217H18.7838C19.2621 26.1217 19.6588 26.5183 19.6588 26.9967C19.6588 27.475 19.2621 27.8717 18.7838 27.8717ZM14.0005 25.0367C8.63379 25.0367 4.25879 20.6617 4.25879 15.295C4.25879 9.92832 12.9971 0.793322 13.3588 0.396655C13.6855 0.0466553 14.3038 0.0466553 14.6305 0.396655C15.0038 0.793322 23.7305 10.115 23.7305 15.295C23.7305 20.475 19.3555 25.0367 13.9888 25.0367H14.0005ZM14.0005 12.5417C13.7321 12.845 13.3938 13.2417 13.0321 13.685C11.0605 16.1233 9.92879 18.13 9.92879 19.215C9.92879 21.455 11.7605 23.2867 14.0005 23.2867C16.2405 23.2867 18.0721 21.455 18.0721 19.215C18.0721 18.1417 16.9405 16.1233 14.9688 13.685C14.6071 13.2417 14.2688 12.845 14.0005 12.53V12.5417ZM14.0005 10.36C14.2455 10.36 14.4671 10.465 14.6421 10.64C14.6771 10.675 15.4121 11.4683 16.3338 12.6C18.6555 15.4583 19.8338 17.6983 19.8338 19.2267C19.8338 19.8683 19.7288 20.4983 19.5305 21.0817C21.0471 19.6233 22.0038 17.5817 22.0038 15.3067C22.0038 11.8767 16.7188 5.30832 14.0121 2.29832C11.3055 5.30832 6.02046 11.8767 6.02046 15.3067C6.02046 17.57 6.96546 19.6233 8.49379 21.0817C8.29546 20.4983 8.19046 19.88 8.19046 19.2267C8.19046 17.6983 9.36879 15.47 11.6905 12.6C12.6121 11.4683 13.3471 10.675 13.3821 10.64C13.5455 10.465 13.7788 10.36 14.0238 10.36H14.0005Z" fill="#FF9F00"></path>
</svg>