<svg width="24" height="24" viewBox="0 0 24 24" fill="none" xmlns="http://www.w3.org/2000/svg">
<g clip-path="url(#clip0_182_13729)">
<path fill-rule="evenodd" clip-rule="evenodd" d="M18.0618 0.123092C17.6715 0.0792968 17.2765 0.126204 16.9075 0.259972L18.0618 0.123092ZM16.9075 0.259972C15.042 0.798316 12.1683 1.739 9.3434 3.12469C6.52259 4.50838 3.66182 6.37792 1.94148 8.80835C0.0823382 11.4264 -0.125915 14.2329 0.28371 16.6284C0.691011 19.0104 1.71272 21.0218 2.36934 22.1384L2.37742 22.1519C2.62084 22.5467 2.94768 22.8835 3.33495 23.1389L3.3352 23.139C3.71986 23.3924 4.1551 23.5596 4.61092 23.6287C6.53113 23.9584 10.7426 24.3489 14.251 22.2834C14.6079 22.0732 14.7269 21.6135 14.5168 21.2566C14.3066 20.8996 13.8469 20.7806 13.49 20.9908C10.4569 22.7764 6.69579 22.4656 4.85741 22.149L4.84029 22.1463C4.83202 22.1451 4.82376 22.1438 4.81552 22.1424C6.15532 19.7584 7.61769 17.454 9.1855 15.2197C9.42342 14.8806 9.34143 14.4129 9.00236 14.175C8.6633 13.937 8.19556 14.019 7.95763 14.3581C6.39595 16.5836 4.93509 18.8806 3.59226 21.2578C2.98191 20.1997 2.11273 18.4253 1.76225 16.3756C1.40045 14.2597 1.59505 11.8869 3.16449 9.67683L3.16519 9.67583C4.66779 7.5525 7.25805 5.81836 10.004 4.4714C12.7328 3.13283 15.5281 2.21821 17.3491 1.69375C17.3684 1.6882 17.3874 1.68188 17.4062 1.67481C17.5618 1.61612 17.7293 1.59519 17.8946 1.61374L17.8946 1.61374C18.06 1.6323 18.2185 1.68979 18.3574 1.78156C18.496 1.87329 18.6107 1.99646 18.6921 2.14075L18.6923 2.14108C18.7737 2.28531 18.8197 2.4469 18.8264 2.61269C18.8267 2.62168 18.8273 2.63065 18.828 2.63962C18.9005 3.58842 18.9631 4.80072 18.9646 6.15427C18.9651 6.56848 19.3013 6.90389 19.7155 6.90343C20.1297 6.90296 20.4651 6.5668 20.4646 6.15259C20.4631 4.76079 20.399 3.51495 20.3245 2.53762C20.3062 2.13971 20.1948 1.75135 19.9986 1.40384C19.8003 1.05218 19.5211 0.752853 19.1846 0.530306L19.1844 0.53017C18.8478 0.307665 18.4632 0.168119 18.0619 0.123097M19.0826 8.7133C19.3948 8.81172 19.6071 9.10125 19.6071 9.42861V13.8215H23.1429C23.4225 13.8215 23.6789 13.9771 23.8081 14.2251C23.9372 14.4732 23.9177 14.7725 23.7573 15.0016L17.7573 23.573C17.5696 23.8412 17.2296 23.9566 16.9174 23.8582C16.6052 23.7598 16.3929 23.4702 16.3929 23.1429V18.75H12.8571C12.5775 18.75 12.3211 18.5944 12.1919 18.3464C12.0628 18.0983 12.0823 17.799 12.2427 17.5699L18.2427 8.99851C18.4304 8.73033 18.7704 8.61489 19.0826 8.7133ZM14.2976 17.25H17.1429C17.5571 17.25 17.8929 17.5858 17.8929 18V20.7636L21.7024 15.3215H18.8571C18.4429 15.3215 18.1071 14.9857 18.1071 14.5715V11.8079L14.2976 17.25Z" fill="#028A00"></path>
</g>
<defs>
<clipPath id="clip0_182_13729">
<rect width="24" height="24" fill="white"></rect>
</clipPath>
</defs>
</svg>