<svg width="20" height="22" viewBox="0 0 20 22" fill="none" xmlns="http://www.w3.org/2000/svg">
<path d="M8.57151 8.66071C8.22634 8.66071 7.94651 8.94053 7.94651 9.28571C7.94651 9.63088 8.22634 9.91071 8.57151 9.91071H9.37508V13.6607H7.8572C7.51202 13.6607 7.2322 13.9405 7.2322 14.2857C7.2322 14.6309 7.51202 14.9107 7.8572 14.9107H12.1429C12.4881 14.9107 12.7679 14.6309 12.7679 14.2857C12.7679 13.9405 12.4881 13.6607 12.1429 13.6607H10.6251V9.28571C10.6251 8.94053 10.3453 8.66071 10.0001 8.66071H8.57151Z" fill="#ABABAB"></path>
<path d="M10.0001 6.70832C10.5524 6.70832 11.0001 6.26061 11.0001 5.70832C11.0001 5.15604 10.5524 4.70832 10.0001 4.70832C9.4478 4.70832 9.00008 5.15604 9.00008 5.70832C9.00008 6.26061 9.4478 6.70832 10.0001 6.70832Z" fill="#ABABAB"></path>
<path fill-rule="evenodd" clip-rule="evenodd" d="M0.0893555 9.99995C0.0893555 4.52641 4.52654 0.0892334 10.0001 0.0892334C15.4737 0.0892334 19.9108 4.52642 19.9108 9.99995C19.9108 15.4736 15.4737 19.9107 10.0001 19.9107C4.52654 19.9107 0.0893555 15.4736 0.0893555 9.99995ZM10.0001 1.33923C5.21689 1.33923 1.33936 5.21677 1.33936 9.99995C1.33936 14.7832 5.21689 18.6607 10.0001 18.6607C14.7833 18.6607 18.6608 14.7832 18.6608 9.99995C18.6608 5.21677 14.7833 1.33923 10.0001 1.33923Z" fill="#ABABAB"></path>
</svg>