<svg width="96" height="96" viewBox="0 0 96 96" fill="none" xmlns="http://www.w3.org/2000/svg">
<g clip-path="url(#clip0_7897_66323)">
<g clip-path="url(#clip1_7897_66323)">
<path d="M47.2902 95.79C49.6651 95.79 51.5902 94.8274 51.5902 93.64C51.5902 92.4526 49.6651 91.49 47.2902 91.49C44.9154 91.49 42.9902 92.4526 42.9902 93.64C42.9902 94.8274 44.9154 95.79 47.2902 95.79Z" fill="black"></path>
<path d="M47.2895 96C44.7595 96 42.7695 94.96 42.7695 93.64C42.7695 92.32 44.7495 91.28 47.2895 91.28C49.8295 91.28 51.8095 92.32 51.8095 93.64C51.8095 94.96 49.8295 96 47.2895 96ZM47.2895 91.7C45.0695 91.7 43.1995 92.59 43.1995 93.64C43.1995 94.69 45.0695 95.58 47.2895 95.58C49.5095 95.58 51.3795 94.69 51.3795 93.64C51.3795 92.59 49.5095 91.7 47.2895 91.7Z" fill="black"></path>
<path d="M47.2898 94.66C50.714 94.66 53.4898 93.272 53.4898 91.56C53.4898 89.8479 50.714 88.46 47.2898 88.46C43.8657 88.46 41.0898 89.8479 41.0898 91.56C41.0898 93.272 43.8657 94.66 47.2898 94.66Z" fill="#D4CCC7"></path>
<path d="M47.2901 94.87C43.6901 94.87 40.8701 93.41 40.8701 91.56C40.8701 89.71 43.6901 88.25 47.2901 88.25C50.8901 88.25 53.7101 89.71 53.7101 91.56C53.7101 93.41 50.8901 94.87 47.2901 94.87ZM47.2901 88.67C44.0401 88.67 41.3001 89.99 41.3001 91.56C41.3001 93.13 44.0401 94.45 47.2901 94.45C50.5401 94.45 53.2801 93.13 53.2801 91.56C53.2801 89.99 50.5401 88.67 47.2901 88.67Z" fill="black"></path>
<path d="M47.2897 92.1901C51.7467 92.1901 55.3597 90.3813 55.3597 88.1501C55.3597 85.9189 51.7467 84.1101 47.2897 84.1101C42.8328 84.1101 39.2197 85.9189 39.2197 88.1501C39.2197 90.3813 42.8328 92.1901 47.2897 92.1901Z" fill="#D4CCC7"></path>
<path d="M47.2898 92.3999C42.7198 92.3999 39.0098 90.4899 39.0098 88.1499C39.0098 85.8099 42.7298 83.8999 47.2898 83.8999C51.8498 83.8999 55.5698 85.8099 55.5698 88.1499C55.5698 90.4899 51.8498 92.3999 47.2898 92.3999ZM47.2898 84.3299C42.9598 84.3299 39.4298 86.0499 39.4298 88.1499C39.4298 90.2499 42.9598 91.9699 47.2898 91.9699C51.6198 91.9699 55.1498 90.2499 55.1498 88.1499C55.1498 86.0499 51.6198 84.3299 47.2898 84.3299Z" fill="black"></path>
<path d="M47.2902 77.9799C55.21 77.9799 61.6302 74.7698 61.6302 70.8099C61.6302 66.85 55.21 63.6399 47.2902 63.6399C39.3704 63.6399 32.9502 66.85 32.9502 70.8099C32.9502 74.7698 39.3704 77.9799 47.2902 77.9799Z" fill="#EAE6E3"></path>
<path d="M47.2902 78.1899C39.2702 78.1899 32.7402 74.8799 32.7402 70.8099C32.7402 66.7399 39.2702 63.4299 47.2902 63.4299C55.3102 63.4299 61.8402 66.7399 61.8402 70.8099C61.8402 74.8799 55.3102 78.1899 47.2902 78.1899ZM47.2902 63.8599C39.5002 63.8599 33.1702 66.9799 33.1702 70.8199C33.1702 74.6599 39.5102 77.7699 47.2902 77.7699C55.0702 77.7699 61.4102 74.6499 61.4102 70.8199C61.4102 66.9899 55.0702 63.8599 47.2902 63.8599Z" fill="black"></path>
<path d="M47.2898 89.5301C52.647 89.5301 56.9898 87.3587 56.9898 84.6801C56.9898 82.0015 52.647 79.8301 47.2898 79.8301C41.9327 79.8301 37.5898 82.0015 37.5898 84.6801C37.5898 87.3587 41.9327 89.5301 47.2898 89.5301Z" fill="#D4CCC7"></path>
<path d="M47.2901 89.7499C41.8201 89.7499 37.3701 87.4799 37.3701 84.6899C37.3701 81.8999 41.8201 79.6299 47.2901 79.6299C52.7601 79.6299 57.2101 81.8999 57.2101 84.6899C57.2101 87.4799 52.7601 89.7499 47.2901 89.7499ZM47.2901 80.0399C42.0601 80.0399 37.8001 82.1199 37.8001 84.6799C37.8001 87.2399 42.0601 89.3199 47.2901 89.3199C52.5201 89.3199 56.7801 87.2399 56.7801 84.6799C56.7801 82.1199 52.5201 80.0399 47.2901 80.0399Z" fill="black"></path>
<path d="M47.2902 77.9801C39.3702 77.9801 32.9502 74.7701 32.9502 70.8101V78.9901C32.9502 82.9501 39.3702 86.1601 47.2902 86.1601C55.2102 86.1601 61.6302 82.9501 61.6302 78.9901V70.8101C61.6302 74.7701 55.2102 77.9801 47.2902 77.9801Z" fill="#EAE6E3"></path>
<path d="M47.2902 86.3701C39.2702 86.3701 32.7402 83.0601 32.7402 78.9901V70.8101C32.7402 70.6901 32.8302 70.6001 32.9502 70.6001C33.0702 70.6001 33.1602 70.6901 33.1602 70.8101C33.1602 74.6501 39.5002 77.7601 47.2802 77.7601C55.0602 77.7601 61.4002 74.6401 61.4002 70.8101C61.4002 70.6901 61.4902 70.6001 61.6102 70.6001C61.7302 70.6001 61.8202 70.6901 61.8202 70.8101V78.9901C61.8202 83.0601 55.2902 86.3701 47.2702 86.3701H47.2902ZM33.1702 72.5801V78.9901C33.1702 82.8301 39.5102 85.9401 47.2902 85.9401C55.0702 85.9401 61.4102 82.8201 61.4102 78.9901V72.5801C59.8402 75.8001 54.1002 78.1901 47.2902 78.1901C40.4802 78.1901 34.7302 75.8001 33.1702 72.5801Z" fill="black"></path>
<path d="M53.0899 74.13C55.9452 74.13 58.2599 72.8092 58.2599 71.18C58.2599 69.5507 55.9452 68.23 53.0899 68.23C50.2346 68.23 47.9199 69.5507 47.9199 71.18C47.9199 72.8092 50.2346 74.13 53.0899 74.13Z" fill="#F2F0EF"></path>
<path d="M53.09 74.35C50.12 74.35 47.71 72.93 47.71 71.18C47.71 69.43 50.12 68.01 53.09 68.01C56.06 68.01 58.47 69.43 58.47 71.18C58.47 72.93 56.06 74.35 53.09 74.35ZM53.09 68.44C50.36 68.44 48.14 69.67 48.14 71.18C48.14 72.69 50.36 73.92 53.09 73.92C55.82 73.92 58.04 72.69 58.04 71.18C58.04 69.67 55.82 68.44 53.09 68.44Z" fill="black"></path>
<path d="M42.4005 70.0599C45.2558 70.0599 47.5705 68.7391 47.5705 67.1099C47.5705 65.4807 45.2558 64.1599 42.4005 64.1599C39.5452 64.1599 37.2305 65.4807 37.2305 67.1099C37.2305 68.7391 39.5452 70.0599 42.4005 70.0599Z" fill="#F2F0EF"></path>
<path d="M42.3995 70.2799C39.4295 70.2799 37.0195 68.8599 37.0195 67.1099C37.0195 65.3599 39.4295 63.9399 42.3995 63.9399C45.3695 63.9399 47.7795 65.3599 47.7795 67.1099C47.7795 68.8599 45.3695 70.2799 42.3995 70.2799ZM42.3995 64.3699C39.6695 64.3699 37.4495 65.5999 37.4495 67.1099C37.4495 68.6199 39.6695 69.8499 42.3995 69.8499C45.1295 69.8499 47.3495 68.6199 47.3495 67.1099C47.3495 65.5999 45.1295 64.3699 42.3995 64.3699Z" fill="black"></path>
<path d="M46.4196 59.4399C46.3096 53.4199 41.2296 49.1399 36.4796 48.9199C35.6096 48.8799 34.8396 48.9399 34.1696 49.1099C32.3996 49.5499 31.1696 50.7999 30.8696 52.4499C30.5796 54.0299 31.2596 55.6199 32.6496 56.6099C33.1696 56.9799 33.7996 57.2799 34.5696 57.5299C35.6096 57.8599 36.6796 57.7299 37.5696 57.2499C38.2196 57.7899 38.7696 58.6299 38.7696 59.6499V67.1399C38.7696 67.1399 38.7696 67.1599 38.7696 67.1699C39.6196 67.8499 41.0096 68.2899 42.5796 68.2899C44.1496 68.2899 45.5796 67.8299 46.4196 67.1399V59.6499C46.4196 59.5799 46.4196 59.5199 46.4196 59.4499V59.4399Z" fill="url(#paint0_linear_7897_66323)"></path>
<path d="M42.5795 68.4999C41.0295 68.4999 39.5595 68.0599 38.6395 67.3299C38.5895 67.2899 38.5595 67.2299 38.5595 67.1599V59.6399C38.5595 58.8599 38.1895 58.0899 37.5395 57.4999C36.5895 57.9699 35.5195 58.0599 34.4995 57.7299C33.7095 57.4699 33.0595 57.1599 32.5195 56.7799C31.0695 55.7399 30.3595 54.0699 30.6595 52.4099C30.9695 50.6799 32.2695 49.3699 34.1195 48.8999C34.8095 48.7299 35.5995 48.6599 36.4895 48.6999C42.4395 48.9899 46.5395 54.4799 46.6295 59.4299C46.6295 59.4999 46.6295 59.5699 46.6295 59.6399V67.1299C46.6295 67.1899 46.5995 67.2499 46.5495 67.2899C45.6395 68.0399 44.1495 68.4899 42.5695 68.4899L42.5795 68.4999ZM38.9795 67.0599C39.8295 67.6999 41.1595 68.0699 42.5795 68.0699C43.9995 68.0699 45.3695 67.6799 46.2095 67.0299V59.6399C46.2095 59.5799 46.2095 59.5099 46.2095 59.4499C46.0995 53.5599 41.0895 49.3599 36.4695 49.1299C35.6195 49.0899 34.8695 49.1499 34.2195 49.3099C32.5295 49.7299 31.3595 50.9199 31.0795 52.4799C30.8095 53.9799 31.4595 55.4899 32.7695 56.4299C33.2695 56.7899 33.8795 57.0799 34.6295 57.3199C35.5795 57.6199 36.5895 57.5299 37.4695 57.0499C37.5495 57.0099 37.6395 57.0199 37.7095 57.0699C38.5195 57.7499 38.9895 58.6799 38.9895 59.6299V67.0499L38.9795 67.0599Z" fill="black"></path>
<path d="M66.2297 55.1601C65.9697 52.9201 63.4697 48.7601 62.3797 47.1101C61.6596 48.4601 59.5196 49.4101 57.8596 50.7401C57.1596 51.3001 57.4496 52.7601 56.5996 53.2501C56.9096 53.6801 58.4397 54.7301 58.6297 56.0401C58.6996 56.5301 58.4196 56.8301 58.1896 56.9901C57.9796 57.1301 57.5696 57.3101 57.0496 57.0801C53.0896 55.3301 49.3896 57.7101 49.3896 61.8101V70.6701C49.3896 70.8601 49.3996 71.0401 49.4296 71.2201C50.2896 71.8301 51.6096 72.2301 53.0896 72.2301C54.7396 72.2301 56.1996 71.7401 57.0296 71.0001C57.0296 70.8901 57.0396 70.7901 57.0396 70.6801V64.8501C58.9797 64.9601 60.9297 64.4301 62.5797 63.2701C65.1997 61.4301 66.5997 58.3301 66.2297 55.1701V55.1601Z" fill="url(#paint1_linear_7897_66323)"></path>
<path d="M53.0897 72.4399C51.6197 72.4399 50.2397 72.0599 49.3097 71.3899C49.2597 71.3599 49.2297 71.2999 49.2197 71.2499C49.1897 71.0599 49.1797 70.8599 49.1797 70.6699V61.8099C49.1797 59.8099 50.0397 58.0999 51.5497 57.1199C53.1197 56.0999 55.1597 56.0099 57.1397 56.8899C57.5897 57.0899 57.9197 56.9299 58.0797 56.8199C58.3497 56.6299 58.4697 56.3799 58.4297 56.0799C58.2997 55.1799 57.4597 54.3899 56.9097 53.8599C56.6997 53.6599 56.5297 53.4999 56.4397 53.3799C56.4097 53.3299 56.3897 53.2699 56.3997 53.2099C56.4097 53.1499 56.4497 53.0999 56.4997 53.0699C56.8697 52.8499 56.9797 52.3799 57.1097 51.8799C57.2297 51.3899 57.3497 50.8799 57.7297 50.5799C58.2997 50.1199 58.9297 49.7099 59.5297 49.3199C60.6697 48.5699 61.7397 47.8699 62.1997 47.0199C62.2397 46.9499 62.2997 46.9099 62.3797 46.9099C62.4597 46.9099 62.5297 46.9399 62.5697 46.9999C63.7997 48.8499 66.1997 52.9399 66.4597 55.1399C66.8397 58.3799 65.4097 61.5599 62.7197 63.4399C61.1297 64.5499 59.1997 65.1399 57.2697 65.0699V70.6799C57.2697 70.7899 57.2697 70.9099 57.2497 71.0199C57.2497 71.0699 57.2197 71.1199 57.1797 71.1599C56.2797 71.9699 54.7497 72.4499 53.0997 72.4499L53.0897 72.4399ZM49.6297 71.0999C50.4897 71.6799 51.7397 72.0199 53.0897 72.0199C54.5997 72.0199 55.9897 71.5999 56.8297 70.8999C56.8297 70.8299 56.8297 70.7599 56.8297 70.6799V64.8499C56.8297 64.7899 56.8497 64.7399 56.8997 64.6999C56.9397 64.6599 56.9997 64.6399 57.0597 64.6399C58.9797 64.7499 60.8897 64.1999 62.4697 63.0999C65.0297 61.3099 66.3897 58.2799 66.0297 55.1899C65.7897 53.1699 63.6497 49.4399 62.3897 47.5099C61.8297 48.3099 60.8197 48.9799 59.7597 49.6699C59.1597 50.0599 58.5497 50.4599 57.9897 50.9099C57.7197 51.1299 57.6197 51.5399 57.5097 51.9799C57.3997 52.4399 57.2697 52.9599 56.9097 53.2899C56.9897 53.3699 57.0797 53.4599 57.1797 53.5499C57.7797 54.1199 58.6897 54.9699 58.8297 56.0199C58.8897 56.4799 58.7097 56.8899 58.2997 57.1699C58.1097 57.2999 57.6097 57.5699 56.9497 57.2799C55.0997 56.4599 53.2097 56.5299 51.7697 57.4799C50.3897 58.3799 49.5897 59.9599 49.5897 61.8199V70.6799C49.5897 70.8199 49.5897 70.9599 49.6197 71.1099L49.6297 71.0999Z" fill="black"></path>
<path d="M56.4403 43.2801C56.4903 42.9201 56.3203 42.6201 55.9803 42.3501C55.8603 42.2601 55.7303 42.1601 55.6703 42.1301C57.3503 41.4201 58.2303 40.8901 59.4103 40.0801C61.7103 38.4901 64.4503 35.7101 64.3903 31.5001C64.3403 28.1301 61.9403 25.3801 58.2103 24.0701C58.1903 24.2201 58.1603 24.3701 58.1203 24.5201C58.0903 24.6701 58.0503 24.8101 58.0103 24.9501C58.0103 24.9501 58.0103 24.9501 58.0103 24.9601C57.9703 25.1001 57.9203 25.2401 57.8803 25.3701V25.3901C57.8303 25.5201 57.7803 25.6501 57.7203 25.7801C57.7203 25.7901 57.7103 25.8001 57.7003 25.8201C57.6503 25.9501 57.5903 26.0701 57.5303 26.1901C57.5303 26.2101 57.5103 26.2201 57.5103 26.2401C57.4503 26.3601 57.3903 26.4701 57.3203 26.5901C57.3103 26.6101 57.3003 26.6301 57.2803 26.6501C57.2103 26.7601 57.1503 26.8701 57.0703 26.9801C57.0503 27.0001 57.0403 27.0301 57.0203 27.0501C56.9503 27.1501 56.8803 27.2501 56.8003 27.3501C56.7803 27.3801 56.7603 27.4101 56.7303 27.4301C56.6603 27.5201 56.5803 27.6201 56.5003 27.7101C56.4703 27.7401 56.4403 27.7701 56.4103 27.8101C56.3303 27.9001 56.2503 27.9801 56.1703 28.0701C56.1303 28.1101 56.1003 28.1401 56.0603 28.1801C55.9803 28.2601 55.9003 28.3401 55.8203 28.4201C55.7803 28.4601 55.7303 28.5001 55.6803 28.5401C55.6003 28.6101 55.5203 28.6801 55.4403 28.7501C55.3803 28.8001 55.3303 28.8401 55.2703 28.8901C55.1903 28.9501 55.1203 29.0101 55.0403 29.0801C54.9703 29.1301 54.9003 29.1801 54.8303 29.2301C54.7603 29.2801 54.6903 29.3401 54.6103 29.3901C54.5203 29.4501 54.4203 29.5101 54.3303 29.5701C54.2703 29.6101 54.2103 29.6501 54.1503 29.6901C53.9903 29.7901 53.8303 29.8801 53.6603 29.9801C53.4903 30.0701 53.3203 30.1601 53.1503 30.2501C54.7203 30.5201 56.5503 31.0701 56.7203 31.8301C56.4503 33.4701 52.9103 35.4001 47.1203 37.0301C42.5203 38.3301 38.4103 38.3301 35.4103 38.3201H35.0603C33.0103 38.3201 31.3203 39.9401 31.2403 41.9901C31.1603 44.0401 32.7003 45.7901 34.7503 45.9601C34.8003 45.9601 39.6203 46.3701 44.8203 47.4201C46.2303 47.7001 48.2903 48.2601 49.8203 48.7401C52.8603 47.5901 56.1303 45.7601 56.4703 43.2701L56.4403 43.2801Z" fill="url(#paint2_linear_7897_66323)"></path>
<path d="M49.7902 48.96C49.7902 48.96 49.7502 48.96 49.7302 48.95C48.1602 48.45 46.1202 47.91 44.7602 47.63C39.5802 46.59 34.7702 46.18 34.7202 46.18C32.5502 46 30.9302 44.16 31.0202 41.99C31.1102 39.82 32.8802 38.12 35.0502 38.12H35.4002C38.3902 38.12 42.4702 38.12 47.0502 36.83C52.6602 35.25 56.1802 33.39 56.4902 31.84C56.3202 31.33 54.9702 30.78 53.1002 30.46C53.0102 30.44 52.9402 30.37 52.9302 30.28C52.9202 30.19 52.9602 30.1 53.0402 30.06C53.2102 29.97 53.3802 29.88 53.5402 29.79C53.7002 29.7 53.8602 29.6 54.0202 29.51L54.2702 29.35C54.3402 29.31 54.4102 29.26 54.4702 29.22C54.5202 29.18 54.5702 29.15 54.6302 29.11L54.9002 28.92C54.9602 28.87 55.0202 28.83 55.0802 28.78L55.1802 28.7C55.1802 28.7 55.2602 28.64 55.3002 28.6C55.3802 28.54 55.4502 28.47 55.5202 28.41L55.6702 28.27C55.7502 28.2 55.8302 28.12 55.9002 28.04L56.0102 27.93C56.0902 27.85 56.1702 27.76 56.2402 27.68L56.3202 27.59C56.4002 27.5 56.4702 27.41 56.5402 27.32L56.6002 27.24C56.6702 27.14 56.7502 27.04 56.8102 26.94L56.8602 26.87C56.9302 26.77 57.0002 26.66 57.0602 26.55L57.2802 26.6L57.1002 26.49C57.1702 26.38 57.2302 26.26 57.2902 26.15C57.3702 25.99 57.4302 25.87 57.4802 25.74C57.5502 25.58 57.6002 25.45 57.6502 25.32C57.7102 25.16 57.7502 25.03 57.7902 24.9C57.8302 24.75 57.8702 24.61 57.9002 24.47C57.9302 24.32 57.9602 24.17 57.9902 24.03C57.9902 23.97 58.0402 23.91 58.0902 23.88C58.1402 23.85 58.2102 23.84 58.2702 23.86C62.1802 25.23 64.5402 28.09 64.5902 31.49C64.6602 35.8 61.8702 38.63 59.5202 40.25C58.4002 41.02 57.5702 41.52 56.1002 42.17C56.5202 42.51 56.7002 42.88 56.6402 43.3C56.2902 45.97 52.7602 47.84 49.8602 48.94C49.8402 48.94 49.8102 48.95 49.7802 48.95L49.7902 48.96ZM35.0502 38.54C33.1102 38.54 31.5202 40.06 31.4402 42C31.3602 43.94 32.8102 45.59 34.7502 45.75C34.8002 45.75 39.6302 46.16 44.8402 47.21C46.2002 47.48 48.2202 48.02 49.7902 48.51C52.5702 47.45 55.9102 45.68 56.2302 43.24C56.2702 42.97 56.1502 42.75 55.8502 42.5C55.7502 42.42 55.6302 42.33 55.5802 42.31C55.5102 42.27 55.4602 42.2 55.4702 42.11C55.4702 42.03 55.5202 41.96 55.6002 41.92C57.2702 41.21 58.1202 40.7 59.3002 39.89C61.5602 38.33 64.2502 35.61 64.1802 31.48C64.1302 28.33 61.9702 25.67 58.3702 24.33C58.3602 24.4 58.3402 24.47 58.3302 24.54C58.2902 24.7 58.2602 24.84 58.2102 24.99C58.1602 25.15 58.1202 25.29 58.0702 25.43C58.0102 25.59 57.9602 25.73 57.9002 25.86C57.8302 26.03 57.7702 26.15 57.7002 26.28L57.6702 26.33C57.6102 26.45 57.5402 26.57 57.4702 26.69L57.4302 26.75C57.3602 26.86 57.2902 26.98 57.2202 27.09L57.1802 27.14C57.0902 27.26 57.0202 27.37 56.9402 27.47L56.9002 27.52C56.8002 27.65 56.7202 27.75 56.6402 27.84L56.5902 27.9C56.4802 28.03 56.4002 28.12 56.3102 28.2L56.2002 28.31C56.1202 28.39 56.0402 28.47 55.9502 28.55L55.8102 28.67C55.7202 28.75 55.6402 28.82 55.5602 28.89C55.5202 28.93 55.4702 28.96 55.4302 29L55.3402 29.07C55.2802 29.12 55.2202 29.17 55.1502 29.22C55.1002 29.26 55.0502 29.29 55.0002 29.33L54.8802 29.42C54.8302 29.46 54.7702 29.5 54.7102 29.54C54.6402 29.59 54.5702 29.63 54.5002 29.68L54.2502 29.84C54.0902 29.94 53.9302 30.03 53.7702 30.12C54.9502 30.37 56.7202 30.88 56.9202 31.75C56.9202 31.78 56.9202 31.8 56.9202 31.83C56.6302 33.57 53.0802 35.53 47.1702 37.2C42.5402 38.51 38.4202 38.5 35.4002 38.5H35.0502V38.54Z" fill="black"></path>
<path d="M43.52 45.86C43.42 45.86 43.33 45.79 43.31 45.69C43.29 45.58 43.36 45.46 43.48 45.44C51.61 43.82 55.54 41.95 55.58 41.94C55.68 41.89 55.81 41.94 55.86 42.04C55.91 42.15 55.86 42.27 55.76 42.32C55.72 42.34 51.75 44.23 43.56 45.86C43.55 45.86 43.53 45.86 43.52 45.86Z" fill="black"></path>
<path d="M57.0501 65.0599C57.0501 65.0599 57.0301 65.0599 57.0201 65.0599C55.4601 64.8499 54.0001 64.1599 52.5701 62.9499C52.4801 62.8699 52.4701 62.7399 52.5401 62.6499C52.6201 62.5599 52.7501 62.5499 52.8401 62.6199C54.2101 63.7799 55.6001 64.4399 57.0801 64.6299C57.2001 64.6499 57.2801 64.7499 57.2601 64.8699C57.2501 64.9799 57.1501 65.0499 57.0501 65.0499V65.0599Z" fill="black"></path>
<path d="M55.3301 33.59C53.5901 32.94 51.6901 32.4 49.7901 31.92L49.6701 31.88C51.0401 31.35 52.3701 30.72 53.6101 29.94C54.9701 29.09 56.2501 28.06 57.1601 26.74C58.0701 25.42 58.5301 23.77 58.3101 22.18C57.4901 16.16 46.8501 14.09 40.6501 18.98C37.7501 21.27 39.1501 24.82 39.1501 24.82C37.4001 25.28 30.2301 26.59 30.3601 31.63C30.5301 37.76 39.6101 38 42.1101 38C43.6801 37.81 45.3501 37.51 47.0901 37.01C50.9001 35.93 53.7401 34.73 55.3101 33.57L55.3301 33.59Z" fill="url(#paint3_linear_7897_66323)"></path>
<path d="M42.1402 38.2299C38.5702 38.2299 30.3302 37.5799 30.1602 31.6499C30.0302 26.8199 36.2702 25.3099 38.6102 24.7499C38.7102 24.7299 38.8002 24.6999 38.8802 24.6799C38.6202 23.8399 37.9402 20.8599 40.5202 18.8199C44.1002 15.9899 49.5902 15.2199 53.8802 16.9499C56.5602 18.0299 58.2102 19.8799 58.5202 22.1499C58.7402 23.7299 58.3002 25.4399 57.3402 26.8599C56.5302 28.0499 55.3402 29.1099 53.7302 30.1199C52.7002 30.7699 51.5602 31.3399 50.3502 31.8399C52.3302 32.3499 53.9902 32.8499 55.4102 33.3899C55.4802 33.4199 55.5302 33.4799 55.5502 33.5599C55.5602 33.6399 55.5302 33.7099 55.4702 33.7599C53.8502 34.9599 50.9802 36.1599 47.1802 37.2399C45.5702 37.6999 43.9302 38.0199 42.1602 38.2299H42.1502H42.1402ZM48.9002 16.4699C46.1902 16.4699 43.2302 17.2299 40.7902 19.1499C38.0602 21.3099 39.3002 24.6099 39.3602 24.7499C39.3802 24.8099 39.3802 24.8699 39.3602 24.9199C39.3402 24.9699 39.2802 25.0099 39.2302 25.0299C39.0902 25.0699 38.9302 25.1099 38.7302 25.1499C36.4702 25.6999 30.4802 27.1399 30.6002 31.6299C30.7502 37.1999 38.7202 37.7999 42.1402 37.7999C43.8502 37.5899 45.4702 37.2699 47.0702 36.8199C50.5802 35.8299 53.2702 34.7399 54.9002 33.6399C53.4602 33.1199 51.7702 32.6199 49.7602 32.1199L49.6302 32.0799C49.5402 32.0499 49.4902 31.9699 49.4802 31.8799C49.4802 31.7899 49.5302 31.7099 49.6202 31.6799C51.0302 31.1399 52.3502 30.4899 53.5302 29.7599C55.1002 28.7799 56.2402 27.7499 57.0202 26.6199C57.9302 25.2899 58.3302 23.6899 58.1302 22.2099C57.8402 20.0999 56.2902 18.3699 53.7502 17.3499C52.4002 16.7999 50.7102 16.4699 48.9202 16.4699H48.9002Z" fill="black"></path>
<path d="M35.8096 34.53C35.6996 34.53 35.6096 34.44 35.5996 34.33C35.5996 34.21 35.6796 34.11 35.7996 34.11C38.5196 33.95 41.4396 33.72 44.3196 33.17C46.2296 32.8 47.9996 32.31 49.5996 31.7C49.7096 31.66 49.8296 31.71 49.8696 31.82C49.9096 31.93 49.8596 32.05 49.7496 32.09C48.1296 32.71 46.3296 33.21 44.3996 33.58C41.4996 34.14 38.5596 34.37 35.8296 34.53C35.8296 34.53 35.8296 34.53 35.8196 34.53H35.8096Z" fill="black"></path>
<path d="M39.1601 25.04C39.0701 25.04 38.9801 24.98 38.9601 24.88C38.9301 24.77 39.0001 24.65 39.1101 24.62C40.3301 24.3 41.5901 24.02 42.8101 23.75C46.3301 22.97 49.9801 22.16 53.0701 20.26C53.1701 20.2 53.3001 20.23 53.3601 20.33C53.4201 20.43 53.3901 20.56 53.2901 20.62C50.1401 22.56 46.4601 23.37 42.9001 24.16C41.6901 24.43 40.4301 24.71 39.2201 25.02C39.2001 25.02 39.1801 25.02 39.1701 25.02L39.1601 25.04Z" fill="black"></path>
<path d="M34.5596 57.53C36.1996 58.06 38.1296 58.32 40.2496 58.32C42.9996 58.32 46.0496 57.88 49.1596 57C53.5396 55.76 56.8596 54.21 59.3096 52.26C62.9596 49.36 63.9096 46.06 64.0696 43.8C64.2196 41.58 63.5096 39.51 62.0096 37.77C61.1896 38.72 60.2696 39.48 59.3996 40.08C58.2196 40.89 57.3496 41.42 55.6596 42.13C56.1996 42.47 56.4896 42.81 56.4296 43.28C55.9896 46.56 50.4696 48.68 47.0696 49.64C45.1496 50.18 43.2096 50.51 41.4696 50.63C39.7296 50.75 38.0596 50.63 36.8996 50.25" fill="url(#paint4_linear_7897_66323)"></path>
<path d="M40.2502 58.53C38.0902 58.53 36.1502 58.26 34.5002 57.73C34.3902 57.69 34.3302 57.57 34.3602 57.46C34.3902 57.35 34.5102 57.29 34.6302 57.32C36.2402 57.84 38.1302 58.1 40.2502 58.1C43.0002 58.1 46.0602 57.65 49.1002 56.79C53.4602 55.56 56.7502 54.02 59.1802 52.09C62.7702 49.23 63.7102 46 63.8602 43.78C64.0002 41.71 63.3702 39.74 62.0102 38.09C61.3102 38.87 60.4802 39.59 59.5302 40.25C58.4102 41.02 57.5802 41.52 56.1002 42.17C56.4202 42.43 56.7102 42.79 56.6502 43.3C56.1702 46.91 49.8402 49.08 47.1402 49.84C45.2402 50.38 43.2902 50.72 41.4902 50.83C39.6102 50.95 38.0102 50.82 36.8402 50.44C36.7302 50.4 36.6702 50.28 36.7002 50.17C36.7402 50.06 36.8502 50 36.9702 50.03C38.0802 50.39 39.6302 50.51 41.4602 50.4C43.2302 50.29 45.1502 49.95 47.0202 49.42C49.6402 48.68 55.7802 46.6 56.2302 43.24C56.2702 42.91 56.0702 42.62 55.5602 42.3C55.4902 42.26 55.4602 42.18 55.4602 42.1C55.4602 42.02 55.5202 41.95 55.5902 41.92C57.2602 41.21 58.1102 40.7 59.2902 39.89C60.2902 39.2 61.1502 38.44 61.8602 37.62C61.9402 37.53 62.1002 37.53 62.1802 37.62C63.7202 39.4 64.4502 41.54 64.2902 43.81C64.1302 46.11 63.1602 49.47 59.4502 52.42C56.9802 54.39 53.6302 55.95 49.2202 57.2C46.1402 58.07 43.0402 58.53 40.2602 58.53H40.2502Z" fill="black"></path>
<path d="M40.1901 50.8799C38.8701 50.8799 37.7301 50.7299 36.8401 50.4499C36.7301 50.4099 36.6701 50.2899 36.7001 50.1799C36.7401 50.0699 36.8501 50.0099 36.9701 50.0399C38.0801 50.3999 39.6301 50.5199 41.4601 50.4099C41.5801 50.4099 41.6801 50.4899 41.6901 50.6099C41.6901 50.7299 41.6101 50.8299 41.4901 50.8399C41.0401 50.8699 40.6101 50.8799 40.1901 50.8799Z" fill="black"></path>
<path d="M72.2397 14.1599L66.7697 19.2499L68.9597 20.1799L65.1797 23.6299L72.2397 19.5799L69.6697 18.4799L72.2397 14.1599Z" fill="white"></path>
<path d="M65.1802 23.8399C65.1102 23.8399 65.0503 23.8099 65.0103 23.7499C64.9503 23.6599 64.9603 23.5399 65.0403 23.4699L68.5702 20.2499L66.6802 19.4499C66.6102 19.4199 66.5703 19.3599 66.5503 19.2899C66.5403 19.2199 66.5603 19.1499 66.6103 19.0999L72.0803 14.0099C72.1603 13.9399 72.2803 13.9299 72.3602 14.0099C72.4402 14.0799 72.4603 14.1899 72.4103 14.2799L69.9602 18.3999L72.3102 19.3999C72.3802 19.4299 72.4303 19.4999 72.4403 19.5799C72.4403 19.6599 72.4003 19.7399 72.3303 19.7799L65.2702 23.8299C65.2702 23.8299 65.2003 23.8599 65.1603 23.8599L65.1802 23.8399ZM67.1603 19.1799L69.0503 19.9799C69.1203 20.0099 69.1602 20.0699 69.1802 20.1399C69.1902 20.2099 69.1702 20.2799 69.1102 20.3299L66.7603 22.4799L71.7802 19.5999L69.6002 18.6699C69.5402 18.6499 69.5003 18.5999 69.4803 18.5399C69.4603 18.4799 69.4702 18.4199 69.5002 18.3699L71.3202 15.3199L67.1702 19.1799H67.1603Z" fill="black"></path>
<path d="M23.75 14.3201L29.34 19.5201L28.3 21.2701L30.37 24.0601L25.31 21.6601L27.06 19.7101L23.75 14.3201Z" fill="white"></path>
<path d="M30.3704 24.2699C30.3704 24.2699 30.3104 24.2699 30.2804 24.2499L25.2204 21.8499C25.1604 21.8199 25.1204 21.7699 25.1004 21.6999C25.0804 21.6299 25.1004 21.5699 25.1504 21.5199L26.7904 19.6899L23.5704 14.4399C23.5104 14.3499 23.5304 14.2299 23.6204 14.1699C23.7004 14.0999 23.8204 14.1099 23.9004 14.1699L29.4804 19.3599C29.5504 19.4299 29.5704 19.5399 29.5204 19.6199L28.5504 21.2499L30.5404 23.9299C30.6004 24.0099 30.6004 24.1199 30.5404 24.1899C30.5004 24.2399 30.4404 24.2699 30.3804 24.2699H30.3704ZM25.6604 21.5899L29.6904 23.5099L28.1204 21.3999C28.0704 21.3299 28.0604 21.2399 28.1104 21.1699L29.0604 19.5599L24.7404 15.5399L27.2304 19.5999C27.2804 19.6799 27.2704 19.7799 27.2104 19.8499L25.6504 21.5899H25.6604Z" fill="black"></path>
<path d="M49.3301 8.99997C49.3301 6.56997 50.3401 4.60997 51.5801 4.60997C50.3401 4.60997 49.3301 2.63997 49.3301 0.219971C49.3301 2.64997 48.3201 4.60997 47.0801 4.60997C48.3201 4.60997 49.3301 6.57997 49.3301 8.99997Z" fill="white"></path>
<path d="M49.3299 9.21C49.2099 9.21 49.1199 9.12 49.1199 9C49.1199 6.73 48.1899 4.82 47.0899 4.82C46.9699 4.82 46.8799 4.73 46.8799 4.61C46.8799 4.49 46.9699 4.4 47.0899 4.4C48.1899 4.4 49.1199 2.49 49.1199 0.22C49.1199 0.09 49.2099 0 49.3299 0C49.4499 0 49.5399 0.09 49.5399 0.21C49.5399 2.48 50.4699 4.39 51.5699 4.39C51.6899 4.39 51.7799 4.48 51.7799 4.6C51.7799 4.72 51.6899 4.81 51.5699 4.81C50.4699 4.81 49.5399 6.72 49.5399 8.99C49.5399 9.11 49.4499 9.2 49.3299 9.2V9.21ZM47.8299 4.61C48.4999 5 49.0399 5.91 49.3199 7.1C49.5999 5.91 50.1399 5 50.8099 4.61C50.1399 4.22 49.5999 3.31 49.3199 2.12C49.0399 3.31 48.4999 4.22 47.8299 4.61Z" fill="black"></path>
<path d="M43.6 11.53C43.6 10.34 44.09 9.36996 44.7 9.36996C44.09 9.36996 43.6 8.39996 43.6 7.20996C43.6 8.39996 43.11 9.36996 42.5 9.36996C43.11 9.36996 43.6 10.34 43.6 11.53Z" fill="white"></path>
<path d="M43.6 11.74C43.48 11.74 43.39 11.65 43.39 11.53C43.39 10.38 42.92 9.58 42.5 9.58C42.38 9.58 42.29 9.49 42.29 9.37C42.29 9.25 42.38 9.16 42.5 9.16C42.92 9.16 43.39 8.36 43.39 7.21C43.39 7.09 43.48 7 43.6 7C43.72 7 43.81 7.09 43.81 7.21C43.81 8.36 44.28 9.16 44.7 9.16C44.82 9.16 44.91 9.25 44.91 9.37C44.91 9.49 44.82 9.58 44.7 9.58C44.28 9.58 43.81 10.38 43.81 11.53C43.81 11.65 43.72 11.74 43.6 11.74ZM43.05 9.37C43.28 9.55 43.47 9.85 43.6 10.22C43.73 9.85 43.92 9.55 44.15 9.37C43.92 9.19 43.73 8.89 43.6 8.52C43.47 8.89 43.28 9.19 43.05 9.37Z" fill="black"></path>
<path d="M31.2201 18.2299C31.2201 17.0399 31.7101 16.0699 32.3201 16.0699C31.7101 16.0699 31.2201 15.0999 31.2201 13.9099C31.2201 15.0999 30.7301 16.0699 30.1201 16.0699C30.7301 16.0699 31.2201 17.0399 31.2201 18.2299Z" fill="white"></path>
<path d="M31.2202 18.44C31.1002 18.44 31.0102 18.35 31.0102 18.23C31.0102 17.08 30.5402 16.28 30.1202 16.28C30.0002 16.28 29.9102 16.19 29.9102 16.07C29.9102 15.95 30.0002 15.86 30.1202 15.86C30.5402 15.86 31.0102 15.06 31.0102 13.91C31.0102 13.79 31.1002 13.7 31.2202 13.7C31.3402 13.7 31.4302 13.79 31.4302 13.91C31.4302 15.06 31.9002 15.86 32.3202 15.86C32.4402 15.86 32.5302 15.95 32.5302 16.07C32.5302 16.19 32.4402 16.28 32.3202 16.28C31.9002 16.28 31.4302 17.08 31.4302 18.23C31.4302 18.35 31.3402 18.44 31.2202 18.44ZM30.6702 16.07C30.9002 16.25 31.0902 16.55 31.2202 16.92C31.3502 16.55 31.5402 16.25 31.7702 16.07C31.5402 15.89 31.3502 15.59 31.2202 15.22C31.0902 15.59 30.9002 15.89 30.6702 16.07Z" fill="black"></path>
<path d="M52.85 13.9101C52.85 12.7201 53.34 11.7501 53.95 11.7501C53.34 11.7501 52.85 10.7801 52.85 9.59009C52.85 10.7801 52.36 11.7501 51.75 11.7501C52.36 11.7501 52.85 12.7201 52.85 13.9101Z" fill="white"></path>
<path d="M52.85 14.1199C52.73 14.1199 52.64 14.0299 52.64 13.9099C52.64 12.7599 52.17 11.9599 51.75 11.9599C51.63 11.9599 51.54 11.8699 51.54 11.7499C51.54 11.6299 51.63 11.5399 51.75 11.5399C52.17 11.5399 52.64 10.7399 52.64 9.58988C52.64 9.46988 52.73 9.37988 52.85 9.37988C52.97 9.37988 53.06 9.46988 53.06 9.58988C53.06 10.7399 53.53 11.5399 53.95 11.5399C54.07 11.5399 54.16 11.6299 54.16 11.7499C54.16 11.8699 54.07 11.9599 53.95 11.9599C53.53 11.9599 53.06 12.7599 53.06 13.9099C53.06 14.0299 52.97 14.1199 52.85 14.1199ZM52.3 11.7499C52.53 11.9299 52.72 12.2299 52.85 12.5999C52.98 12.2299 53.17 11.9299 53.4 11.7499C53.17 11.5699 52.98 11.2699 52.85 10.8999C52.72 11.2699 52.53 11.5699 52.3 11.7499Z" fill="black"></path>
<path d="M65.4601 17.64C65.4601 16.15 66.0801 14.95 66.8401 14.95C66.0801 14.95 65.4601 13.75 65.4601 12.26C65.4601 13.75 64.8401 14.95 64.0801 14.95C64.8401 14.95 65.4601 16.15 65.4601 17.64Z" fill="white"></path>
<path d="M65.4599 17.85C65.3399 17.85 65.2499 17.76 65.2499 17.64C65.2499 16.16 64.6499 15.16 64.0899 15.16C63.9699 15.16 63.8799 15.07 63.8799 14.95C63.8799 14.83 63.9699 14.74 64.0899 14.74C64.6499 14.74 65.2499 13.74 65.2499 12.26C65.2499 12.14 65.3399 12.05 65.4599 12.05C65.5799 12.05 65.6699 12.14 65.6699 12.26C65.6699 13.74 66.2699 14.74 66.8299 14.74C66.9499 14.74 67.0399 14.83 67.0399 14.95C67.0399 15.07 66.9499 15.16 66.8299 15.16C66.2699 15.16 65.6699 16.16 65.6699 17.64C65.6699 17.76 65.5799 17.85 65.4599 17.85ZM64.6899 14.95C65.0199 15.19 65.2899 15.62 65.4599 16.17C65.6299 15.62 65.8999 15.19 66.2299 14.95C65.8999 14.71 65.6299 14.28 65.4599 13.73C65.2899 14.28 65.0199 14.71 64.6899 14.95Z" fill="black"></path>
</g>
</g>
<defs>
<linearGradient id="paint0_linear_7897_66323" x1="228.54" y1="592.12" x2="232.47" y2="603.19" gradientUnits="userSpaceOnUse">
<stop stop-color="#FFA5FF"></stop>
<stop offset="1" stop-color="#FCFC3C"></stop>
</linearGradient>
<linearGradient id="paint1_linear_7897_66323" x1="58.7197" y1="66.4401" x2="55.6097" y2="54.7101" gradientUnits="userSpaceOnUse">
<stop stop-color="#FFA5FF"></stop>
<stop offset="1" stop-color="#FCFC3C"></stop>
</linearGradient>
<linearGradient id="paint2_linear_7897_66323" x1="54.6303" y1="50.1601" x2="48.4003" y2="37.7101" gradientUnits="userSpaceOnUse">
<stop stop-color="#FFA5FF"></stop>
<stop offset="1" stop-color="#FCFC3C"></stop>
</linearGradient>
<linearGradient id="paint3_linear_7897_66323" x1="53.0101" y1="40.39" x2="39.3601" y2="19.56" gradientUnits="userSpaceOnUse">
<stop stop-color="#FFA5FF"></stop>
<stop offset="1" stop-color="#FCFC3C"></stop>
</linearGradient>
<linearGradient id="paint4_linear_7897_66323" x1="38.9196" y1="54.23" x2="59.7496" y2="45.85" gradientUnits="userSpaceOnUse">
<stop stop-color="#FFA5FF"></stop>
<stop offset="1" stop-color="#FCFC3C"></stop>
</linearGradient>
<clipPath id="clip0_7897_66323">
<rect width="96" height="96" fill="white"></rect>
</clipPath>
<clipPath id="clip1_7897_66323">
<rect width="96" height="96" fill="white"></rect>
</clipPath>
</defs>
</svg>