<svg width="24" height="24" viewBox="0 0 24 24" fill="none" xmlns="http://www.w3.org/2000/svg">
<path d="M14.42 23.61C13.79 23.61 13.16 23.37 12.68 22.89L1.11001 11.32C0.640015 10.85 0.390015 10.24 0.390015 9.57999V2.56999C0.390015 1.20999 1.49001 0.109985 2.85001 0.109985H9.85001C10.51 0.109985 11.13 0.369985 11.59 0.829985L23.16 12.4C24.12 13.36 24.12 14.92 23.16 15.89L16.16 22.89C15.68 23.37 15.05 23.61 14.42 23.61ZM2.85001 1.60999C2.32001 1.60999 1.89001 2.03999 1.89001 2.56999V9.56999C1.89001 9.81999 1.99001 10.07 2.17001 10.25L13.74 21.82C14.12 22.2 14.73 22.2 15.1 21.82L22.1 14.82C22.48 14.44 22.48 13.83 22.1 13.46L10.54 1.88999C10.36 1.70999 10.12 1.60999 9.86001 1.60999H2.85001ZM6.71001 8.03999C5.82001 8.03999 5.10001 7.31998 5.10001 6.42999C5.10001 5.53999 5.82001 4.81999 6.71001 4.81999C7.60001 4.81999 8.32001 5.53999 8.32001 6.42999C8.32001 7.31998 7.60001 8.03999 6.71001 8.03999ZM6.71001 6.31999C6.65001 6.31999 6.60001 6.36999 6.60001 6.42999C6.60001 6.54998 6.81001 6.54998 6.81001 6.42999C6.81001 6.36999 6.76001 6.31999 6.70001 6.31999H6.71001Z" fill="#8C39F5"></path>
</svg>