<svg width="24" height="24" viewBox="0 0 24 24" fill="none" xmlns="http://www.w3.org/2000/svg">
<g clip-path="url(#clip0_182_14337)">
<path d="M12.7501 0.857117C12.7501 0.442903 12.4143 0.107117 12.0001 0.107117C11.5858 0.107117 11.2501 0.442903 11.2501 0.857117V2.5714C11.2501 2.98562 11.5858 3.3214 12.0001 3.3214C12.4143 3.3214 12.7501 2.98562 12.7501 2.5714V0.857117Z" fill="#8C39F5"></path>
<path d="M20.5715 10.3929C20.1573 10.3929 19.8215 10.7287 19.8215 11.1429C19.8215 11.5571 20.1573 11.8929 20.5715 11.8929H22.2858C22.7 11.8929 23.0358 11.5571 23.0358 11.1429C23.0358 10.7287 22.7 10.3929 22.2858 10.3929H20.5715Z" fill="#8C39F5"></path>
<path d="M0.964355 11.1429C0.964355 10.7287 1.30014 10.3929 1.71436 10.3929H3.42864C3.84286 10.3929 4.17864 10.7287 4.17864 11.1429C4.17864 11.5571 3.84286 11.8929 3.42864 11.8929H1.71436C1.30014 11.8929 0.964355 11.5571 0.964355 11.1429Z" fill="#8C39F5"></path>
<path d="M5.25732 3.33936C4.96443 3.04647 4.48955 3.04647 4.19666 3.33936C3.90377 3.63225 3.90377 4.10713 4.19666 4.40002L5.40885 5.61221C5.70174 5.9051 6.17662 5.9051 6.46951 5.61221C6.7624 5.31932 6.7624 4.84444 6.46951 4.55155L5.25732 3.33936Z" fill="#8C39F5"></path>
<path d="M19.8034 3.33936C20.0963 3.63225 20.0963 4.10712 19.8034 4.40002L18.5912 5.61221C18.2984 5.9051 17.8235 5.9051 17.5306 5.61221C17.2377 5.31932 17.2377 4.84445 17.5306 4.55155L18.7428 3.33936C19.0356 3.04647 19.5105 3.04646 19.8034 3.33936Z" fill="#8C39F5"></path>
<path fill-rule="evenodd" clip-rule="evenodd" d="M6.00007 13.8214C5.71599 13.8214 5.45629 13.9819 5.32925 14.236L3.19385 18.5068C3.18847 18.517 3.18333 18.5273 3.17841 18.5377L1.04354 22.8074C0.92729 23.0399 0.939713 23.316 1.07637 23.5371C1.21302 23.7583 1.45442 23.8928 1.71436 23.8928H7.69749C7.70896 23.8931 7.7204 23.8931 7.7318 23.8928H16.2683C16.2797 23.8931 16.2912 23.8931 16.3027 23.8928H22.2858C22.5457 23.8928 22.7871 23.7583 22.9238 23.5371C23.0604 23.316 23.0729 23.0399 22.9566 22.8074L20.8204 18.5349C20.8163 18.5264 20.812 18.5179 20.8076 18.5095L18.6709 14.236C18.5438 13.9819 18.2841 13.8214 18.0001 13.8214H13.7318C13.7204 13.8211 13.709 13.8211 13.6975 13.8214H10.3026C10.2912 13.8211 10.2798 13.8211 10.2684 13.8214H6.00007ZM21.0723 22.3928H16.8438L16.0081 19.6071H19.6794L21.0723 22.3928ZM15.2778 22.3928L14.442 19.6071H9.5581L8.72238 22.3928H15.2778ZM18.9294 18.1071H15.5581L14.7224 15.3214H17.5365L18.9294 18.1071ZM13.992 18.1071L13.1563 15.3214H10.8438L10.0081 18.1071H13.992ZM9.27776 15.3214H6.4636L5.07074 18.1071H8.44205L9.27776 15.3214ZM7.99205 19.6071H4.32074L2.92788 22.3928H7.15633L7.99205 19.6071Z" fill="#8C39F5"></path>
<path d="M12 5.25C8.74551 5.25 6.10718 7.88833 6.10718 11.1429C6.10718 11.5571 6.44297 11.8929 6.85718 11.8929C7.27139 11.8929 7.60718 11.5571 7.60718 11.1429C7.60718 8.71676 9.57393 6.75 12 6.75C14.4261 6.75 16.3929 8.71676 16.3929 11.1429C16.3929 11.5571 16.7287 11.8929 17.1429 11.8929C17.5571 11.8929 17.8929 11.5571 17.8929 11.1429C17.8929 7.88833 15.2546 5.25 12 5.25Z" fill="#8C39F5"></path>
</g>
<defs>
<clipPath id="clip0_182_14337">
<rect width="24" height="24" fill="white"></rect>
</clipPath>
</defs>
</svg>