<svg width="24" height="24" viewBox="0 0 24 24" fill="none" xmlns="http://www.w3.org/2000/svg">
<path d="M5.26369 0.4923C5.46676 0.853319 5.33872 1.31061 4.9777 1.51368C3.62156 2.27651 2.42299 3.29512 1.44027 4.49517C1.17784 4.81564 0.705302 4.86269 0.384831 4.60026C0.0643595 4.33783 0.0173103 3.86529 0.279743 3.54482C1.37702 2.20487 2.71846 1.06348 4.24231 0.206315C4.60333 0.0032418 5.06062 0.131282 5.26369 0.4923Z" fill="#8C39F5"></path>
<path d="M17.0263 0.4923C17.2294 0.131282 17.6867 0.0032418 18.0477 0.206315C19.5716 1.06348 20.913 2.20487 22.0103 3.54482C22.2727 3.86529 22.2257 4.33783 21.9052 4.60026C21.5847 4.86269 21.1122 4.81564 20.8498 4.49517C19.867 3.29512 18.6685 2.27651 17.3123 1.51368C16.9513 1.31061 16.8233 0.853319 17.0263 0.4923Z" fill="#8C39F5"></path>
<path d="M12.32 8.14003C12.32 7.72581 11.9843 7.39003 11.57 7.39003C11.1558 7.39003 10.82 7.72581 10.82 8.14003V11.68H8.14004C7.72582 11.68 7.39004 12.0158 7.39004 12.43C7.39004 12.8442 7.72582 13.18 8.14004 13.18H11.57C11.9843 13.18 12.32 12.8442 12.32 12.43V8.14003Z" fill="#8C39F5"></path>
<path d="M1.39004 12.43C1.39004 7.04579 5.75582 2.68 11.14 2.68C14.2272 2.68 16.9798 4.11102 18.7665 6.35252C19.0247 6.67642 18.9714 7.1483 18.6475 7.40648C18.3236 7.66467 17.8517 7.61139 17.5936 7.28749C16.0803 5.38899 13.7529 4.18 11.14 4.18C6.58425 4.18 2.89004 7.87422 2.89004 12.43C2.89004 16.3897 5.6764 19.6993 9.39718 20.4967C9.8022 20.5834 10.0602 20.9821 9.97339 21.3871C9.8866 21.7922 9.48791 22.0501 9.08289 21.9634C4.68367 21.0207 1.39004 17.1103 1.39004 12.43Z" fill="#8C39F5"></path>
<path fill-rule="evenodd" clip-rule="evenodd" d="M19.56 10.71C19.56 10.3987 19.3677 10.1198 19.0768 10.0091C18.7859 9.89836 18.4568 9.97884 18.2498 10.2114L11.4398 17.8614C11.2434 18.082 11.1948 18.3975 11.3157 18.667C11.4367 18.9366 11.7046 19.11 12 19.11H15.58V23.14C15.58 23.4513 15.7723 23.7302 16.0632 23.841C16.3542 23.9517 16.6832 23.8712 16.8902 23.6387L23.7002 15.9887C23.8967 15.768 23.9452 15.4526 23.8243 15.183C23.7034 14.9135 23.4355 14.74 23.14 14.74H19.56V10.71ZM16.33 17.61H13.6718L18.06 12.6805V15.49C18.06 15.9042 18.3958 16.24 18.81 16.24H21.4683L17.08 21.1695V18.36C17.08 17.9458 16.7442 17.61 16.33 17.61Z" fill="#8C39F5"></path>
</svg>